<?xml version="1.0" standalone="no"?><!DOCTYPE svg PUBLIC "-//W3C//DTD SVG 1.1//EN" "http://www.w3.org/Graphics/SVG/1.1/DTD/svg11.dtd"><svg t="1715562810677" class="icon" viewBox="0 0 1024 1024" version="1.1" xmlns="http://www.w3.org/2000/svg" p-id="5627" xmlns:xlink="http://www.w3.org/1999/xlink" width="128" height="128"><path d="M130.742857 156.525714l763.428572 0 0 710.765715-763.428572 0 0-710.765715Z" fill="#FFFFFF" p-id="5628"></path><path d="M894.354286 826.148571c0 22.857143-51.2 41.325714-114.285715 41.325715H245.028571c-63.085714 0-114.285714-18.285714-114.285714-41.325715v-174.445714c0-22.857143-29.257143-41.325714 33.828572-41.325714h688.457142c63.085714 0 41.325714 18.285714 41.325715 41.325714z" fill="#EAEAEA" p-id="5629"></path><path d="M780.068571 894.902857H245.028571a141.897143 141.897143 0 0 1-141.714285-141.714286V270.811429a141.897143 141.897143 0 0 1 141.714285-141.714286h535.04a141.897143 141.897143 0 0 1 141.714286 141.714286v482.377142a141.897143 141.897143 0 0 1-141.714286 141.714286zM245.028571 183.954286a86.857143 86.857143 0 0 0-86.857142 86.857143v482.377142a86.857143 86.857143 0 0 0 86.857142 86.857143h535.04a86.857143 86.857143 0 0 0 86.857143-86.857143V270.811429a86.857143 86.857143 0 0 0-86.857143-86.857143z" fill="#808080" p-id="5630"></path><path d="M667.794286 501.76h-310.857143a77.897143 77.897143 0 0 1-75.154286-80.091429V158.354286a27.428571 27.428571 0 1 1 54.857143 0v263.314285a23.405714 23.405714 0 0 0 20.297143 25.234286h310.857143a23.405714 23.405714 0 0 0 20.48-25.234286V158.354286a27.428571 27.428571 0 1 1 54.857143 0v263.314285a77.897143 77.897143 0 0 1-75.337143 80.091429z" fill="#808080" p-id="5631"></path><path d="M587.154286 367.36a27.428571 27.428571 0 0 1-27.428572-27.428571v-53.577143a27.428571 27.428571 0 1 1 54.857143 0v53.577143a27.428571 27.428571 0 0 1-27.428571 27.428571z" fill="#808080" p-id="5632"></path></svg>