<?xml version="1.0" encoding="UTF-8"?>
<svg width="40px" height="40px" viewBox="0 0 40 40" version="1.1" xmlns="http://www.w3.org/2000/svg" xmlns:xlink="http://www.w3.org/1999/xlink">
    <title>icon_消防备份 3</title>
    <defs>
        <path d="M6.31770471,0 C4.41524752,0.000843904844 2.26899335,0.624489585 0,1.94013724 L0,1.94013724 L1.10969663,2.58741225 C5.02726203,0.317308221 8.5766099,0.10633201 11.1390003,1.60173139 L11.1390003,1.60173139 L10.0301444,0.954456379 C8.95407489,0.32743508 7.70566618,0 6.32947422,0 L6.32947422,0" id="path-1"></path>
        <polygon id="path-3" points="0 0 15.1597171 0 15.1597171 34.1502973 0 34.1502973"></polygon>
        <path d="M0,24.3213376 L0,24.4276696 C0.012610189,28.8885506 1.5813177,32.0270327 4.1117623,33.5030223 L4.1117623,33.5030223 L5.22145894,34.1511412 C2.69101434,32.6743078 1.12230682,29.5358256 1.10885596,25.0749446 L1.10885596,25.0749446 C1.08447626,16.0957971 7.37359787,5.15963422 15.1591286,0.647275016 L15.1591286,0.647275016 L14.0494319,0 C6.29500637,4.4946372 0.0243796988,15.3624438 0,24.3213376" id="path-5"></path>
        <path d="M0,1.85574675 L5.54680182,5.09212183 C9.29286864,2.92075467 12.6875315,2.71990531 15.1381116,4.14863621 L15.1381116,4.14863621 L9.5904691,0.912261137 C8.56147767,0.312244792 7.36603175,0 6.04784666,0 L6.04784666,0 C4.22693536,0 2.17231523,0.596640725 0,1.85574675" id="path-7"></path>
        <path d="M0,23.3592861 C0.0126840483,27.6243812 1.51161518,30.6253068 3.9319308,32.0363157 L3.9319308,32.0363157 L9.47873262,35.2726908 C7.05925768,33.8616819 5.55864518,30.8599123 5.54687568,26.5956612 L5.54687568,26.5956612 C5.52249598,18.0080855 11.5375561,7.55041664 18.9817711,3.23637508 L18.9817711,3.23637508 L13.4349693,0 C5.98991365,4.31404156 -0.0243058395,14.7717104 0,23.3592861" id="path-9"></path>
        <polygon id="path-11" points="0 0 26.9572112 0 26.9572112 34.8055392 0 34.8055392"></polygon>
        <path d="M0,0.525752718 L0.179064684,0.629553014 C0.807052098,0.264986121 1.37703264,0.231229927 1.7881248,0.471742808 L1.7881248,0.471742808 L1.6099008,0.367098607 C1.43756155,0.266673931 1.2366392,0.21435183 1.01469988,0.21435183 L1.01469988,0.21435183 C0.709533303,0.21435183 0.364854803,0.313932602 0,0.525752718" id="path-13"></path>
        <path d="M0,3.92078191 C0.00169443571,4.63725712 0.253898216,5.14106831 0.659946303,5.37820557 L0.659946303,5.37820557 L0.838170308,5.48200587 C0.431281542,5.24486861 0.179918441,4.74021351 0.178237082,4.0245822 L0.178237082,4.0245822 C0.174033686,2.58319273 1.18368949,0.827870652 2.43377956,0.103800296 L2.43377956,0.103800296 L2.25471488,0 C1.00546548,0.724070356 -0.00419031918,2.47939243 0,3.92078191" id="path-15"></path>
    </defs>
    <g id="上位机" stroke="none" stroke-width="1" fill="none" fill-rule="evenodd">
        <g id="1_1.光储一体机上位机_首页" transform="translate(-524.000000, -715.000000)">
            <g id="main" transform="translate(212.000000, 102.000000)">
                <g id="2" transform="translate(24.000000, 278.000000)">
                    <g id="能流图1" transform="translate(92.000000, 50.000000)">
                        <g id="编组-15备份" transform="translate(136.000000, 285.000000)">
                            <g id="icon_消防备份-3" transform="translate(60.000000, 0.000000)">
                                <rect id="BG" fill-rule="nonzero" x="0" y="0" width="40" height="40"></rect>
                                <g id="编组" transform="translate(3.000000, 0.000000)">
                                    <path d="M24.0788197,0.955054566 L25.1885163,1.60232958 C22.6252852,0.106930197 19.0759374,0.317906408 15.1592126,2.58801044 L14.049516,1.94073542 C17.9670814,-0.329368608 21.5164293,-0.540344819 24.0788197,0.955054566" id="Fill-1" fill="#DEDEDE"></path>
                                    <g transform="translate(14.049432, 0.000598)">
                                        <mask id="mask-2" fill="white">
                                            <use xlink:href="#path-1"></use>
                                        </mask>
                                        <g id="Clip-4"></g>
                                        <path d="M1.10986477,2.58741225 L0.000168135854,1.94013724 C3.91773353,-0.329966794 7.46624072,-0.540943005 10.0294718,0.954456379 L11.1391684,1.60173139 C8.57593736,0.10633201 5.02658948,0.317308221 1.10986477,2.58741225" id="Fill-3" fill="#DEDEDE" mask="url(#mask-2)"></path>
                                    </g>
                                    <g transform="translate(0.000000, 1.940904)">
                                        <mask id="mask-4" fill="white">
                                            <use xlink:href="#path-3"></use>
                                        </mask>
                                        <g id="Clip-6"></g>
                                        <path d="M5.22120674,34.1502973 L4.1115101,33.5030223 C1.58190618,32.0270327 0.0123579853,28.8885506 -0.000327782467,24.4276696 C-0.0254725818,15.4485221 6.26448971,4.5115153 14.0500204,0 L15.1597171,0.647275016 C7.37418634,5.15879031 1.08422405,16.0957971 1.10944443,25.0741007 C1.12205462,29.5358256 2.69076214,32.6743078 5.22120674,34.1502973" id="Fill-5" fill="#DEDEDE" mask="url(#mask-4)"></path>
                                    </g>
                                    <g transform="translate(0.000000, 1.940735)">
                                        <mask id="mask-6" fill="white">
                                            <use xlink:href="#path-5"></use>
                                        </mask>
                                        <g id="Clip-8"></g>
                                        <path d="M5.22120674,34.1504661 L4.1115101,33.5031911 C1.58190618,32.0272015 0.0123579853,28.8887194 -0.000327782467,24.4278384 C-0.0254725818,15.4486909 6.26448971,4.51168408 14.0500204,0.000168780969 L15.1597171,0.647443797 C7.37418634,5.15895909 1.08422405,16.0959659 1.10944443,25.0742695 C1.12205462,29.5359944 2.69076214,32.6744765 5.22120674,34.1504661" id="Fill-7" fill="#DEDEDE" mask="url(#mask-6)"></path>
                                    </g>
                                    <g transform="translate(1.109784, 0.647275)">
                                        <path d="M14.0495126,1.94073587 C21.833362,-2.57077943 28.1645175,1.05126017 28.1898186,10.0295638 C28.215799,19.0095553 21.924996,29.946562 14.1411467,34.4580773 C6.35645663,38.9695926 0.0253010592,35.3483969 0,26.3684055 C-0.0259803762,17.389258 6.26482259,6.45225117 14.0495126,1.94073587" id="Fill-9" fill="#CBCDD1"></path>
                                        <path d="M24.4115572,2.22403473 L29.9591996,5.46040981 C27.5077789,4.02999109 24.1139567,4.23168435 20.3678899,6.40305152 L14.8210881,3.16667644 C18.5671549,0.996153179 21.9609771,0.794459921 24.4115572,2.22403473" id="Fill-11" fill="#F1F1F1"></path>
                                    </g>
                                    <g transform="translate(15.930872, 1.958457)">
                                        <mask id="mask-8" fill="white">
                                            <use xlink:href="#path-7"></use>
                                        </mask>
                                        <g id="Clip-14"></g>
                                        <path d="M5.54688588,5.09195305 L-0.000756611342,1.85557797 C3.74531021,-0.314945288 7.1399731,-0.516638546 9.59055317,0.912936261 L15.137355,4.14931134 C12.6867749,2.71889263 9.29295271,2.92058589 5.54688588,5.09195305" id="Fill-13" fill="#F1F1F1" mask="url(#mask-8)"></path>
                                    </g>
                                    <path d="M11.9745514,39.086895 L6.42690894,35.8505199 C4.00827469,34.439511 2.50766219,31.4385854 2.49581883,27.1734903 C2.47151298,18.5867585 8.48657315,8.12908965 15.9307881,3.81420418 L21.4775899,7.05057926 C14.033375,11.3646208 8.01915548,21.8222897 8.04353518,30.4090214 C8.05530469,34.6741165 9.5550765,37.6758861 11.9745514,39.086895" id="Fill-15" fill="#F1F1F1"></path>
                                    <g transform="translate(2.495903, 3.814204)">
                                        <mask id="mask-10" fill="white">
                                            <use xlink:href="#path-9"></use>
                                        </mask>
                                        <g id="Clip-18"></g>
                                        <path d="M9.47864855,35.2726908 L3.93100605,32.0363157 C1.5123718,30.6253068 0.0117593011,27.6243812 -8.4057656e-05,23.3592861 C-0.0243899075,14.7725543 5.99067026,4.31488547 13.4348852,-5.99630457e-15 L18.981687,3.23637508 C11.5374721,7.55041664 5.52325259,18.0080855 5.54763229,26.5948173 C5.5594018,30.8599123 7.05917361,33.8616819 9.47864855,35.2726908" id="Fill-17" fill="#F1F1F1" mask="url(#mask-10)"></path>
                                    </g>
                                    <g transform="translate(8.042789, 5.194461)">
                                        <g>
                                            <mask id="mask-12" fill="white">
                                                <use xlink:href="#path-11"></use>
                                            </mask>
                                            <g id="Clip-20"></g>
                                            <path d="M13.4349692,1.85594971 C20.8791842,-2.45809186 26.9329156,1.00444972 26.9573691,9.59118151 C26.981675,18.1770694 20.9674555,28.6347382 13.5223999,32.9496237 C6.07818496,37.2636653 0.0244535478,33.8011237 0,25.2152358 C-0.0243058498,16.628504 5.99075432,6.17083517 13.4349692,1.85594971" id="Fill-19" fill="#CBCDD1" mask="url(#mask-12)"></path>
                                        </g>
                                        <path d="M7.47455323,34.0154755 C3.36531296,34.0154755 0.802922551,30.6423879 0.787719539,25.2127041 C0.764251304,16.8926462 6.61453834,6.72106113 13.8284071,2.54035653 C15.8040034,1.39517766 17.7594234,0.790097887 19.4836566,0.790097887 C23.5928968,0.790097887 26.1552873,4.16318555 26.1704903,9.59371322 C26.1939585,17.9137711 20.3436715,28.0836684 13.128962,32.2652169 C11.1533657,33.4103957 9.19794573,34.0154755 7.47455323,34.0154755" id="Fill-21" fill="#DEDEDE"></path>
                                        <path d="M24.0692257,15.4704134 C24.3247922,15.4020571 24.5870842,15.0737781 24.6551792,14.7387479 C24.7232742,14.4028738 24.5719519,14.1868341 24.3172261,14.2551904 C24.0616596,14.3243906 23.7993677,14.6518257 23.7312727,14.9876998 C23.662337,15.32273 23.8136592,15.5387697 24.0692257,15.4704134" id="Fill-23" fill="#2F2F31"></path>
                                        <path d="M24.3168058,8.6529281 C24.5723723,8.4259177 24.7236945,8.03350195 24.6547588,7.77779878 C24.5866638,7.52125171 24.3243719,7.49762237 24.0688054,7.72547668 C23.8140796,7.95248708 23.6627573,8.34405893 23.7308523,8.600606 C23.7989473,8.85630917 24.0612393,8.87993851 24.3168058,8.6529281" id="Fill-25" fill="#2F2F31"></path>
                                        <path d="M15.0353704,16.8333197 C15.0353704,15.8172583 14.3249964,15.4062766 13.4490086,15.9134634 C12.5721801,16.4214941 11.8626468,17.6561269 11.8626468,18.6721884 C11.8626468,19.6874059 12.5730208,20.0992315 13.4490086,19.5920446 C14.3249964,19.0840139 15.0353704,17.8485372 15.0353704,16.8333197" id="Fill-27" fill="#2F2F31"></path>
                                        <path d="M12.6680175,12.6849367 C12.5999225,12.4283896 12.3376306,12.4056042 12.0820641,12.6326146 C11.8264976,12.859625 11.6751753,13.2511968 11.7432704,13.5077439 C11.8122061,13.764291 12.074498,13.7879203 12.3300645,13.560066 C12.5847903,13.3330556 12.7361126,12.9414837 12.6680175,12.6849367" id="Fill-29" fill="#2F2F31"></path>
                                        <path d="M13.927271,13.740746 C13.927271,13.4344086 13.7128978,13.3103545 13.4489245,13.4631013 C13.1849512,13.616692 12.970578,13.988854 12.970578,14.2951915 C12.970578,14.601529 13.1849512,14.725583 13.4489245,14.5728362 C13.7128978,14.4192455 13.927271,14.0470835 13.927271,13.740746" id="Fill-31" fill="#2F2F31"></path>
                                        <path d="M12.2521335,14.9346182 C12.1201469,14.7455835 11.8275905,14.8249106 11.5989257,15.1101504 C11.3694203,15.3962342 11.2912371,15.7810548 11.4232238,15.9692455 C11.5552104,16.1582802 11.8486075,16.0797971 12.0772722,15.7937133 C12.305937,15.5076296 12.3841202,15.1236529 12.2521335,14.9346182" id="Fill-33" fill="#2F2F31"></path>
                                        <path d="M10.8977151,16.8836164 C10.6690504,16.8633627 10.376494,17.1232854 10.2436667,17.4650669 C10.11168,17.8068483 10.1907039,18.1005272 10.4193686,18.1216248 C10.6480334,18.1418786 10.9405898,17.881112 11.0725764,17.5393305 C11.2045631,17.197549 11.1263799,16.9038702 10.8977151,16.8836164" id="Fill-35" fill="#2F2F31"></path>
                                        <path d="M10.2268531,19.065448 C9.9628798,19.2190387 9.74850658,19.5912007 9.74850658,19.8975382 C9.74850658,20.2038757 9.9628798,20.3279297 10.2268531,20.174339 C10.4908264,20.0215922 10.7051996,19.6494302 10.7051996,19.3430927 C10.7051996,19.0367553 10.4908264,18.9127012 10.2268531,19.065448" id="Fill-37" fill="#2F2F31"></path>
                                        <path d="M10.4192846,20.8956245 C10.1906198,21.1817082 10.1124366,21.5656849 10.2444233,21.7547196 C10.3764099,21.9437543 10.6689663,21.8644272 10.8976311,21.5791874 C11.1262958,21.2931036 11.2053197,20.908283 11.0724924,20.7200923 C10.9405057,20.5310576 10.6479493,20.6095407 10.4192846,20.8956245" id="Fill-39" fill="#2F2F31"></path>
                                        <path d="M11.42356,21.8835839 C11.2915734,22.2253653 11.3697566,22.5190442 11.5984213,22.5401418 C11.8270861,22.5603955 12.1204831,22.299629 12.2524698,21.9578475 C12.3844564,21.616066 12.3062733,21.3223871 12.0767678,21.3021334 C11.8481031,21.2810358 11.5555467,21.5418024 11.42356,21.8835839" id="Fill-41" fill="#2F2F31"></path>
                                        <path d="M12.9704099,21.7647621 C12.9704099,22.0710995 13.1847831,22.1951535 13.4487564,22.0424068 C13.7127297,21.8888161 13.9271029,21.516654 13.9271029,21.2103166 C13.9271029,20.9039791 13.7127297,20.7799251 13.4487564,20.9326719 C13.1847831,21.0862626 12.9704099,21.4584246 12.9704099,21.7647621" id="Fill-43" fill="#2F2F31"></path>
                                        <path d="M14.6455474,20.5708899 C14.777534,20.7599246 15.0700904,20.6805975 15.2987552,20.3953577 C15.5282606,20.1092739 15.6064438,19.7244533 15.4744572,19.5362625 C15.3424705,19.3472279 15.0490734,19.425711 14.8204087,19.7117947 C14.5917439,19.9978785 14.5135607,20.3818552 14.6455474,20.5708899" id="Fill-45" fill="#2F2F31"></path>
                                        <path d="M15.9999658,18.6218916 C16.2286305,18.6421454 16.5211869,18.3822227 16.6531736,18.0404412 C16.7860009,17.6986597 16.706977,17.4041369 16.4783123,17.3838832 C16.2496475,17.3636295 15.9570911,17.6235522 15.8251045,17.9653337 C15.6931178,18.307959 15.771301,18.6016379 15.9999658,18.6218916" id="Fill-47" fill="#2F2F31"></path>
                                        <path d="M16.6708278,16.4399757 C16.9348011,16.2872289 17.1491743,15.9142229 17.1491743,15.6078855 C17.1491743,15.301548 16.9348011,15.177494 16.6708278,15.3310847 C16.4068545,15.4838315 16.1924813,15.8568374 16.1924813,16.162331 C16.1924813,16.4686684 16.4068545,16.5935663 16.6708278,16.4399757" id="Fill-49" fill="#2F2F31"></path>
                                        <path d="M16.4783963,14.6098836 C16.7070611,14.3237999 16.7860849,13.9398232 16.6532576,13.7507885 C16.521271,13.5617538 16.2287146,13.6410809 16.0000498,13.9263207 C15.7713851,14.2124044 15.6923612,14.597225 15.8251885,14.7854158 C15.9571752,14.9744505 16.2497316,14.8959674 16.4783963,14.6098836" id="Fill-51" fill="#2F2F31"></path>
                                        <path d="M15.4742049,13.6218398 C15.6061916,13.2800584 15.5280084,12.9863795 15.2993437,12.9661258 C15.0698382,12.9450281 14.7772818,13.2057947 14.6452952,13.5475762 C14.5133085,13.8893577 14.5914917,14.1830365 14.8209972,14.2032903 C15.0496619,14.2243879 15.3422183,13.9636213 15.4742049,13.6218398" id="Fill-53" fill="#2F2F31"></path>
                                        <path d="M11.8500366,9.62046501 C11.7819416,9.36391793 11.518809,9.3411325 11.2640832,9.56814291 C11.0085167,9.79515331 10.8571944,10.1867252 10.9252894,10.4432722 C10.9942251,10.6998193 11.2565171,10.7234486 11.5112429,10.4955943 C11.7668094,10.2685839 11.9181316,9.87701208 11.8500366,9.62046501" id="Fill-55" fill="#2F2F31"></path>
                                        <path d="M13.927187,10.0773551 C13.927187,9.77101763 13.7128137,9.64696362 13.4488405,9.7997104 C13.1848672,9.95330108 12.9704939,10.3254631 12.9704939,10.6318006 C12.9704939,10.938138 13.1848672,11.062192 13.4488405,10.9094453 C13.7128137,10.7558546 13.927187,10.3836925 13.927187,10.0773551" id="Fill-57" fill="#2F2F31"></path>
                                        <path d="M11.0319716,6.55607774 C10.9638766,6.29953066 10.7015847,6.27674523 10.4460182,6.50375564 C10.1904517,6.73076604 10.0391294,7.12233789 10.1072244,7.37888496 C10.1761601,7.63543203 10.4384521,7.65821746 10.6940186,7.43120706 C10.9487444,7.20419666 11.1000666,6.81262481 11.0319716,6.55607774" id="Fill-59" fill="#2F2F31"></path>
                                        <path d="M10.391374,15.1964819 C10.2047432,15.0884621 9.90125801,15.2639943 9.71462721,15.5888976 C9.52799641,15.913801 9.52799641,16.2648654 9.71462721,16.3728852 C9.90125801,16.480905 10.2047432,16.3053728 10.391374,15.9804695 C10.5780048,15.6555661 10.5780048,15.3045017 10.391374,15.1964819" id="Fill-61" fill="#2F2F31"></path>
                                        <path d="M8.15659632,13.9012567 C7.96996552,13.7932369 7.66648031,13.9687691 7.47984951,14.2936725 C7.29321871,14.6185758 7.29321871,14.9696403 7.47984951,15.0776601 C7.66648031,15.1856799 7.96996552,15.0101477 8.15659632,14.6852443 C8.34322712,14.360341 8.34322712,14.0092765 8.15659632,13.9012567" id="Fill-63" fill="#2F2F31"></path>
                                        <path d="M5.92181862,12.6060316 C5.73518782,12.4980117 5.43170261,12.673544 5.24507181,12.9984473 C5.05844101,13.3233507 5.05844101,13.6744151 5.24507181,13.7824349 C5.43170261,13.8904547 5.73518782,13.7149225 5.92181862,13.3900192 C6.10844942,13.0651158 6.10844942,12.7140514 5.92181862,12.6060316" id="Fill-65" fill="#2F2F31"></path>
                                        <path d="M8.93405651,18.3929403 C8.67849001,18.4612965 8.41619808,18.7887316 8.34810306,19.1246058 C8.28000804,19.4604799 8.4313303,19.6765195 8.68605612,19.6081632 C8.94162262,19.538963 9.20391455,19.211528 9.27200957,18.8756538 C9.34094527,18.5406236 9.189623,18.324584 8.93405651,18.3929403" id="Fill-67" fill="#2F2F31"></path>
                                        <path d="M5.88129788,19.2139753 C5.62573138,19.2823316 5.36343945,19.6106106 5.29534443,19.9456408 C5.22724941,20.2815149 5.37857168,20.4975545 5.63329749,20.4291983 C5.88886399,20.3599981 6.15115592,20.032563 6.21925094,19.6966888 C6.28818664,19.3616586 6.13686438,19.145619 5.88129788,19.2139753" id="Fill-69" fill="#2F2F31"></path>
                                        <path d="M2.82845518,20.0350947 C2.57288868,20.103451 2.31059675,20.4308861 2.24250173,20.7667602 C2.17440671,21.1026343 2.32572898,21.318674 2.58129548,21.2503177 C2.83602129,21.1811175 3.09831323,20.8536824 3.16640825,20.5186522 C3.23534395,20.182778 3.08402168,19.9667384 2.82845518,20.0350947" id="Fill-71" fill="#2F2F31"></path>
                                        <path d="M8.68639239,21.4178328 C8.4308259,21.6448432 8.27950363,22.0372589 8.34843933,22.2929621 C8.41653435,22.5495092 8.67882628,22.5731385 8.93439278,22.3452842 C9.1891186,22.1182738 9.34044087,21.726702 9.27234584,21.4701549 C9.20425082,21.2144517 8.94195889,21.1908224 8.68639239,21.4178328" id="Fill-73" fill="#2F2F31"></path>
                                        <path d="M5.63363377,24.1352064 C5.37806727,24.3622168 5.226745,24.7546325 5.2956807,25.0103357 C5.36377572,25.2668828 5.62606765,25.2905121 5.88163415,25.0626578 C6.13635997,24.8356474 6.28768224,24.4440756 6.21958722,24.1875285 C6.1514922,23.9318253 5.88920026,23.908196 5.63363377,24.1352064" id="Fill-75" fill="#2F2F31"></path>
                                        <path d="M2.58087514,26.85258 C2.32530864,27.0795904 2.17398637,27.4720061 2.24292207,27.7277093 C2.31101709,27.9842564 2.57330902,28.0078857 2.82887552,27.7800314 C3.08360134,27.553021 3.23492361,27.1614491 3.16682859,26.9049021 C3.09873357,26.6491989 2.83644163,26.6255696 2.58087514,26.85258" id="Fill-77" fill="#2F2F31"></path>
                                        <path d="M9.71487941,23.4606732 C9.52824861,23.7855766 9.52824861,24.136641 9.71487941,24.2446608 C9.90151021,24.3535246 10.2049954,24.1779924 10.3916262,23.853089 C10.578257,23.5281856 10.578257,23.1771212 10.3916262,23.0682575 C10.2049954,22.9602377 9.90151021,23.1357699 9.71487941,23.4606732" id="Fill-79" fill="#2F2F31"></path>
                                        <path d="M7.48010171,27.3461799 C7.29347091,27.6710833 7.29347091,28.0221477 7.48010171,28.1301675 C7.66673251,28.2390312 7.97021773,28.063499 8.15684852,27.7385957 C8.34347932,27.4136923 8.34347932,27.0626279 8.15684852,26.9537642 C7.97021773,26.8457443 7.66673251,27.0212766 7.48010171,27.3461799" id="Fill-81" fill="#2F2F31"></path>
                                        <path d="M5.24540808,31.231771 C5.05877728,31.5566744 5.05877728,31.9077388 5.24540808,32.0157586 C5.43203888,32.1246223 5.73552409,31.9490901 5.92215489,31.6241867 C6.10878569,31.2992834 6.10878569,30.948219 5.92215489,30.8393552 C5.73552409,30.7313354 5.43203888,30.9068676 5.24540808,31.231771" id="Fill-83" fill="#2F2F31"></path>
                                        <path d="M11.7438588,23.9741049 C11.6757638,24.3099791 11.8270861,24.5260187 12.0818119,24.4568185 C12.3373784,24.3884622 12.5996703,24.0610271 12.6677653,23.725153 C12.736701,23.3901228 12.5853788,23.1732392 12.3298123,23.2424394 C12.0742458,23.3107957 11.8119538,23.6382308 11.7438588,23.9741049" id="Fill-85" fill="#2F2F31"></path>
                                        <path d="M10.9258779,27.9867037 C10.8577829,28.3217339 11.0091051,28.5386175 11.263831,28.4694173 C11.5193975,28.401061 11.7816894,28.0736259 11.8506251,27.7377518 C11.9187201,27.4027215 11.7673978,27.185838 11.5118313,27.2550382 C11.2562649,27.3233945 10.9939729,27.6508296 10.9258779,27.9867037" id="Fill-87" fill="#2F2F31"></path>
                                        <path d="M10.107981,31.9993025 C10.039886,32.3351766 10.1912083,32.5512162 10.4459341,32.4828599 C10.7015006,32.4136597 10.9637925,32.0862246 11.0318876,31.7503505 C11.1008233,31.4153203 10.949501,31.1984368 10.6939345,31.267637 C10.438368,31.3359932 10.1760761,31.6634283 10.107981,31.9993025" id="Fill-89" fill="#2F2F31"></path>
                                        <path d="M14.2296634,22.820487 C14.2977584,23.0770341 14.5600503,23.1006634 14.8156168,22.8728091 C15.0711833,22.6457987 15.2225056,22.2542269 15.1544106,21.9976798 C15.0854749,21.7419766 14.8231829,21.7183473 14.5676164,21.9453577 C14.3128906,22.1723681 14.1615683,22.5639399 14.2296634,22.820487" id="Fill-91" fill="#2F2F31"></path>
                                        <path d="M15.0477284,25.8849587 C15.1158234,26.1415058 15.3781153,26.1642912 15.6336818,25.9372808 C15.8892483,25.7102704 16.0405706,25.3186985 15.9716349,25.0621515 C15.9035398,24.8064483 15.6412479,24.782819 15.3856814,25.0098294 C15.1309556,25.2368398 14.9796333,25.6284116 15.0477284,25.8849587" id="Fill-93" fill="#2F2F31"></path>
                                        <path d="M15.8657093,28.9494303 C15.9338043,29.2059774 16.1960962,29.2287628 16.4516627,29.0017524 C16.7072292,28.774742 16.8585515,28.3831702 16.7896158,28.1266231 C16.7215208,27.870076 16.4592288,27.8472906 16.2036623,28.074301 C15.9489365,28.3013114 15.7976143,28.6928833 15.8657093,28.9494303" id="Fill-95" fill="#2F2F31"></path>
                                        <path d="M16.5063069,20.3090262 C16.6929377,20.417046 16.9964229,20.2415138 17.1830537,19.9166105 C17.3696845,19.5917071 17.3696845,19.2406427 17.1830537,19.1326229 C16.9964229,19.024603 16.6929377,19.2001352 16.5063069,19.5250386 C16.3196761,19.849942 16.3196761,20.2010064 16.5063069,20.3090262" id="Fill-97" fill="#2F2F31"></path>
                                        <path d="M18.7410846,21.6042514 C18.9277154,21.7122712 19.2312006,21.536739 19.4178314,21.2118356 C19.6044622,20.8869322 19.6044622,20.5358678 19.4178314,20.427848 C19.2312006,20.3198282 18.9277154,20.4953604 18.7410846,20.8202638 C18.5544538,21.1451671 18.5544538,21.4962315 18.7410846,21.6042514" id="Fill-99" fill="#2F2F31"></path>
                                        <path d="M20.9758623,22.8994765 C21.1624931,23.0074963 21.4659783,22.8319641 21.6526091,22.5070608 C21.8392399,22.1821574 21.8392399,21.831093 21.6526091,21.7230732 C21.4659783,21.6150533 21.1624931,21.7905855 20.9758623,22.1154889 C20.7892315,22.4403923 20.7892315,22.7914567 20.9758623,22.8994765" id="Fill-101" fill="#2F2F31"></path>
                                        <path d="M17.9636244,17.1125678 C18.2191909,17.0442115 18.4814828,16.7159325 18.5495778,16.3809023 C18.6176729,16.0450282 18.4663506,15.8289886 18.2116248,15.8973448 C17.9560583,15.966545 17.6937664,16.2939801 17.6256713,16.6290103 C17.5567356,16.9648845 17.7080579,17.1809241 17.9636244,17.1125678" id="Fill-103" fill="#2F2F31"></path>
                                        <path d="M21.016383,16.2915328 C21.2719495,16.2231765 21.5342415,15.8948975 21.6023365,15.5598673 C21.6704315,15.2239932 21.5191092,15.0079535 21.2643834,15.0763098 C21.0088169,15.14551 20.746525,15.4729451 20.67843,15.8079753 C20.6094943,16.1438495 20.7608165,16.3598891 21.016383,16.2915328" id="Fill-105" fill="#2F2F31"></path>
                                        <path d="M18.2112885,14.0876753 C18.466855,13.8606649 18.6181773,13.4682491 18.5492416,13.212546 C18.4811466,12.9559989 18.2188546,12.9323696 17.9632881,13.15938 C17.7085623,13.3872343 17.55724,13.7788061 17.6253351,14.0353532 C17.6934301,14.2910564 17.955722,14.3146857 18.2112885,14.0876753" id="Fill-107" fill="#2F2F31"></path>
                                        <path d="M21.2640471,11.3703017 C21.5196136,11.1432913 21.6709359,10.7508755 21.6020002,10.4951724 C21.5339052,10.2386253 21.2716133,10.214996 21.0160468,10.4428503 C20.7613209,10.6698607 20.6099987,11.0614325 20.6780937,11.3179796 C20.7461887,11.5736828 21.0084806,11.5973121 21.2640471,11.3703017" id="Fill-109" fill="#2F2F31"></path>
                                        <path d="M17.1828015,12.0448348 C17.3694323,11.7199315 17.3694323,11.3688671 17.1828015,11.2608472 C16.9961707,11.1519835 16.6926855,11.3275157 16.5060547,11.6524191 C16.3194239,11.9773225 16.3194239,12.3283869 16.5060547,12.4372506 C16.6926855,12.5452704 16.9961707,12.3697382 17.1828015,12.0448348" id="Fill-111" fill="#2F2F31"></path>
                                        <path d="M19.4175792,8.15924377 C19.60421,7.8343404 19.60421,7.48327599 19.4175792,7.37525617 C19.2309484,7.26639244 18.9274632,7.44192465 18.7408324,7.76682802 C18.5542016,8.09173138 18.5542016,8.4427958 18.7408324,8.55165952 C18.9274632,8.65967934 19.2309484,8.48414713 19.4175792,8.15924377" id="Fill-113" fill="#2F2F31"></path>
                                        <path d="M21.6523569,4.27373708 C21.8389877,3.94883372 21.8389877,3.5977693 21.6523569,3.48974948 C21.4657261,3.38088576 21.1622409,3.55641797 20.9756101,3.88132133 C20.7889793,4.2062247 20.7889793,4.55728911 20.9756101,4.66615284 C21.1622409,4.77417266 21.4657261,4.59864045 21.6523569,4.27373708" id="Fill-115" fill="#2F2F31"></path>
                                        <path d="M15.1538221,11.5314031 C15.2219171,11.195529 15.0705948,10.9794894 14.815869,11.0486896 C14.5603025,11.1170459 14.2980106,11.4444809 14.2299156,11.7803551 C14.1609799,12.1153853 14.3123021,12.3314249 14.5678686,12.2630686 C14.8234351,12.1947123 15.0857271,11.8672773 15.1538221,11.5314031" id="Fill-117" fill="#2F2F31"></path>
                                        <path d="M15.971803,7.51880438 C16.039898,7.18293025 15.8885758,6.96689061 15.6338499,7.03524691 C15.3782834,7.1044471 15.1159915,7.43188218 15.0470558,7.76775631 C14.9789608,8.10278653 15.1302831,8.31882617 15.3858496,8.25046988 C15.6414161,8.18211359 15.903708,7.85383461 15.971803,7.51880438" id="Fill-119" fill="#2F2F31"></path>
                                        <path d="M16.7896999,3.50620563 C16.8577949,3.1703315 16.7064726,2.95429186 16.4517468,3.02349206 C16.1961803,3.09184835 15.9338884,3.41928343 15.8657934,3.75515756 C15.7968577,4.09018778 15.9481799,4.30707133 16.2037464,4.23787113 C16.4593129,4.16951484 16.7216048,3.84207976 16.7896999,3.50620563" id="Fill-121" fill="#2F2F31"></path>
                                        <path d="M13.927187,6.41404855 C13.927187,6.10771109 13.7128137,5.98365708 13.4488405,6.13640386 C13.1848672,6.28999454 12.9704939,6.66215657 12.9704939,6.96849403 C12.9704939,7.27483149 13.1848672,7.3988855 13.4488405,7.24613873 C13.7128137,7.09254805 13.927187,6.72038601 13.927187,6.41404855" id="Fill-123" fill="#2F2F31"></path>
                                        <path d="M10.6719087,12.6778479 C10.539922,12.4888132 10.2473657,12.5681402 10.0178602,12.8533801 C9.78919546,13.1394638 9.71101229,13.5242844 9.84299893,13.7124752 C9.97498558,13.9015099 10.2683826,13.8230267 10.4970474,13.536943 C10.7257122,13.2508593 10.8038953,12.8668826 10.6719087,12.6778479" id="Fill-125" fill="#2F2F31"></path>
                                        <path d="M9.0915998,10.4211619 C8.95961316,10.2321272 8.66705677,10.3114543 8.43839201,10.5966941 C8.20888657,10.8827779 8.1307034,11.2675985 8.26269004,11.4557893 C8.39467669,11.6448239 8.68807375,11.5663408 8.91673851,11.2802571 C9.14540328,10.9941733 9.22358645,10.6093527 9.0915998,10.4211619" id="Fill-127" fill="#2F2F31"></path>
                                        <path d="M8.16063158,16.6381245 C7.93196682,16.6178708 7.63941043,16.8777935 7.50742379,17.219575 C7.37459646,17.5613564 7.45362031,17.8558792 7.68228508,17.8761329 C7.91094984,17.8963866 8.20350622,17.636464 8.33549287,17.2938386 C8.46832019,16.9520571 8.38929634,16.6583782 8.16063158,16.6381245" id="Fill-129" fill="#2F2F31"></path>
                                        <path d="M5.42354802,16.392717 C5.19488325,16.3724633 4.90232687,16.632386 4.77034022,16.9741674 C4.6375129,17.3159489 4.71653675,17.6104717 4.94520151,17.6307254 C5.17386627,17.6509791 5.46642266,17.3910564 5.5984093,17.049275 C5.73123663,16.7066496 5.65221278,16.4129707 5.42354802,16.392717" id="Fill-131" fill="#2F2F31"></path>
                                        <path d="M7.06640344,20.8971435 C6.80243015,21.0498903 6.58805694,21.4228962 6.58805694,21.7292337 C6.58805694,22.0355711 6.80243015,22.1596251 7.06640344,22.0060345 C7.33037673,21.8532877 7.54474995,21.4802817 7.54474995,21.1747882 C7.54474995,20.8684507 7.33037673,20.7435528 7.06640344,20.8971435" id="Fill-133" fill="#2F2F31"></path>
                                        <path d="M3.9059538,22.7287546 C3.64198051,22.8815013 3.4276073,23.2545073 3.4276073,23.5608447 C3.4276073,23.8671822 3.64198051,23.9912362 3.9059538,23.8376455 C4.16992709,23.6848988 4.3843003,23.3118928 4.3843003,23.0063993 C4.3843003,22.7000618 4.16992709,22.5751639 3.9059538,22.7287546" id="Fill-135" fill="#2F2F31"></path>
                                        <path d="M7.68228508,24.3135235 C7.45362031,24.5996072 7.37543714,24.9835839 7.50742379,25.1726186 C7.63941043,25.3616533 7.93196682,25.2823262 8.16063158,24.9970864 C8.38929634,24.7110027 8.46832019,24.326182 8.33549287,24.1379913 C8.20350622,23.9489566 7.91094984,24.0274397 7.68228508,24.3135235" id="Fill-137" fill="#2F2F31"></path>
                                        <path d="M4.94528558,27.7314225 C4.71662082,28.0175062 4.63759697,28.4014829 4.77042429,28.5905176 C4.90241094,28.7795523 5.19496732,28.7002252 5.42363208,28.4149854 C5.65229685,28.1289017 5.7313207,27.7440811 5.59849337,27.5558903 C5.46650673,27.3668556 5.17395034,27.4453387 4.94528558,27.7314225" id="Fill-139" fill="#2F2F31"></path>
                                        <path d="M9.8433352,25.9719653 C9.71134856,26.3137467 9.78953173,26.6074256 10.0181965,26.6276793 C10.2468613,26.648777 10.5402583,26.3880104 10.672245,26.0462289 C10.8042316,25.7044474 10.7260484,25.4107685 10.496543,25.3905148 C10.2678782,25.3694172 9.97532185,25.6301838 9.8433352,25.9719653" id="Fill-141" fill="#2F2F31"></path>
                                        <path d="M8.26311038,30.0603467 C8.13112374,30.4021281 8.20930691,30.695807 8.43797167,30.7160607 C8.66747711,30.7371584 8.9600335,30.4763918 9.09202014,30.1346103 C9.22400679,29.7928288 9.14582361,29.49915 8.91631817,29.4788962 C8.68765341,29.4577986 8.39509703,29.7185652 8.26311038,30.0603467" id="Fill-143" fill="#2F2F31"></path>
                                        <path d="M12.9704939,25.4280686 C12.9704939,25.7344061 13.1848672,25.8584601 13.4488405,25.7057133 C13.7128137,25.5521226 13.927187,25.1799606 13.927187,24.8736231 C13.927187,24.5672857 13.7128137,24.4432316 13.4488405,24.5959784 C13.1848672,24.7495691 12.9704939,25.1217311 12.9704939,25.4280686" id="Fill-145" fill="#2F2F31"></path>
                                        <path d="M12.9704939,29.0914595 C12.9704939,29.397797 13.1848672,29.521851 13.4488405,29.3691042 C13.7128137,29.2155135 13.927187,28.8433515 13.927187,28.537014 C13.927187,28.2306766 13.7128137,28.1066226 13.4488405,28.2593694 C13.1848672,28.41296 12.9704939,28.7851221 12.9704939,29.0914595" id="Fill-147" fill="#2F2F31"></path>
                                        <path d="M16.2257722,22.8275758 C16.3577589,23.0166105 16.6503152,22.9372835 16.87898,22.6520436 C17.1084854,22.3659599 17.1866686,21.9811393 17.054682,21.7929485 C16.9226953,21.6039138 16.6301389,21.6823969 16.4006335,21.9684807 C16.1719687,22.2545644 16.0937856,22.639385 16.2257722,22.8275758" id="Fill-149" fill="#2F2F31"></path>
                                        <path d="M17.8060811,25.0843462 C17.9380677,25.2733808 18.2306241,25.1940538 18.4592889,24.9088139 C18.6887943,24.6227302 18.7669775,24.2379096 18.6349909,24.0497188 C18.5030042,23.8606841 18.2096072,23.9391673 17.9809424,24.225251 C17.7522776,24.5113348 17.6740945,24.8953115 17.8060811,25.0843462" id="Fill-151" fill="#2F2F31"></path>
                                        <path d="M18.7370493,18.8672992 C18.9657141,18.8875529 19.2582705,18.6276302 19.3902571,18.2858487 C19.5230844,17.9440673 19.4440606,17.6495445 19.2153958,17.6292908 C18.9867311,17.609037 18.6941747,17.8689597 18.562188,18.2115851 C18.4293607,18.5533666 18.5083846,18.8470455 18.7370493,18.8672992" id="Fill-153" fill="#2F2F31"></path>
                                        <path d="M21.4741329,19.1127067 C21.7027976,19.1329604 21.995354,18.8730377 22.1273407,18.5312563 C22.260168,18.1894748 22.1811442,17.8957959 21.9524794,17.8746983 C21.7238146,17.8544446 21.4312582,18.1152112 21.2992716,18.4569926 C21.1664443,18.7987741 21.2454681,19.092453 21.4741329,19.1127067" id="Fill-155" fill="#2F2F31"></path>
                                        <path d="M19.8313615,14.6083646 C20.0953348,14.4547739 20.309708,14.0826119 20.309708,13.7762744 C20.309708,13.469937 20.0953348,13.3458829 19.8313615,13.4994736 C19.5673882,13.6522204 19.353015,14.0252263 19.353015,14.3307199 C19.353015,14.6370574 19.5673882,14.7619553 19.8313615,14.6083646" id="Fill-157" fill="#2F2F31"></path>
                                        <path d="M22.9918112,12.7767535 C23.2557845,12.6231628 23.4701577,12.2510008 23.4701577,11.9446633 C23.4701577,11.6383259 23.2557845,11.5142719 22.9918112,11.6678625 C22.7278379,11.8206093 22.5134647,12.1927714 22.5134647,12.4991088 C22.5134647,12.8054463 22.7278379,12.9295003 22.9918112,12.7767535" id="Fill-159" fill="#2F2F31"></path>
                                        <path d="M19.2153958,11.1919846 C19.4440606,10.9059009 19.5222438,10.5219242 19.3902571,10.3328895 C19.2582705,10.1438548 18.9657141,10.2231818 18.7370493,10.5084217 C18.5083846,10.7945054 18.4293607,11.179326 18.562188,11.3675168 C18.6941747,11.5565515 18.9867311,11.4780684 19.2153958,11.1919846" id="Fill-161" fill="#2F2F31"></path>
                                        <path d="M21.9523953,7.77400121 C22.1810601,7.48791746 22.2600839,7.10394076 22.1272566,6.91490608 C21.99527,6.72587139 21.7027136,6.80519845 21.4740488,7.09043828 C21.2453841,7.37652203 21.1663602,7.76134263 21.2991875,7.94953341 C21.4311742,8.1385681 21.7237306,8.06008495 21.9523953,7.77400121" id="Fill-163" fill="#2F2F31"></path>
                                        <path d="M17.0543457,9.53345842 C17.1863323,9.19167696 17.1081492,8.89799807 16.8794844,8.87774435 C16.6508197,8.85664673 16.3574226,9.11741333 16.2254359,9.45919479 C16.0934493,9.80097625 16.1716325,10.0946551 16.4011379,10.1149089 C16.6298027,10.1360065 16.9223591,9.87523988 17.0543457,9.53345842" id="Fill-165" fill="#2F2F31"></path>
                                        <path d="M18.6345705,5.44507701 C18.7665572,5.10329555 18.688374,4.80961666 18.4597092,4.78936294 C18.2302038,4.76826532 17.9376474,5.02903192 17.8056608,5.37081338 C17.6736741,5.71259484 17.7518573,6.00627373 17.9813627,6.02652745 C18.2100275,6.04762507 18.5025839,5.78685847 18.6345705,5.44507701" id="Fill-167" fill="#2F2F31"></path>
                                        <path d="M15.1064078,15.0162238 L15.2846318,15.1200241 C14.8735396,14.8803551 14.3035591,14.9141113 13.674731,15.2786782 L13.496507,15.174034 C14.1253351,14.810311 14.6953156,14.7765548 15.1064078,15.0162238" id="Fill-169" fill="#FAFAFA"></path>
                                    </g>
                                    <g transform="translate(21.539044, 19.843333)">
                                        <mask id="mask-14" fill="white">
                                            <use xlink:href="#path-13"></use>
                                        </mask>
                                        <g id="Clip-172"></g>
                                        <path d="M0.178476209,0.629468623 L0.000252203781,0.525668328 C0.629080297,0.161101435 1.19906084,0.127345241 1.610153,0.367014217 L1.78837701,0.471658418 C1.37644417,0.231145537 0.807304302,0.264901731 0.178476209,0.629468623" id="Fill-171" fill="#FAFAFA" mask="url(#mask-14)"></path>
                                    </g>
                                    <path d="M20.1222468,25.8507538 L19.9440228,25.7469535 C19.5379747,25.5098163 19.2866116,25.0060051 19.2840765,24.2895299 C19.2798861,22.8489843 20.2895419,21.0928183 21.539632,20.3687479 L21.717856,20.4725482 C20.467766,21.1974625 19.4581102,22.9527846 19.4623135,24.3941741 C19.4639949,25.1098054 19.7161987,25.6136166 20.1222468,25.8507538" id="Fill-173" fill="#FAFAFA"></path>
                                    <g transform="translate(19.284329, 20.369086)">
                                        <mask id="mask-16" fill="white">
                                            <use xlink:href="#path-15"></use>
                                        </mask>
                                        <g id="Clip-176"></g>
                                        <path d="M0.837918104,5.48166831 L0.659694099,5.37786801 C0.253646013,5.14073075 0.00228291119,4.63691956 -0.000252203773,3.92044435 C-0.00444252296,2.47989878 1.00521328,0.723732795 2.25530335,-0.000337561938 L2.43352736,0.103462734 C1.18343728,0.828376995 0.173781482,2.58369907 0.177984878,4.02508855 C0.179666237,4.74071985 0.431870018,5.24453105 0.837918104,5.48166831" id="Fill-175" fill="#FAFAFA" mask="url(#mask-16)"></path>
                                    </g>
                                    <path d="M21.7175198,20.4728014 C22.9667691,19.7487311 23.9831504,20.3301815 23.9873669,21.771571 C23.9915572,23.2129604 22.9819014,24.9682825 21.7318113,25.6923529 C20.4825619,26.4164232 19.4661807,25.8349728 19.4619642,24.3935833 C19.4577739,22.9530378 20.4674297,21.1968718 21.7175198,20.4728014" id="Fill-177" fill="#F1F1F1"></path>
                                </g>
                            </g>
                        </g>
                    </g>
                </g>
            </g>
        </g>
    </g>
</svg>