<?xml version="1.0" encoding="UTF-8"?>
<svg width="48px" height="48px" viewBox="0 0 48 48" version="1.1" xmlns="http://www.w3.org/2000/svg" xmlns:xlink="http://www.w3.org/1999/xlink">
    <title>icon_当日收益</title>
    <g id="上位机" stroke="none" stroke-width="1" fill="none" fill-rule="evenodd">
        <g id="1_1.光储一体机上位机_首页" transform="translate(-1524.000000, -657.000000)">
            <g id="main" transform="translate(212.000000, 102.000000)">
                <g id="4" transform="translate(1272.000000, 278.000000)">
                    <g id="编组3备份-2" transform="translate(0.000000, 214.000000)">
                        <g id="icon_当日收益" transform="translate(40.000000, 63.000000)">
                            <g id="icon_储能2备份-3" transform="translate(0.000000, 0.000000)">
                                <rect id="bg" fill-opacity="0.08" fill="#007DFF" x="0" y="0" width="48" height="48" rx="7.68"></rect>
                                <g id="icon_储能" transform="translate(11.520000, 12.480000)">
                                    <rect id="矩形" x="0.96" y="0" width="23.04" height="23.04"></rect>
                                    <g id="储能" transform="translate(0.000000, 1.920000)" fill="#007DFF" fill-rule="nonzero">
                                        <path d="M23.4,3.19999999 L21.84,3.19999999 L21.84,0.799999986 C21.84,0.358172194 21.4907821,3.83693077e-13 21.06,3.83693077e-13 L16.38,3.83693077e-13 C15.9492179,3.83693077e-13 15.6,0.358172194 15.6,0.799999986 L15.6,3.19999999 L9.36000001,3.19999999 L9.36000001,0.799999986 C9.36000001,0.358172194 9.01078212,3.83693077e-13 8.58000002,3.83693077e-13 L3.90000002,3.83693077e-13 C3.46921792,3.83693077e-13 3.12000003,0.358172194 3.12000003,0.799999986 L3.12000003,3.19999999 L1.56000002,3.19999999 C0.698435814,3.19999999 0,3.91634437 0,4.79999996 L0,17.6 C0,18.4836556 0.698435814,19.1999999 1.56000002,19.1999999 L23.4,19.1999999 C24.2615642,19.1999999 24.96,18.4836556 24.96,17.6 L24.96,4.79999996 C24.96,3.91634437 24.2615642,3.19999999 23.4,3.19999999 L23.4,3.19999999 Z M9.36000001,9.99999996 C9.36000001,10.2209139 9.18539107,10.4 8.97000002,10.4 L3.51000003,10.4 C3.29460898,10.4 3.12000003,10.2209139 3.12000003,9.99999996 L3.12000003,9.19999997 C3.12000003,8.97908608 3.29460898,8.79999998 3.51000003,8.79999998 L8.97000002,8.79999998 C9.18539107,8.79999998 9.36000001,8.97908608 9.36000001,9.19999997 L9.36000001,9.99999996 Z M21.84,9.99999996 C21.84,10.2209139 21.665391,10.4 21.45,10.4 L19.5,10.4 L19.5,12.4 C19.5,12.5060866 19.4589108,12.6078281 19.3857716,12.6828427 C19.3126324,12.7578572 19.2134344,12.8 19.11,12.8 L18.33,12.8 C18.1146089,12.8 17.94,12.6209139 17.94,12.4 L17.94,10.4 L15.99,10.4 C15.7746089,10.4 15.6,10.2209139 15.6,9.99999996 L15.6,9.19999997 C15.6,8.97908608 15.7746089,8.79999998 15.99,8.79999998 L17.94,8.79999998 L17.94,6.79999997 C17.94,6.57908608 18.1146089,6.39999998 18.33,6.39999998 L19.11,6.39999998 C19.2134344,6.39999998 19.3126324,6.4421427 19.3857716,6.51715725 C19.4589108,6.5921718 19.5,6.69391337 19.5,6.79999997 L19.5,8.79999998 L21.45,8.79999998 C21.665391,8.79999998 21.84,8.97908608 21.84,9.19999997 L21.84,9.99999996 L21.84,9.99999996 Z" id="形状"></path>
                                    </g>
                                </g>
                            </g>
                            <g id="icon_收益1备份" transform="translate(0.000000, 0.000000)">
                                <rect id="bg" fill="#FF974A" x="0" y="0" width="48" height="48" rx="8"></rect>
                                <g id="icon_收益1" transform="translate(12.480000, 12.480000)">
                                    <path d="M11.52,23.04 C17.8823232,23.04 23.04,17.8823232 23.04,11.52 C23.04,5.1576768 17.8823232,0 11.52,0 C5.1576768,0 0,5.1576768 0,11.52 C0,17.8823232 5.1576768,23.04 11.52,23.04 Z" id="路径" fill="#FFFFFF" fill-rule="nonzero"></path>
                                    <line x1="8.064" y1="10.368" x2="14.976" y2="10.368" id="路径" stroke="#FF974A" stroke-width="1.728" stroke-linecap="round" stroke-linejoin="round"></line>
                                    <line x1="8.064" y1="13.824" x2="14.976" y2="13.824" id="路径" stroke="#FF974A" stroke-width="1.728" stroke-linecap="round" stroke-linejoin="round"></line>
                                    <line x1="11.5247808" y1="10.368" x2="11.5247808" y2="17.28" id="路径" stroke="#FF974A" stroke-width="1.728" stroke-linecap="round" stroke-linejoin="round"></line>
                                    <polyline id="路径" stroke="#FF974A" stroke-width="1.728" stroke-linecap="round" stroke-linejoin="round" points="14.976 6.336 11.52 9.792 8.064 6.336"></polyline>
                                </g>
                            </g>
                        </g>
                    </g>
                </g>
            </g>
        </g>
    </g>
</svg>
