<?xml version="1.0" encoding="UTF-8"?>
<svg width="48px" height="48px" viewBox="0 0 48 48" version="1.1" xmlns="http://www.w3.org/2000/svg" xmlns:xlink="http://www.w3.org/1999/xlink">
    <title>icon_减排</title>
    <g id="上位机" stroke="none" stroke-width="1" fill="none" fill-rule="evenodd">
        <g id="1_3.工商储风液冷上位机_首页" transform="translate(-1524.000000, -657.000000)">
            <g id="main" transform="translate(212.000000, 102.000000)">
                <g id="6" transform="translate(1272.000000, 492.000000)">
                    <g id="icon_减排" transform="translate(40.000000, 63.000000)">
                        <g id="icon_储能2备份" transform="translate(0.000000, 0.000000)">
                            <rect id="bg" fill-opacity="0.08" fill="#007DFF" x="0" y="0" width="48" height="48" rx="7.68"></rect>
                            <g id="icon_储能" transform="translate(11.520000, 12.480000)">
                                <rect id="矩形" x="0.96" y="0" width="23.04" height="23.04"></rect>
                                <g id="储能" transform="translate(0.000000, 1.920000)" fill="#007DFF" fill-rule="nonzero">
                                    <path d="M23.4,3.19999999 L21.84,3.19999999 L21.84,0.799999986 C21.84,0.358172194 21.4907821,3.97903932e-13 21.06,3.97903932e-13 L16.38,3.97903932e-13 C15.9492179,3.97903932e-13 15.6,0.358172194 15.6,0.799999986 L15.6,3.19999999 L9.36000001,3.19999999 L9.36000001,0.799999986 C9.36000001,0.358172194 9.01078212,3.97903932e-13 8.58000002,3.97903932e-13 L3.90000002,3.97903932e-13 C3.46921792,3.97903932e-13 3.12000003,0.358172194 3.12000003,0.799999986 L3.12000003,3.19999999 L1.56000002,3.19999999 C0.698435814,3.19999999 0,3.91634437 0,4.79999996 L0,17.6 C0,18.4836556 0.698435814,19.1999999 1.56000002,19.1999999 L23.4,19.1999999 C24.2615642,19.1999999 24.96,18.4836556 24.96,17.6 L24.96,4.79999996 C24.96,3.91634437 24.2615642,3.19999999 23.4,3.19999999 L23.4,3.19999999 Z M9.36000001,9.99999996 C9.36000001,10.2209139 9.18539107,10.4 8.97000002,10.4 L3.51000003,10.4 C3.29460898,10.4 3.12000003,10.2209139 3.12000003,9.99999996 L3.12000003,9.19999997 C3.12000003,8.97908608 3.29460898,8.79999998 3.51000003,8.79999998 L8.97000002,8.79999998 C9.18539107,8.79999998 9.36000001,8.97908608 9.36000001,9.19999997 L9.36000001,9.99999996 Z M21.84,9.99999996 C21.84,10.2209139 21.665391,10.4 21.45,10.4 L19.5,10.4 L19.5,12.4 C19.5,12.5060866 19.4589108,12.6078281 19.3857716,12.6828427 C19.3126324,12.7578572 19.2134344,12.8 19.11,12.8 L18.33,12.8 C18.1146089,12.8 17.94,12.6209139 17.94,12.4 L17.94,10.4 L15.99,10.4 C15.7746089,10.4 15.6,10.2209139 15.6,9.99999996 L15.6,9.19999997 C15.6,8.97908608 15.7746089,8.79999998 15.99,8.79999998 L17.94,8.79999998 L17.94,6.79999997 C17.94,6.57908608 18.1146089,6.39999998 18.33,6.39999998 L19.11,6.39999998 C19.2134344,6.39999998 19.3126324,6.4421427 19.3857716,6.51715725 C19.4589108,6.5921718 19.5,6.69391337 19.5,6.79999997 L19.5,8.79999998 L21.45,8.79999998 C21.665391,8.79999998 21.84,8.97908608 21.84,9.19999997 L21.84,9.99999996 L21.84,9.99999996 Z" id="形状"></path>
                                </g>
                            </g>
                        </g>
                        <g id="icon_碳减排备份-2" transform="translate(0.000000, 0.000000)">
                            <rect id="bg" fill="#50B5FF" x="0" y="0" width="48" height="48" rx="8"></rect>
                            <g id="icon_碳减排" transform="translate(12.480000, 12.480000)" fill="#FFFFFF" fill-rule="nonzero">
                                <g id="碳减排管理" transform="translate(0.000000, 3.840000)">
                                    <path d="M21.5747064,10.9977887 L21.5747063,10.9977888 C21.1344846,12.6812035 20.0336894,14.1095136 18.5274965,14.951581 L18.5274961,14.9515812 C17.5576444,15.3284667 16.508461,15.447241 15.4802862,15.2965426 L15.4802873,15.2965421 C16.204804,14.9118192 16.8871273,14.4507075 17.5158967,13.9208852 L17.5158965,13.9208853 C18.3333454,13.2040283 19.0684918,12.3963634 19.7074504,11.5131287 L19.7074503,11.5131289 C20.1105175,10.8606766 20.4493405,10.1697681 20.7190448,9.45034268 L20.7190447,9.45034282 C19.866886,11.0855541 18.6507758,12.4979164 17.1667314,13.5759302 L17.1667312,13.5759303 C16.416837,14.0962139 15.627775,14.5561765 14.8068096,14.9515887 C14.8068096,14.9515887 14.7805881,13.6667097 14.8068096,12.8888025 L14.8068094,12.8888559 C14.8101117,11.4917572 15.4276652,10.1686246 16.4918366,9.27860875 L16.4918369,9.27860857 C18.1427369,8.15702869 19.9779564,7.34217451 21.9113918,6.87224723 C22.0935617,6.83174554 22.0797611,6.87224723 22.0797611,6.87224723 L22.0797612,6.87223922 C22.0510662,8.26128143 21.8818145,9.64368948 21.5746548,10.9978266 L21.5747064,10.9977887 Z M15.7245735,6.99370761 L15.6528095,7.05376178 L15.6528088,7.05376233 C13.9299926,8.33328386 12.8536216,10.3175688 12.7118647,12.4753966 L12.711863,12.4754943 C12.6952707,13.4064913 12.6952718,14.3377104 12.7118665,15.2687134 L5.24427881,15.2687134 L5.24427864,15.2687134 C2.43899839,15.2484184 0.13750216,13.0149288 0,10.1793723 L0,10.1793738 C0.079398833,7.83960911 1.69771743,5.84368964 3.9497722,5.30800585 L3.94977217,5.30800616 C4.2375437,2.25923235 6.79466488,-0.0523573881 9.82061563,0.000901937096 L9.8206156,0.000901937398 C12.0339178,-0.0175401917 14.0720178,1.2166293 15.1021643,3.19913192 L15.102165,3.19913204 C16.8391095,3.48434248 18.4525911,4.28713454 19.7364531,5.50493077 L19.7364531,5.50493092 C18.3428938,5.71267229 17.0048374,6.20187045 15.8018607,6.94343829 L15.7245735,6.99370761 Z" id="形状"></path>
                                </g>
                            </g>
                        </g>
                    </g>
                </g>
            </g>
        </g>
    </g>
</svg>