<?xml version="1.0" encoding="UTF-8"?>
<svg width="40px" height="40px" viewBox="0 0 40 40" version="1.1" xmlns="http://www.w3.org/2000/svg" xmlns:xlink="http://www.w3.org/1999/xlink">
    <title>icon_EMS备份 4</title>
    <defs>
        <linearGradient x1="50%" y1="13.3760809%" x2="51.4%" y2="119.575783%" id="linearGradient-1">
            <stop stop-color="#D8D8D8" offset="0%"></stop>
            <stop stop-color="#868686" offset="100%"></stop>
        </linearGradient>
        <linearGradient x1="50%" y1="0%" x2="50%" y2="100%" id="linearGradient-2">
            <stop stop-color="#F8F8F8" offset="0%"></stop>
            <stop stop-color="#D4D4D4" offset="100%"></stop>
        </linearGradient>
        <linearGradient x1="50%" y1="0%" x2="50%" y2="100%" id="linearGradient-3">
            <stop stop-color="#D2D2D2" offset="0%"></stop>
            <stop stop-color="#B3B3B3" offset="100%"></stop>
        </linearGradient>
        <linearGradient x1="50%" y1="13.3760344%" x2="51.4%" y2="119.575871%" id="linearGradient-4">
            <stop stop-color="#D8D8D8" offset="0%"></stop>
            <stop stop-color="#868686" offset="100%"></stop>
        </linearGradient>
        <linearGradient x1="50%" y1="0%" x2="50%" y2="100%" id="linearGradient-5">
            <stop stop-color="#F8F8F8" offset="0%"></stop>
            <stop stop-color="#E9E9E9" offset="40.9302849%"></stop>
            <stop stop-color="#D4D4D4" offset="100%"></stop>
        </linearGradient>
        <path d="M4.36991991,7.07421386 L5.21844805,7.56411181 L1.84130606,9.51390564 L3.52139177,10.4839036 L6.694887,8.65168525 L7.54341514,9.1415832 L4.36991991,10.9738015 L6.20274068,12.0319811 L9.72413245,9.99890461 L10.5726606,10.4888026 L6.0584909,13.0950596 L0,9.59718829 L4.36991991,7.07421386 Z M11.9218203,2.71412212 L17.9803112,6.21199347 L16.9875333,6.78517407 L12.8127749,4.37487616 L12.7788337,4.39447208 L15.1716831,7.83355568 L14.3146697,8.32835261 L8.35800215,6.94684039 L8.32406103,6.96643631 L12.4988195,9.37673422 L11.5060415,9.94991482 L5.44755064,6.45204346 L6.61003419,5.78088327 L13.4237151,7.33385977 L13.4576563,7.31426385 L10.7593368,3.38528231 L11.9218203,2.71412212 Z M17.2420918,0.0147844202 C17.9803112,-0.0489023131 18.7185307,0.093168092 19.4397796,0.440995635 L19.4397796,0.440995635 L18.455487,1.00927726 C17.9972818,0.842711953 17.5645324,0.77902522 17.1826948,0.813318076 C16.7923718,0.842711953 16.3765931,0.994580317 15.9353584,1.24932725 C15.5535208,1.46978133 15.3159329,1.66574051 15.2225948,1.84700275 C15.0953156,2.06745682 15.1886537,2.25851702 15.4771532,2.42508233 C15.7317117,2.57205171 16.0796082,2.61614253 16.5208428,2.53775886 L16.5208428,2.53775886 L16.6549626,2.50982253 L16.8440103,2.46342393 L17.2292331,2.35920927 L17.5529234,2.266655 L18.171904,2.08240797 L18.6197662,1.9509182 L19.0179449,1.83912246 C19.0801574,1.82211317 19.1402921,1.80591108 19.198345,1.79050951 L19.198345,1.79050951 L19.5216508,1.70765276 C19.5713614,1.69542649 19.6189824,1.68398737 19.6645102,1.67332868 L19.6645102,1.67332868 L19.9125261,1.61868845 C19.9868041,1.60356115 20.052678,1.59150213 20.1101169,1.58245786 C20.9501597,1.45998337 21.6459528,1.55796296 22.2059814,1.8812956 C22.7490394,2.19483029 22.9696567,2.56715273 22.859348,2.99336395 C22.7405541,3.41467618 22.2993195,3.85558434 21.5271588,4.30139147 C20.7804541,4.73250166 20.0507199,4.9872486 19.3464415,5.06073329 C18.4809428,5.14891492 17.6409,4.9872486 16.826313,4.56593636 L16.826313,4.56593636 L17.8106056,3.99765474 C18.336693,4.2230078 18.8288394,4.32098739 19.2870446,4.28179555 C19.6943381,4.24260372 20.1525433,4.08583637 20.6531749,3.79679658 C21.0944095,3.54204965 21.3744238,3.2922017 21.4847324,3.06194966 C21.5865558,2.82679864 21.5271588,2.63573845 21.2726004,2.48876906 C20.9501597,2.30260784 20.5004398,2.26831498 19.9404112,2.37609253 L19.9404112,2.37609253 L19.8334666,2.39995638 L19.6771165,2.4400357 L19.3499561,2.53102694 L18.9116336,2.6597071 L18.3621489,2.82679864 L17.9325936,2.95374844 L17.3813013,3.11132745 L16.9422141,3.22917054 L16.7121344,3.2854787 L16.532387,3.32385887 L16.4614459,3.33629251 C15.7147411,3.44407006 15.078345,3.34119149 14.5437723,3.03255578 C14.0091995,2.72392008 13.8055528,2.35159763 13.9582879,1.91068948 C14.0855671,1.49427622 14.47589,1.10235787 15.1292567,0.725136446 C15.8420203,0.313622169 16.5462987,0.0735721741 17.2420918,0.0147844202 Z" id="path-6"></path>
        <filter x="-2.2%" y="-3.8%" width="104.4%" height="107.6%" filterUnits="objectBoundingBox" id="filter-7">
            <feGaussianBlur stdDeviation="0.25" in="SourceAlpha" result="shadowBlurInner1"></feGaussianBlur>
            <feOffset dx="0" dy="0.5" in="shadowBlurInner1" result="shadowOffsetInner1"></feOffset>
            <feComposite in="shadowOffsetInner1" in2="SourceAlpha" operator="arithmetic" k2="-1" k3="1" result="shadowInnerInner1"></feComposite>
            <feColorMatrix values="0 0 0 0 0   0 0 0 0 0   0 0 0 0 0  0 0 0 0.313756556 0" type="matrix" in="shadowInnerInner1"></feColorMatrix>
        </filter>
    </defs>
    <g id="上位机" stroke="none" stroke-width="1" fill="none" fill-rule="evenodd">
        <g id="1_1.光储一体机上位机_首页" transform="translate(-525.000000, -576.000000)" fill-rule="nonzero">
            <g id="main" transform="translate(212.000000, 102.000000)">
                <g id="2" transform="translate(24.000000, 278.000000)">
                    <g id="能流图1" transform="translate(92.000000, 50.000000)">
                        <g id="icon_EMS备份-4" transform="translate(197.000000, 146.000000)">
                            <rect id="BG" x="0" y="0" width="40" height="40"></rect>
                            <g id="服务器" transform="translate(20.000000, 20.000000) scale(-1, 1) translate(-20.000000, -20.000000) ">
                                <rect id="矩形" fill="#000000" opacity="0" x="0" y="2.94374254e-05" width="40" height="39.9999706"></rect>
                                <path d="M17.8844531,17.4647041 C17.3371875,17.1484934 16.5077734,17.1141184 16.0336719,17.387751 L0.571015625,26.3153616 C0.0969140625,26.5889942 0.156445313,27.067822 0.703710938,27.3837983 L22.0755078,39.7228518 C22.6230078,40.0388672 23.4524609,40.0732421 23.9265625,39.7995705 L39.3891406,30.8722723 C39.8632422,30.5986397 39.8037109,30.119812 39.2562109,29.8035622 L17.8844531,17.4647041 Z" id="路径" fill="#4762AF"></path>
                                <path d="M17.0731641,33.1190676 C17.3333984,33.269419 17.5449219,33.6355516 17.5449219,33.9362545 C17.5449219,34.2369574 17.3333984,34.3590667 17.0731641,34.2087152 C16.8126953,34.0583247 16.6014063,33.6922312 16.6014063,33.3915283 C16.6014063,33.0908254 16.8127344,32.9687161 17.0731641,33.1190676 Z M18.9632813,34.2103558 C19.2235156,34.3607463 19.4350781,34.7268398 19.4350781,35.0275427 C19.4350781,35.3282456 19.2235156,35.4501205 18.9632813,35.2997691 C18.7028125,35.149652 18.4915234,34.7832851 18.4915234,34.4828166 C18.4915234,34.1821137 18.7028516,34.0600044 18.9632813,34.2103558 Z M20.8531641,35.3016441 C21.1136328,35.4520346 21.3249219,35.8181281 21.3249219,36.118831 C21.3249219,36.4192995 21.1136328,36.5414088 20.8531641,36.3910964 C20.5929297,36.2407059 20.3814062,35.8745733 20.3814062,35.5739095 C20.3814062,35.2734019 20.5929297,35.1512926 20.8531641,35.3016441 Z" id="形状" fill="#448FFF"></path>
                                <path d="M0.254804688,20.45978 C0.254804688,20.45978 0.206835938,26.8668065 0.261445313,26.8581347 C0.315742188,26.8496581 2.90304688,28.1915321 2.90304688,28.1915321 L5.541875,25.5357919 L5.70492188,23.6291527 L0.254804688,20.45978 Z M39.7091797,24.0541133 L39.7091797,30.4061399 L35.7089453,32.7327007 L33.6472656,27.8332121 L39.7091797,24.0541133 L39.7091797,24.0541133 Z" id="形状" fill="#4762AF"></path>
                                <path d="M17.8844531,11.1103728 C17.3371875,10.7943574 16.5077734,10.7600215 16.0336719,11.0336541 L0.571015625,19.9609913 C0.0969140625,20.2348192 0.156445313,20.713647 0.703710938,21.0296624 L22.0755078,33.3687158 C22.6230078,33.6847312 23.4524609,33.7190671 23.9265625,33.4454345 L39.3891406,24.5180973 C39.8632422,24.2442694 39.8037109,23.7654416 39.2562109,23.4494262 L17.8844141,11.1103728 L17.8844531,11.1103728 Z" id="路径" fill="#6D8ACA"></path>
                                <path d="M19.9722656,30.2950853 C19.9722656,30.2950853 22.4023437,32.0327012 23.8649219,31.224694 C25.3275391,30.4164914 38.2263672,22.8548173 38.2263672,22.8548173 L38.2145703,20.6470846 L19.9722656,27.6595403 L19.9722656,30.2950853 Z" id="路径" fill="#5D7BC1"></path>
                                <polygon id="路径" fill="#5D7BC1" points="4.401875 18.6698985 4.401875 21.3054434 19.98 30.2995384 19.98 27.6639935"></polygon>
                                <path d="M13.0858984,31.3618814 C13.0858984,31.0611785 12.9028125,30.7112959 12.6774219,30.5811788 L2.31695312,24.599777 C2.0915625,24.4694255 1.90847656,24.6077848 1.90847656,24.9084877 C1.90847656,25.2091906 2.09152344,25.5590731 2.31695312,25.6891902 L12.6774219,31.6705921 C12.9028125,31.8009435 13.0858984,31.6625843 13.0858984,31.3618814 Z" id="路径" fill="#6D8ACA"></path>
                                <path d="M16.0336719,17.387751 C16.5077734,17.1141184 17.3371875,17.1484934 17.8844531,17.4647041 L17.8844531,17.4647041 L34.7023246,27.1740691 L39.7091797,24.0541133 L39.7091797,30.4061399 C39.7098135,30.5812368 39.6045657,30.7479375 39.3891406,30.8722723 L39.3891406,30.8722723 L23.9265625,39.7995705 C23.4524609,40.0732421 22.6230078,40.0388672 22.0755078,39.7228518 L22.0755078,39.7228518 L0.703710937,27.3837983 C0.402359476,27.2098062 0.248896251,26.9864351 0.250984694,26.7751359 C0.242739421,26.6056535 0.238062571,26.1656542 0.236247153,25.5934486 L0.235905271,24.3434725 C0.238817807,22.7310305 0.251796306,20.8751932 0.25436288,20.5201501 L0.254804688,20.45978 L5.46432456,23.4890691 Z" id="形状结合" fill="url(#linearGradient-1)"></path>
                                <path d="M17.0731641,33.1190676 C17.3333984,33.269419 17.5449219,33.6355516 17.5449219,33.9362545 C17.5449219,34.2369574 17.3333984,34.3590667 17.0731641,34.2087152 C16.8126953,34.0583247 16.6014063,33.6922312 16.6014063,33.3915283 C16.6014063,33.0908254 16.8127344,32.9687161 17.0731641,33.1190676 Z M18.9632813,34.2103558 C19.2235156,34.3607463 19.4350781,34.7268398 19.4350781,35.0275427 C19.4350781,35.3282456 19.2235156,35.4501205 18.9632813,35.2997691 C18.7028125,35.149652 18.4915234,34.7832851 18.4915234,34.4828166 C18.4915234,34.1821137 18.7028516,34.0600044 18.9632813,34.2103558 Z M20.8531641,35.3016441 C21.1136328,35.4520346 21.3249219,35.8181281 21.3249219,36.118831 C21.3249219,36.4192995 21.1136328,36.5414088 20.8531641,36.3910964 C20.5929297,36.2407059 20.3814062,35.8745733 20.3814062,35.5739095 C20.3814062,35.2734019 20.5929297,35.1512926 20.8531641,35.3016441 Z" id="形状" fill="#22AC50"></path>
                                <path d="M17.8844531,11.1103728 C17.3371875,10.7943574 16.5077734,10.7600215 16.0336719,11.0336541 L0.571015625,19.9609913 C0.0969140625,20.2348192 0.156445313,20.713647 0.703710938,21.0296624 L22.0755078,33.3687158 C22.6230078,33.6847312 23.4524609,33.7190671 23.9265625,33.4454345 L39.3891406,24.5180973 C39.8632422,24.2442694 39.8037109,23.7654416 39.2562109,23.4494262 L17.8844141,11.1103728 L17.8844531,11.1103728 Z" id="路径" fill="url(#linearGradient-2)"></path>
                                <path d="M4.401875,18.6698985 L19.9722656,27.6595403 L38.2145703,20.6470846 L38.2263672,22.8548173 C38.2263672,22.8548173 35.1001187,24.6875165 31.7512559,26.6448451 L31.1214443,27.0128877 C27.8612641,28.917678 24.5624778,30.8392435 23.8649219,31.224694 C22.4023438,32.0327012 19.9722656,30.2950853 19.9722656,30.2950853 L19.9722656,30.2950853 L19.971875,30.2938985 L4.401875,21.3054434 L4.401875,18.6698985 Z" id="形状结合" fill="url(#linearGradient-3)"></path>
                                <path d="M13.0858984,31.3618814 C13.0858984,31.0611785 12.9028125,30.7112959 12.6774219,30.5811788 L2.31695312,24.599777 C2.0915625,24.4694255 1.90847656,24.6077848 1.90847656,24.9084877 C1.90847656,25.2091906 2.09152344,25.5590731 2.31695312,25.6891902 L12.6774219,31.6705921 C12.9028125,31.8009435 13.0858984,31.6625843 13.0858984,31.3618814 Z" id="路径" fill="#DDDDDD"></path>
                                <path d="M16.0336719,6.53885275 C16.5077734,6.26522014 17.3371875,6.29955605 17.8844531,6.61580582 L17.8844531,6.61580582 L34.7023246,16.3251577 L39.7091797,13.205215 L39.7091797,19.5571635 C39.7098135,19.7322604 39.6045657,19.8989611 39.3891406,20.023296 L39.3891406,20.023296 L23.9265625,28.9505941 C23.4524609,29.2244611 22.6230078,29.1898908 22.0755078,28.8738754 L22.0755078,28.8738754 L0.703710937,16.534822 C0.402714844,16.361035 0.249258398,16.1379854 0.250977954,15.9269071 C0.242739421,15.7567162 0.238062571,15.3167169 0.236247153,14.7445112 L0.235905271,13.4945352 C0.238817807,11.8820932 0.251796306,10.0262559 0.25436288,9.67121281 L0.254804688,9.61084268 L5.46432456,12.6401577 Z" id="形状结合" fill="url(#linearGradient-4)"></path>
                                <path d="M17.0731641,22.2701302 C17.3333984,22.4204817 17.5449219,22.7866142 17.5449219,23.0873171 C17.5449219,23.38802 17.3333984,23.5101293 17.0731641,23.3597779 C16.8126953,23.2093874 16.6014063,22.8432939 16.6014063,22.542591 C16.6014063,22.2418881 16.8127344,22.1197788 17.0731641,22.2701302 Z M18.9632813,23.3614185 C19.2235156,23.511809 19.4350781,23.8779025 19.4350781,24.1786054 C19.4350781,24.4793083 19.2235156,24.6011832 18.9632813,24.4508708 C18.7028125,24.3007147 18.4915234,23.9343478 18.4915234,23.6338792 C18.4915234,23.3331763 18.7028516,23.211067 18.9632813,23.3614185 Z M20.8531641,24.4527068 C21.1136328,24.6030973 21.3249219,24.9691907 21.3249219,25.2698937 C21.3249219,25.5703622 21.1136328,25.6924715 20.8531641,25.5421591 C20.5929297,25.3917686 20.3814062,25.0256751 20.3814062,24.7249722 C20.3814062,24.4244646 20.5929297,24.3023553 20.8531641,24.4527068 Z" id="形状" fill="#22AC50"></path>
                                <path d="M17.8844531,0.261435495 C17.3371875,-0.0545798974 16.5077734,-0.0889158096 16.0336719,0.184716802 L0.571015625,9.11205398 C0.0969140625,9.38588191 0.156445313,9.86470968 0.703710938,10.1807251 L22.0755078,22.5197785 C22.6230078,22.8357939 23.4524609,22.8701298 23.9265625,22.5964972 L39.3891406,13.66916 C39.8632422,13.3953321 39.8037109,12.9165043 39.2562109,12.6004889 L17.8844531,0.261435495 Z M13.0859375,20.5129831 C13.0859375,20.2122411 12.9028516,19.8623586 12.6774609,19.7322415 L2.31695313,13.7508396 C2.0915625,13.6204882 1.90847656,13.7590427 1.90847656,14.0595503 C1.90847656,14.3602532 2.09152344,14.7101358 2.31695313,14.8402529 L12.6774219,20.8218891 C12.9028125,20.9520062 13.0859375,20.813686 13.0859375,20.512944 L13.0859375,20.5129831 Z" id="形状" fill="url(#linearGradient-5)"></path>
                            </g>
                            <g id="形状结合" transform="translate(8.671518, 5.000000)">
                                <use fill="#8794A2" xlink:href="#path-6"></use>
                                <use fill="black" fill-opacity="1" filter="url(#filter-7)" xlink:href="#path-6"></use>
                            </g>
                        </g>
                    </g>
                </g>
            </g>
        </g>
    </g>
</svg>