<?xml version="1.0" encoding="UTF-8"?>
<svg width="40px" height="40px" viewBox="0 0 40 40" version="1.1" xmlns="http://www.w3.org/2000/svg" xmlns:xlink="http://www.w3.org/1999/xlink">
    <title>icon_变流器备份 3</title>
    <defs>
        <linearGradient x1="103.048256%" y1="32.3235272%" x2="-3.24240662e-13%" y2="32.3235272%" id="linearGradient-1">
            <stop stop-color="#C6C6C6" offset="0%"></stop>
            <stop stop-color="#7B7B7B" offset="78.6603184%"></stop>
            <stop stop-color="#A2A1A1" offset="100%"></stop>
        </linearGradient>
        <linearGradient x1="47.6507839%" y1="3.5%" x2="47.3033646%" y2="111.5%" id="linearGradient-2">
            <stop stop-color="#EEEEEE" offset="0%"></stop>
            <stop stop-color="#BFBFBF" offset="100%"></stop>
        </linearGradient>
        <linearGradient x1="50%" y1="0%" x2="50%" y2="100%" id="linearGradient-3">
            <stop stop-color="#F8F8F8" offset="0%"></stop>
            <stop stop-color="#D4D4D4" offset="100%"></stop>
        </linearGradient>
        <linearGradient x1="50%" y1="0%" x2="57.0098383%" y2="126%" id="linearGradient-4">
            <stop stop-color="#F8F8F8" offset="0%"></stop>
            <stop stop-color="#DBDBDB" offset="100%"></stop>
        </linearGradient>
        <linearGradient x1="-22.4%" y1="50%" x2="119.3%" y2="50%" id="linearGradient-5">
            <stop stop-color="#1B1B1B" offset="0%"></stop>
            <stop stop-color="#505050" offset="51.1%"></stop>
            <stop stop-color="#383838" offset="100%"></stop>
        </linearGradient>
        <linearGradient x1="-22.4%" y1="50%" x2="119.3%" y2="50%" id="linearGradient-6">
            <stop stop-color="#1B1B1B" offset="0%"></stop>
            <stop stop-color="#505050" offset="51.1%"></stop>
            <stop stop-color="#383838" offset="100%"></stop>
        </linearGradient>
        <linearGradient x1="50%" y1="48.6883051%" x2="52.3190437%" y2="51.3299831%" id="linearGradient-7">
            <stop stop-color="#8E8E90" offset="0%"></stop>
            <stop stop-color="#1B1B1E" offset="100%"></stop>
        </linearGradient>
        <linearGradient x1="50%" y1="48.6904097%" x2="52.3190437%" y2="51.3278492%" id="linearGradient-8">
            <stop stop-color="#8E8E90" offset="0%"></stop>
            <stop stop-color="#1B1B1E" offset="100%"></stop>
        </linearGradient>
        <linearGradient x1="50%" y1="48.689828%" x2="52.3190437%" y2="51.3284389%" id="linearGradient-9">
            <stop stop-color="#8E8E90" offset="0%"></stop>
            <stop stop-color="#1B1B1E" offset="100%"></stop>
        </linearGradient>
        <linearGradient x1="50%" y1="48.6886162%" x2="52.3190437%" y2="51.3296677%" id="linearGradient-10">
            <stop stop-color="#8E8E90" offset="0%"></stop>
            <stop stop-color="#1B1B1E" offset="100%"></stop>
        </linearGradient>
        <linearGradient x1="50%" y1="0%" x2="50%" y2="96.2631119%" id="linearGradient-11">
            <stop stop-color="#5F5F67" offset="0%"></stop>
            <stop stop-color="#1B1B1E" offset="100%"></stop>
        </linearGradient>
    </defs>
    <g id="上位机" stroke="none" stroke-width="1" fill="none" fill-rule="evenodd">
        <g id="1_1.光储一体机上位机_首页" transform="translate(-352.000000, -524.000000)">
            <g id="main" transform="translate(212.000000, 102.000000)">
                <g id="2" transform="translate(24.000000, 278.000000)">
                    <g id="能流图1" transform="translate(92.000000, 50.000000)">
                        <g id="编组-14备份" transform="translate(0.000000, 94.000000)">
                            <g id="icon_变流器备份-3" transform="translate(24.000000, 0.000000)">
                                <rect id="矩形" x="0" y="0" width="40" height="40" rx="4"></rect>
                                <g id="icon" transform="translate(6.810307, 0.000000)">
                                    <g id="路径_11692" opacity="0.2" transform="translate(14.554840, 17.638854)">
                                        <path d="M3.49878739,1.76734019 C3.49878739,1.76734019 3.48262784,1.6677596 3.4515656,1.5161459 C3.42050335,1.3645322 3.37453842,1.16196195 3.31456853,0.955264926 C3.25974952,0.754422083 3.18598273,0.559230512 3.09426002,0.372314739 C3.00753711,0.20634708 2.90806611,0.0852355455 2.79710388,0.0572453242 C2.67515644,0.040200981 2.55443025,0.0956175764 2.48791785,0.1991701 C2.37996063,0.33564596 2.28864512,0.484479114 2.21589878,0.64252803 C2.12935542,0.815672668 2.04622352,1.00137702 1.96345072,1.16285907 C1.9017802,1.30020092 1.8167283,1.42580725 1.71207996,1.53408835 C1.63779813,1.60032577 1.54801213,1.64679166 1.45101348,1.669195 C1.36583969,1.68727891 1.27781404,1.68727891 1.19264025,1.669195 C1.11057884,1.65161889 1.03094068,1.6242079 0.955453988,1.58755685 C0.881838267,1.55292792 0.815045466,1.51399281 0.757948394,1.47990215 C0.674763531,1.41518485 0.603753823,1.33620556 0.548233363,1.24665031 C0.469231126,1.1337923 0.385560574,0.997429683 0.308892493,0.863579009 C0.232224413,0.729728335 0.162379252,0.601260396 0.111386899,0.504730017 C0.0603945457,0.408199638 0.0300505044,0.347015885 0.0300505044,0.347015885" id="路径"></path>
                                        <path d="M1.28880299,1.73237656 C1.23341425,1.72930116 1.17928604,1.71951489 1.12733702,1.70542771 C1.07534802,1.69132992 1.02554421,1.6729254 0.978848445,1.65263128 C0.932119801,1.63232262 0.888507765,1.61012333 0.848939132,1.58845723 C0.809346698,1.56677813 0.773806915,1.54563529 0.743248721,1.52745698 C0.684447912,1.49248945 0.610058717,1.40602834 0.531165758,1.29525796 C0.452170403,1.18434419 0.368643758,1.04903635 0.291756084,0.916673362 C0.214768497,0.784138235 0.144452693,0.654582091 0.0920624311,0.555522137 C0.0396252302,0.45637346 0.00517744124,0.387835661 -9.96705719e-18,0.37749901 L0.0601053507,0.316557366 C0.0613428925,0.319030156 0.0930532051,0.382164093 0.143309928,0.477462481 C0.193523544,0.572679077 0.262220427,0.699945735 0.337499605,0.830833049 C0.412683191,0.961554212 0.494417458,1.09586087 0.57088773,1.2055067 C0.647261641,1.31501461 0.718401823,1.39994803 0.772580461,1.43221387 C0.803809289,1.45081773 0.839113455,1.47184866 0.877715736,1.49310888 C0.916295242,1.51435627 0.958165157,1.53583072 1.00255022,1.55533823 C1.04690558,1.57483257 1.09376993,1.59236151 1.1423704,1.60573686 C1.19093629,1.6191028 1.24123428,1.62832064 1.2924952,1.63120816 C1.32548669,1.63306661 1.35887511,1.63230482 1.3924583,1.628341 C1.42602523,1.62437906 1.45978667,1.61721817 1.49354024,1.60627689 C1.52727771,1.59534092 1.56100816,1.58062866 1.59452988,1.56155886 C1.62803671,1.54249829 1.66133548,1.51908359 1.69422569,1.49073572 C1.72566488,1.46363937 1.75690664,1.42718555 1.78811021,1.3834841 C1.81930179,1.33979975 1.85045605,1.28887221 1.88173154,1.23280933 C1.91299555,1.17676732 1.94438097,1.11559262 1.97604687,1.05139189 C2.00770095,0.987214333 2.03963466,0.920012538 2.07200587,0.851891013 C2.09795122,0.797290885 2.12410959,0.742242187 2.15058149,0.687823011 C2.177045,0.633420433 2.20382134,0.579647207 2.23101053,0.527581128 C2.25819116,0.475531433 2.28578378,0.425188543 2.31388752,0.37762897 C2.34198185,0.330085395 2.37058696,0.28532441 2.39980115,0.244421712 C2.43050815,0.201428918 2.46093244,0.164173078 2.49115741,0.132602538 C2.52137023,0.101044403 2.55138356,0.0751674824 2.58127994,0.0549200571 C2.611164,0.0346808025 2.64093127,0.0200667868 2.67066309,0.0110261417 C2.70038276,0.00198932518 2.73006732,-0.00147856976 2.75979898,0.000570417271 C2.76345394,0.000822294921 2.76710856,0.00115735465 2.7707637,0.00157557507 C2.77441832,0.00199379549 2.77807431,0.00249513383 2.78172995,0.00307959007 C2.78538646,0.00366402493 2.78904347,0.00433155631 2.79270203,0.00508220561 C2.79636111,0.00583279074 2.80002103,0.00666651517 2.80368353,0.00758325057 C2.91905484,0.0364730352 3.02169997,0.156428311 3.11090195,0.320963258 C3.1999666,0.485243439 3.27565319,0.694007702 3.33725861,0.901055665 C3.39879076,1.10785286 3.44630134,1.31302338 3.47908932,1.47057918 C3.51185402,1.6280217 3.52993586,1.73800771 3.53261565,1.75459912 L3.46472701,1.78019807 C3.46456673,1.77920938 3.46040167,1.75369513 3.45241366,1.70967387 C3.4444236,1.66564439 3.43260785,1.60309334 3.41714862,1.52803363 C3.40168425,1.45294826 3.38256988,1.36533539 3.35998702,1.27121066 C3.33739389,1.17704153 3.31132542,1.076343 3.28196208,0.975140804 C3.24394533,0.84411352 3.20482174,0.727079648 3.16487725,0.62456151 C3.12490331,0.521967653 3.08410745,0.433913058 3.042777,0.360922184 C3.00141711,0.28787912 2.95952365,0.22992339 2.91738361,0.187580011 C2.87521515,0.145207778 2.83280183,0.118470931 2.79043337,0.107894252 C2.78751557,0.107166082 2.7846029,0.106506037 2.78169571,0.105913325 C2.77878835,0.105320591 2.77588664,0.104795168 2.77299058,0.104336287 C2.77009418,0.10387747 2.76720342,0.103485088 2.76431849,0.103158498 C2.76143339,0.102831909 2.7585536,0.102571048 2.75567997,0.102375167 C2.69705639,0.0983790045 2.6407114,0.12139163 2.58616676,0.164483049 C2.53158289,0.207606081 2.47880828,0.270832419 2.42736243,0.347212262 C2.37588405,0.423640659 2.32573957,0.513233342 2.27644423,0.609028085 C2.2271203,0.704877797 2.17864859,0.806932478 2.13054024,0.908221772 C2.0970264,0.97878302 2.06396478,1.04839237 2.031047,1.11499595 C1.9981162,1.18162452 1.96532941,1.24524545 1.93237636,1.30380366 C1.89941046,1.36238438 1.86627761,1.41589965 1.83266736,1.46229322 C1.79904307,1.50870613 1.76493951,1.5479922 1.73004467,1.57809346 C1.6938608,1.60930849 1.65720261,1.63505408 1.62032147,1.65599073 C1.58342184,1.67693764 1.54629756,1.69307099 1.50920119,1.70505143 C1.47208563,1.71703838 1.43499765,1.72486814 1.3981898,1.72920243 C1.36136243,1.73353893 1.32481555,1.73437601 1.28880299,1.73237656 Z" id="路径" fill="#666666" fill-rule="nonzero"></path>
                                    </g>
                                    <polygon id="路径_11647" fill="url(#linearGradient-1)" fill-rule="nonzero" points="0.191939527 31.0797318 0.191939527 33.1117142 5.23838701 40 26.5230262 33.7459798 26.5230262 32.4541234 5.43248114 38.3598807"></polygon>
                                    <polygon id="路径_11646" fill="url(#linearGradient-2)" fill-rule="nonzero" points="-4.59371324e-18 31.5230897 5.47629147 38.5463027 5.45438631 4.58878148 1.08842639e-14 2.22289008"></polygon>
                                    <g id="编组" transform="translate(1.200000, 8.000000)">
                                        <path d="M2.96787317,12.510693 L2.99702499,1.54295526 L2.96787317,12.510693 Z" id="Fill-1" fill="#DEDEDE"></path>
                                        <path d="M0.495363446,0 L2.99676393,1.54272293 L0.495363446,0 Z" id="Fill-2" fill="#716969"></path>
                                        <polygon id="Fill-3备份" fill="#C4C0C0" points="0.435101841 11.0611375 2.93693743 12.6033958 2.96608925 1.63519337 0.464253664 0.092935116"></polygon>
                                        <polygon id="Fill-3" fill="#CCCCCC" points="-6.65187751e-14 20.8577417 2.50183559 23.2 2.53098741 1.8317976 0.0291518233 0.289539354"></polygon>
                                        <polygon id="路径-2" fill="#F6F6F6" points="0.0291518233 0.289539354 0.495363446 0.092935116 2.96608925 1.63519337 2.53098741 1.8317976"></polygon>
                                        <polygon id="路径-3" fill="#EAEAEA" points="2.53098741 1.8317976 2.96608925 1.63519337 2.93693743 23.0033958 2.53098741 23.2"></polygon>
                                    </g>
                                    <path d="" id="矩形" stroke="#979797" stroke-width="0.5" fill="#979797"></path>
                                    <path d="" id="矩形备份" stroke="#979797" stroke-width="0.5" fill="#979797"></path>
                                    <path d="" id="矩形备份-3" stroke="#979797" stroke-width="0.5" fill="#979797"></path>
                                    <path d="" id="矩形备份-4" stroke="#979797" stroke-width="0.5" fill="#B1B1B1" transform="translate(2.750770, 31.611867) rotate(-1.000000) translate(-2.750770, -31.611867) "></path>
                                    <polygon id="路径_11648" fill="url(#linearGradient-3)" fill-rule="nonzero" points="0.00197505594 2.22289008 16.7585292 0 26.4294804 1.56278736 5.44325417 4.6614484"></polygon>
                                    <polygon id="路径_11655" fill="url(#linearGradient-4)" fill-rule="nonzero" points="5.45456586 4.65660394 5.47162316 38.5091619 26.4632359 32.470451 26.4632359 1.56278736"></polygon>
                                    <polygon id="路径_11682" fill="url(#linearGradient-5)" fill-rule="nonzero" points="5.48814181 10.9387938 6.97715444 10.7414269 6.97715444 12.269047 5.48814181 12.4665934"></polygon>
                                    <polygon id="路径_11685" fill="url(#linearGradient-6)" fill-rule="nonzero" points="25.1110408 5.85103281 26.4294804 5.65366587 26.4294804 7.18128603 25.1110408 7.3788324"></polygon>
                                    <polygon id="路径_11683" fill="url(#linearGradient-5)" fill-rule="nonzero" points="5.48814181 20.9329177 6.97715444 20.7355507 6.97715444 22.2631709 5.48814181 22.4607172"></polygon>
                                    <polygon id="路径_11686" fill="url(#linearGradient-6)" fill-rule="nonzero" points="25.1110408 15.8451567 26.4294804 15.6477897 26.4294804 17.1754099 25.1110408 17.3729562"></polygon>
                                    <polygon id="路径_11684" fill="url(#linearGradient-5)" fill-rule="nonzero" points="5.48814181 30.9268621 6.97715444 30.7294951 6.97715444 32.2571153 5.48814181 32.4546617"></polygon>
                                    <polygon id="路径_11687" fill="url(#linearGradient-6)" fill-rule="nonzero" points="25.1110408 25.8392805 26.4294804 25.6419136 26.4294804 27.1695337 25.1110408 27.3670801"></polygon>
                                    <g id="编组-6" transform="translate(8.808390, 13.560804)">
                                        <g id="编组-4" transform="translate(0.000001, 0.000100)">
                                            <g id="编组-5">
                                                <polygon id="路径" points="0 1.58970103 8.13848733 0 8.13848733 9.52995268 0 11.1196537"></polygon>
                                                <g id="PCS" transform="translate(0.893303, 2.361153)" fill="#707070" fill-rule="nonzero">
                                                    <path d="M0,0.535543239 L0,1.67794324 L0.183276642,1.644663 L0.183276642,1.199863 L0.494342501,1.14337819 C0.781868241,1.0911679 0.92647183,0.948110101 0.92647183,0.714510101 C0.92647183,0.482510101 0.783549679,0.393262582 0.497705375,0.445167542 L0,0.535543239 Z M0.183276642,0.651062999 L0.482572442,0.596715452 C0.571688607,0.580533317 0.637264653,0.584625709 0.67930058,0.608992626 C0.721336507,0.630159544 0.743195189,0.677390341 0.743195189,0.747790341 C0.743195189,0.818190341 0.721336507,0.873359544 0.680982017,0.912687303 C0.63894609,0.952320385 0.573370044,0.980227994 0.482572442,0.996715452 L0.183276642,1.051063 L0.183276642,0.651062999 Z M1.61754247,0.219422226 C1.42585864,0.254229082 1.28125505,0.339686885 1.18036883,0.479606283 C1.08957123,0.603293741 1.04585386,0.748832147 1.04585386,0.918432147 C1.04585386,1.09123215 1.08788979,1.22119906 1.17532452,1.30772225 C1.27452931,1.40810818 1.42249577,1.44203973 1.61922391,1.4063169 C1.74869456,1.38280701 1.85966941,1.32745567 1.95214845,1.24026289 C2.05135324,1.14704881 2.11356641,1.03175185 2.1404694,0.89406668 L1.96223707,0.926430949 C1.93869695,1.02030548 1.89666102,1.09513856 1.83612929,1.1509302 C1.77896043,1.20291119 1.7049772,1.23714541 1.61754247,1.25302223 C1.4830275,1.27744809 1.38382272,1.25546216 1.31992811,1.18706445 C1.25939637,1.12285609 1.2291305,1.02275191 1.2291305,0.885151907 C1.2291305,0.752351907 1.25939637,0.641256088 1.32160954,0.553159126 C1.38718559,0.456451517 1.48470894,0.397142766 1.6141796,0.373632872 C1.70161432,0.357756061 1.77223468,0.362532482 1.82940354,0.38895149 C1.8865724,0.415370498 1.92524545,0.465948062 1.9454227,0.539084182 L2.12365503,0.506719913 C2.10515922,0.394878469 2.05135324,0.311848815 1.96391851,0.260525626 C1.87312091,0.206613084 1.75710175,0.194080392 1.61754247,0.219422226 Z M2.74578675,0.0145502923 C2.61799753,0.037754863 2.512067,0.0841902308 2.42799514,0.153856396 C2.33887898,0.227638531 2.29516161,0.313976936 2.29516161,0.414776936 C2.29516161,0.513976936 2.34056041,0.582533207 2.43303945,0.618540426 C2.47003107,0.631023313 2.56082867,0.644935855 2.70879513,0.662867405 C2.84162866,0.677146864 2.92065621,0.688396669 2.9475592,0.696311496 C3.02322387,0.719371948 3.06189692,0.761949512 3.06189692,0.825949512 C3.06189692,0.877149512 3.03499393,0.922034685 2.98118794,0.960605031 C2.92738195,0.999175376 2.85508016,1.02830428 2.76428256,1.04479174 C2.66339633,1.06311113 2.5894131,1.05894536 2.54065143,1.03259973 C2.48684544,1.00397008 2.4532167,0.944476546 2.4397652,0.857319133 L2.25817,0.890294049 C2.26825862,1.03246211 2.32206461,1.12829176 2.42126939,1.17747769 C2.50365981,1.21691685 2.61799753,1.22495486 2.76428256,1.19839174 C2.91561189,1.17091264 3.03331249,1.12074001 3.11738434,1.04787384 C3.2014562,0.973407678 3.24349212,0.885774596 3.24349212,0.783374596 C3.24349212,0.677774596 3.19136757,0.605639618 3.08879991,0.565064339 C3.04171967,0.546413392 2.93578914,0.52884876 2.77437118,0.510159796 C2.6617149,0.498616457 2.59277598,0.487134712 2.56587298,0.477619885 C2.50534125,0.458211524 2.47675682,0.42340202 2.47675682,0.37220202 C2.47675682,0.31460202 2.50197837,0.268422171 2.55410292,0.233357148 C2.59613885,0.203324066 2.65667058,0.181132427 2.73569813,0.166782232 C2.82649573,0.150294774 2.89375321,0.154081842 2.94083345,0.17913279 C2.98791369,0.202583737 3.01817956,0.251487918 3.03499393,0.322034685 L3.21658913,0.289059769 C3.20481907,0.166397032 3.15773883,0.0837460842 3.07366698,0.0398122491 C2.99463944,-0.00343755586 2.88534603,-0.0107915415 2.74578675,0.0145502923 Z" id="形状结合"></path>
                                                </g>
                                            </g>
                                            <polygon id="路径_11689" fill="#D2D2D2" fill-rule="nonzero" points="0.663798347 9.59562204 7.15051048 8.34655841 7.15051048 8.66772826 0.663798347 9.91697131"></polygon>
                                            <polygon id="路径_11690" fill="#D2D2D2" fill-rule="nonzero" points="0.663798347 8.66763855 2.41926398 8.3464687 2.41926398 8.66763855 0.663798347 8.98898782"></polygon>
                                            <polygon id="路径_11691" fill="#D2D2D2" fill-rule="nonzero" points="3.02416975 8.2036468 4.77963538 7.88247696 4.77963538 8.2036468 3.02416975 8.52499608"></polygon>
                                            <polygon id="路径_11689备份" fill="#D2D2D2" fill-rule="nonzero" points="0.663798347 7.59562204 7.15051048 6.34655841 7.15051048 6.66772826 0.663798347 7.91697131"></polygon>
                                        </g>
                                        <path d="M7.9589155,0.217894016 L0.17955054,1.73750062 L0.17955054,10.9019012 L7.9589155,9.38229596 L7.9589155,0.217894016 M8.13846604,0 L8.13846604,9.53004411 L0,11.1197952 L0,1.58975316 L8.13846604,0 Z" id="形状" fill-opacity="0.159999996" fill="#707070" fill-rule="nonzero"></path>
                                    </g>
                                    <g id="编组" transform="translate(9.325515, 28.400000)">
                                        <path d="M0.302139825,3.55615075 C0.0233398249,3.71855075 -0.0822601751,3.55615075 0.0693398249,3.19615075 L1.80031818,0.399693149 C1.95271818,0.0400931491 2.20191818,-0.103906851 2.35431818,0.0800931491 L3.81951818,1.85569315 C3.97191818,2.04049315 3.86711818,2.32249315 3.58591818,2.48529315 L0.302139825,3.55615075 Z" id="Fill-1" fill="#303033"></path>
                                        <path d="M0.301939825,3.37887075 L3.58571818,2.30801315 C3.67451818,2.25721315 3.71851818,2.20361315 3.73051818,2.17201315 C3.74211818,2.14081315 3.73931818,2.08321315 3.69051818,2.02601315 L2.22531818,0.250413149 C2.18091818,0.197213149 2.12731818,0.183213149 2.07731818,0.212813149 C2.02691818,0.241613149 1.97291818,0.318013149 1.92891818,0.421213149 L0.198739825,3.21767075 C0.150739825,3.33087075 0.147139825,3.39127075 0.159139825,3.40967075 C0.170339825,3.42767075 0.215139825,3.43007075 0.301939825,3.37887075 Z" id="Fill-3" fill="#FFCE30"></path>
                                        <polygon id="Fill-5" fill="#303033" points="2.4 1.67382484 2.03004418 1.71175985 2.34030437 0.8 1.6 1.92551542 1.96956308 1.88791028 1.66008837 2.8"></polygon>
                                    </g>
                                    <g id="组_6763" opacity="0.35" transform="translate(9.472189, 21.443380)"></g>
                                    <g id="_3" opacity="0.28" transform="translate(14.240168, 16.662442) scale(-1, 1) rotate(6.023993) translate(-14.240168, -16.662442) translate(13.840168, 15.862442)"></g>
                                    <polygon id="路径_11695" fill="#8C8C8C" fill-rule="nonzero" opacity="0.14" transform="translate(12.376599, 7.253404) rotate(-179.026066) translate(-12.376599, -7.253404) " points="8.96401533 7.46142779 15.7891939 6.07634773 15.7891823 7.0453802 8.96400376 8.43046026"></polygon>
                                    <g id="编组" transform="translate(9.589693, 33.200000)">
                                        <path d="M0.07852,1.2821431 C0.03532,1.3069431 0.00012,1.2869431 0.00012,1.2373431 C0.00012,1.1869431 0.03532,1.1265431 0.07852,1.1013431 L3.96692,0.0105431012 C4.00972,-0.0142568988 4.04532,0.00614310125 4.04532,0.0565431012 C4.04532,0.106543101 4.00972,0.167743101 3.96692,0.191743101 L0.07852,1.2821431 Z" id="Fill-1" fill="url(#linearGradient-7)"></path>
                                        <path d="M3.9668,0.599743101 C4.0096,0.574943101 4.0452,0.595343101 4.0452,0.644943101 C4.0452,0.694543101 4.0096,0.756143101 3.9668,0.780543101 L0.0784,1.8705431 C0.0352,1.8949431 0,1.8749431 0,1.8253431 C0,1.7753431 0.0352,1.7153431 0.0784,1.6897431 L3.9668,0.599743101 Z" id="Fill-3" fill="url(#linearGradient-8)"></path>
                                        <path d="M3.9668,1.1880231 C4.0096,1.1632231 4.0452,1.1832231 4.0452,1.2332231 C4.0452,1.2832231 4.0096,1.3444231 3.9668,1.3696231 L0.0784,2.4592231 C0.0352,2.4832231 0,2.4636231 0,2.4136231 C0,2.3632231 0.0352,2.3036231 0.0784,2.2788231 L3.9668,1.1880231 Z" id="Fill-5" fill="url(#linearGradient-9)"></path>
                                        <path d="M3.9668,1.7763031 C4.0096,1.7515031 4.0452,1.7715031 4.0452,1.8215031 C4.0452,1.8711031 4.0096,1.9327031 3.9668,1.9575031 L0.0784,3.0475031 C0.0352,3.0727031 0,3.0523031 0,3.0019031 C0,2.9519031 0.0352,2.8915031 0.0784,2.8671031 L3.9668,1.7763031 Z" id="Fill-7" fill="url(#linearGradient-10)"></path>
                                    </g>
                                    <g id="编组备份" transform="translate(19.589693, 30.400000)">
                                        <path d="M0.07852,1.2821431 C0.03532,1.3069431 0.00012,1.2869431 0.00012,1.2373431 C0.00012,1.1869431 0.03532,1.1265431 0.07852,1.1013431 L3.96692,0.0105431012 C4.00972,-0.0142568988 4.04532,0.00614310125 4.04532,0.0565431012 C4.04532,0.106543101 4.00972,0.167743101 3.96692,0.191743101 L0.07852,1.2821431 Z" id="Fill-1" fill="url(#linearGradient-7)"></path>
                                        <path d="M3.9668,0.599743101 C4.0096,0.574943101 4.0452,0.595343101 4.0452,0.644943101 C4.0452,0.694543101 4.0096,0.756143101 3.9668,0.780543101 L0.0784,1.8705431 C0.0352,1.8949431 0,1.8749431 0,1.8253431 C0,1.7753431 0.0352,1.7153431 0.0784,1.6897431 L3.9668,0.599743101 Z" id="Fill-3" fill="url(#linearGradient-8)"></path>
                                        <path d="M3.9668,1.1880231 C4.0096,1.1632231 4.0452,1.1832231 4.0452,1.2332231 C4.0452,1.2832231 4.0096,1.3444231 3.9668,1.3696231 L0.0784,2.4592231 C0.0352,2.4832231 0,2.4636231 0,2.4136231 C0,2.3632231 0.0352,2.3036231 0.0784,2.2788231 L3.9668,1.1880231 Z" id="Fill-5" fill="url(#linearGradient-9)"></path>
                                        <path d="M3.9668,1.7763031 C4.0096,1.7515031 4.0452,1.7715031 4.0452,1.8215031 C4.0452,1.8711031 4.0096,1.9327031 3.9668,1.9575031 L0.0784,3.0475031 C0.0352,3.0727031 0,3.0523031 0,3.0019031 C0,2.9519031 0.0352,2.8915031 0.0784,2.8671031 L3.9668,1.7763031 Z" id="Fill-7" fill="url(#linearGradient-10)"></path>
                                    </g>
                                    <polygon id="路径_11696" fill="#8C8C8C" fill-rule="nonzero" opacity="0.1" transform="translate(10.560484, 9.357765) rotate(-179.026066) translate(-10.560484, -9.357765) " points="8.95839446 9.18820361 12.1625845 8.55847373 12.162573 9.5275062 8.9583829 10.1570566"></polygon>
                                    <polygon id="路径_11696备份-2" fill="#8C8C8C" fill-rule="nonzero" opacity="0.08" transform="translate(10.560484, 11.357765) rotate(-179.026066) translate(-10.560484, -11.357765) " points="8.95839446 11.1882036 12.1625845 10.5584737 12.162573 11.5275062 8.9583829 12.1570566"></polygon>
                                    <polygon id="路径_11696备份" fill="#8C8C8C" fill-rule="nonzero" opacity="0.1" transform="translate(14.160484, 8.706408) rotate(-179.026066) translate(-14.160484, -8.706408) " points="12.5583945 8.53684619 15.7625845 7.90711631 15.762573 8.87614878 12.5583829 9.50569921"></polygon>
                                    <path d="M19.167356,5.67424905 L23.3246723,4.98703526 C23.5426284,4.95100661 23.7485238,5.098488 23.7845525,5.31644416 C23.7881168,5.33800656 23.7899079,5.3598248 23.7899079,5.3816798 L23.7899079,8.45942153 C23.7899079,8.65516872 23.6482444,8.82216005 23.4551157,8.85407067 L19.2977995,9.54098352 C19.0798408,9.57699681 18.8739558,9.42950091 18.8379425,9.21154222 C18.8343813,9.18998886 18.8325917,9.16817998 18.8325917,9.14633439 L18.8325917,6.06889359 C18.8325917,5.87315707 18.9742402,5.70617154 19.167356,5.67424905 Z" id="路径_11697" fill="url(#linearGradient-11)"></path>
                                    <polygon id="路径_11697备份" fill="#B3B3B3" points="19.3769896 6.31920547 23.3533614 5.68 23.3533614 5.9943002 19.3769896 6.63314682"></polygon>
                                    <polygon id="路径_11697备份-2" fill="#B3B3B3" points="19.3769896 6.95920547 21.6447122 6.55932667 21.6447122 6.87362686 19.3769896 7.27314682"></polygon>
                                    <circle id="椭圆_250" fill="#3EDB9C" fill-rule="nonzero" opacity="0.9" cx="23.0563596" cy="8" r="1"></circle>
                                    <circle id="椭圆_251" fill="#FFC021" fill-rule="nonzero" opacity="0.9" cx="21.4563596" cy="8.2" r="1"></circle>
                                    <circle id="椭圆_252" fill="#F55252" fill-rule="nonzero" opacity="0.9" cx="19.8563596" cy="8.4" r="1"></circle>
                                    <g id="路径_11693" opacity="0.2" transform="translate(14.700979, 14.990506)"></g>
                                </g>
                            </g>
                        </g>
                    </g>
                </g>
            </g>
        </g>
    </g>
</svg>