<?xml version="1.0" encoding="UTF-8"?>
<svg width="40px" height="40px" viewBox="0 0 40 40" version="1.1" xmlns="http://www.w3.org/2000/svg" xmlns:xlink="http://www.w3.org/1999/xlink">
    <title>icon_电池备份 3</title>
    <defs>
        <linearGradient x1="54.8955931%" y1="1.9580428%" x2="55.3574953%" y2="100%" id="linearGradient-1">
            <stop stop-color="#C5C5C5" offset="0%"></stop>
            <stop stop-color="#E0E0E0" offset="28.1%"></stop>
            <stop stop-color="#A7A7A7" offset="69.6%"></stop>
            <stop stop-color="#636363" offset="100%"></stop>
        </linearGradient>
        <polygon id="path-2" points="0 0 16.6664569 0 16.6664569 38.3838332 0 38.3838332"></polygon>
        <linearGradient x1="40.573023%" y1="3.5434213%" x2="59.426977%" y2="100%" id="linearGradient-4">
            <stop stop-color="#F3F3F3" offset="0%"></stop>
            <stop stop-color="#E4E4E4" offset="100%"></stop>
        </linearGradient>
        <linearGradient x1="41.6597938%" y1="3.5434213%" x2="58.3402062%" y2="100%" id="linearGradient-5">
            <stop stop-color="#F3F3F3" offset="0%"></stop>
            <stop stop-color="#E4E4E4" offset="100%"></stop>
        </linearGradient>
    </defs>
    <g id="上位机" stroke="none" stroke-width="1" fill="none" fill-rule="evenodd">
        <g id="1_1.光储一体机上位机_首页" transform="translate(-352.000000, -619.000000)">
            <g id="main" transform="translate(212.000000, 102.000000)">
                <g id="2" transform="translate(24.000000, 278.000000)">
                    <g id="能流图1" transform="translate(92.000000, 50.000000)">
                        <g id="编组-16备份" transform="translate(0.000000, 189.000000)">
                            <g id="icon_电池备份-3" transform="translate(24.000000, 0.000000)">
                                <rect id="BG" fill-rule="nonzero" x="0" y="0" width="40" height="40"></rect>
                                <g id="icon_储能BMS备份-4" transform="translate(20.000000, 20.000000) scale(-1, 1) translate(-20.000000, -20.000000) ">
                                    <rect id="BG" x="0" y="9.13341871e-05" width="40" height="39.9999087"></rect>
                                    <g id="白底备份" transform="translate(11.100803, 0.000000)" fill="url(#linearGradient-1)" fill-rule="nonzero">
                                        <path d="M5.74958438,0 L14.548417,5.02881181 L14.548417,8.35620199 L15.5722033,8.94133595 C17.2597167,9.90582281 18.4825307,12.1914837 18.4825307,14.104651 L18.4825307,35.4623387 C18.4825307,36.6871903 17.951083,37.648535 17.1351075,38.1009764 L14.2138981,39.8432742 L11.8157067,39.124063 L13.8687722,37.593 L4.72579808,32.3666758 C3.03828464,31.4024872 1.81577223,29.1159316 1.81577223,27.2030625 L1.815,6.03 L0,5.36960917 L2.73283812,3.51418206 C3.47023168,2.84766446 4.57035712,2.69119645 5.74958438,3.32888135 L5.74877223,3.045 L3.24961585,1.6160755 L5.74958438,0 Z" id="形状结合"></path>
                                    </g>
                                    <g id="白底" transform="translate(10.416667, 1.616076)">
                                        <mask id="mask-3" fill="white">
                                            <use xlink:href="#path-2"></use>
                                        </mask>
                                        <g id="Clip-2"></g>
                                        <path d="M3.93375184,-8.94700219e-05 L12.7325844,5.02872234 L12.7325844,8.35611252 L13.7563707,8.94124648 C15.4438842,9.90573334 16.6666981,12.1913942 16.6666981,14.1045616 L16.6666981,35.4622492 C16.6666981,37.7738564 14.7738243,39.146923 12.6478469,37.9319201 L2.90996554,32.3665864 C1.2224521,31.4023977 -6.03114158e-05,29.1158422 -6.03114158e-05,27.202973 L-6.03114158e-05,5.84558365 C-6.03114158e-05,3.56469451 1.84245347,2.19789078 3.93375184,3.32879188 L3.93375184,-8.94700219e-05 Z" id="Fill-1" fill="url(#linearGradient-4)" fill-rule="nonzero" mask="url(#mask-3)"></path>
                                    </g>
                                    <path d="M13.8809243,7.50454512 C13.2940942,7.16903253 12.809492,7.48187938 12.809492,8.19614841 L12.809492,29.553836 C12.809492,30.2681051 13.2940942,31.1347714 13.8809243,31.4699857 L23.6188056,37.0353194 C24.2056357,37.370832 24.6902379,37.0579852 24.6902379,36.3440144 L24.6902379,14.9860285 C24.6902379,14.2720577 24.2056357,13.4053914 23.6188056,13.0698788 C19.1660137,10.5250531 18.3337162,10.0493708 13.8809243,7.50454512 M13.8809243,5.94031087 L15.4577663,6.84157224 L15.4577663,3.51418206 L22.0416621,7.27699303 L22.0416621,10.6043832 L23.6188056,11.5056446 C24.9151995,12.2464564 25.9757758,14.1432209 25.9757758,15.7208756 L25.9757758,37.0785633 C25.9757758,38.6559198 24.9151995,39.3403655 23.6188056,38.5995537 L13.8809243,33.03422 C12.5845304,32.2934082 11.5242557,30.3969419 11.5242557,28.8192871 L11.5242557,7.46159951 C11.5242557,5.88394476 12.5845304,5.19949907 13.8809243,5.94031087" id="Fill-3" fill="url(#linearGradient-5)" fill-rule="nonzero"></path>
                                    <polygon id="Fill-1" fill="#009A29" opacity="0.300000012" points="14.0947584 26.9659156 14.0947584 30.3586189 23.4047303 35.6794012 23.4047303 32.2866979"></polygon>
                                    <polygon id="Fill-2" fill="#009A29" opacity="0.300000012" points="14.0947584 22.4924144 14.0947584 25.8851177 23.4047303 31.2059 23.4047303 27.8131967"></polygon>
                                    <polygon id="Fill-3" fill="#009A29" opacity="0.300000012" points="14.0947584 18.0189132 14.0947584 21.4113183 23.4047303 26.7323988 23.4047303 23.3396955"></polygon>
                                    <polygon id="Fill-4" fill="#D8D8D8" points="14.0947584 13.545412 14.0947584 16.9378171 23.4047303 22.2588976 23.4047303 18.8661943"></polygon>
                                    <polygon id="Fill-5" fill="#D8D8D8" points="14.0947584 9.02440224 14.0947584 12.4168073 23.4047303 17.7378879 23.4047303 14.3451846"></polygon>
                                </g>
                            </g>
                        </g>
                    </g>
                </g>
            </g>
        </g>
    </g>
</svg>