<?xml version="1.0" encoding="UTF-8"?>
<svg width="40px" height="40px" viewBox="0 0 40 40" version="1.1" xmlns="http://www.w3.org/2000/svg" xmlns:xlink="http://www.w3.org/1999/xlink">
    <title>icon_永泰云</title>
    <defs>
        <linearGradient x1="29.7821825%" y1="41.3698654%" x2="80.3244464%" y2="58.5190085%" id="linearGradient-1">
            <stop stop-color="#FFFFFF" offset="0%"></stop>
            <stop stop-color="#AAAAAA" offset="100%"></stop>
        </linearGradient>
        <polygon id="path-2" points="0 0 14.566915 0 14.566915 17.9869571 0 17.9869571"></polygon>
        <linearGradient x1="36.738746%" y1="9.015498%" x2="69.8903856%" y2="90.4567644%" id="linearGradient-4">
            <stop stop-color="#FFFFFF" offset="0%"></stop>
            <stop stop-color="#AAAAAA" offset="100%"></stop>
        </linearGradient>
        <linearGradient x1="29.7821825%" y1="35.4725968%" x2="80.3244464%" y2="64.3403408%" id="linearGradient-5">
            <stop stop-color="#FFFFFF" offset="0%"></stop>
            <stop stop-color="#AAAAAA" offset="100%"></stop>
        </linearGradient>
        <linearGradient x1="29.7821825%" y1="11.3902052%" x2="80.3244464%" y2="88.1126351%" id="linearGradient-6">
            <stop stop-color="#FFFFFF" offset="0%"></stop>
            <stop stop-color="#AAAAAA" offset="100%"></stop>
        </linearGradient>
        <linearGradient x1="-1.83880623e-12%" y1="46.9987602%" x2="122.877111%" y2="68.2073171%" id="linearGradient-7">
            <stop stop-color="#E8E8E8" offset="0%"></stop>
            <stop stop-color="#C2C2C2" offset="100%"></stop>
        </linearGradient>
        <path d="M18.5046249,13.9234647 L18.344296,14.4049038 C18.7430627,14.2914757 19.1253854,14.2385426 19.4953751,14.2486251 L19.63926,13.7268561 C19.2774923,13.7268561 18.8992806,13.7923923 18.5046249,13.9234647 Z M20.3874615,13.7873511 C20.1202467,14.3998625 19.8078109,14.9443171 19.4501542,15.4207149 C19.3556012,15.2669569 19.2733813,15.0955545 19.1993834,14.9039872 L19.1993834,14.4855637 L17.6207605,15.453483 L17.6207605,15.9172777 L18.8088386,15.1888176 L18.8088386,17.7800183 C18.8088386,17.9110907 18.7471737,18.0194775 18.6320658,18.090055 L18.1181912,18.3849679 L18.2209661,18.785747 L18.7471737,18.4631072 C19.0472765,18.2791017 19.1993834,18.0194775 19.1993834,17.6968378 L19.1993834,15.8013291 C19.5200411,16.3810724 19.9722508,16.7642071 20.5519013,16.9582951 L20.8273381,16.3911549 C20.3340185,16.2953712 19.9352518,16.055912 19.631038,15.6727773 C20.0298047,15.1762145 20.3833505,14.5863886 20.6875642,13.9108616 L20.3874615,13.7873511 Z M17.1151079,16.751604 L17.1151079,17.200275 L18.1593011,16.5600367 C17.9455293,17.3313474 17.5590956,18.0673694 17,18.7630614 L17.2384378,19 C17.9044193,18.1480293 18.344296,17.2229606 18.5539568,16.2373969 L18.5539568,15.8693859 L17.1151079,16.751604 Z M22.2291881,14.4578368 L21.9619733,14.8586159 C22.1017472,14.9443171 22.2168551,15.0300183 22.307297,15.1207608 L22.5786228,14.7275435 C22.4964029,14.6368011 22.377184,14.5485793 22.2291881,14.4578368 Z M22.8705036,15.9248396 C23.1336074,15.7635197 23.2651593,15.5316224 23.2651593,15.2392301 L23.2651593,14.6695692 C23.663926,14.6368011 24.0585817,14.6569661 24.4450154,14.7325848 L24.6546763,14.2108158 C24.3874615,14.1730064 24.0996917,14.1629239 23.7872559,14.1881302 C23.9270298,13.9209441 24.0462487,13.6562786 24.1449126,13.3991751 L23.8283659,13.4067369 C23.7420349,13.6512374 23.626927,13.9234647 23.4830421,14.2183776 C23.4090442,14.2234189 23.3391572,14.2309808 23.2651593,14.2461045 L23.2651593,13.4445463 L22.8787256,13.6814849 L22.8787256,14.4578368 C22.4676259,15.0728689 21.9948613,15.6551329 21.4522097,16.1995875 L21.6454265,16.4793767 C22.1140802,15.9752521 22.5251799,15.4560037 22.8787256,14.9165903 L22.8787256,15.3652612 C22.8787256,15.4660862 22.8335046,15.5442255 22.7471737,15.5971586 C22.6279548,15.6702566 22.5046249,15.7357929 22.377184,15.7937672 L22.4511819,16.1819432 L22.8705036,15.9248396 Z M21.4316547,12.4867094 L21.4316547,12.9000917 L22.7307297,12.1035747 L22.7036276,12.2225108 L22.6402878,12.4715857 L21.6536485,13.0765353 L21.6536485,13.4848763 L22.4922919,12.9706691 L22.3951505,13.2356146 C22.3776407,13.2807058 22.3593696,13.326077 22.340185,13.3714482 L21.2384378,14.0469753 L21.2384378,14.47044 L22.0647482,13.9637947 C21.8180884,14.4376719 21.5097636,14.8939047 21.1397739,15.3224106 L21.3535457,15.5895967 C21.8345324,14.992209 22.2291881,14.3570119 22.5375128,13.673923 L23.63926,12.998396 C23.8735868,13.3033914 24.2559096,13.4319432 24.7903392,13.3764895 L24.954779,12.8572411 C24.5519013,12.937901 24.2435766,12.9051329 24.0380267,12.7538955 L24.8232271,12.2724565 L24.8232271,11.8489918 L22.7677287,13.1093034 C22.8129496,12.9807516 22.8581706,12.8521998 22.8992806,12.7211274 L24.3997945,11.8010999 L24.3997945,11.3927589 L23.0390545,12.2270852 L23.1253854,11.8615949 L24.6300103,10.9390467 L24.6300103,10.5256645 L23.2117163,11.3952796 L23.2610483,11.0474335 L22.8705036,11.2263978 C22.8540596,11.3625115 22.8376156,11.4986251 22.8170606,11.6372594 L21.4316547,12.4867094 Z M25.6824255,9.80980752 L25.6824255,10.2736022 L28.6341213,8.46379468 L28.6341213,8 L25.6824255,9.80980752 Z M25.2877698,11.4431714 L25.2877698,11.9220898 L26.6156218,11.1079285 L26.5402267,11.3368228 L26.3949287,11.7643047 L26.2569534,12.1513779 C26.2345677,12.2125227 26.2124872,12.2719838 26.1907117,12.3297613 L26.0637205,12.6562214 C25.8992806,13.0645623 25.7543679,13.3651467 25.6289825,13.5579743 L25.6044688,13.5881285 L25.6044688,13.5881285 L25.5344296,13.6613199 L25.5344296,13.6613199 L25.6372045,14.0873052 C26.6073998,13.4117782 27.5035971,12.7513749 28.3299075,12.1035747 C28.4039054,12.2296059 28.4696814,12.3606783 28.5354573,12.4917507 L28.8848921,11.9800642 C28.6793422,11.6019707 28.3915725,11.1835472 28.0174717,10.7323556 L27.705036,11.1608616 C27.8612539,11.3675527 28.0051387,11.5767644 28.1366906,11.7834555 C27.4707091,12.3077452 26.7965057,12.8068286 26.1223022,13.2706233 C26.2113738,13.091659 26.3050131,12.8824473 26.4033725,12.6428947 L26.5544707,12.2607986 C26.5802501,12.1933194 26.6063292,12.123941 26.6327105,12.0526619 L26.7946429,11.6021676 L26.7946429,11.6021676 L26.9639408,11.105987 C26.9927772,11.0194791 27.0219253,10.9310648 27.0513875,10.8407424 L29,9.645967 L29,9.16704858 L25.2877698,11.4431714 Z" id="path-8"></path>
        <filter x="-8.3%" y="-9.1%" width="116.7%" height="118.2%" filterUnits="objectBoundingBox" id="filter-9">
            <feGaussianBlur stdDeviation="0.5" in="SourceAlpha" result="shadowBlurInner1"></feGaussianBlur>
            <feOffset dx="0" dy="1" in="shadowBlurInner1" result="shadowOffsetInner1"></feOffset>
            <feComposite in="shadowOffsetInner1" in2="SourceAlpha" operator="arithmetic" k2="-1" k3="1" result="shadowInnerInner1"></feComposite>
            <feColorMatrix values="0 0 0 0 0   0 0 0 0 0   0 0 0 0 0  0 0 0 0.313756556 0" type="matrix" in="shadowInnerInner1"></feColorMatrix>
        </filter>
    </defs>
    <g id="上位机" stroke="none" stroke-width="1" fill="none" fill-rule="evenodd">
        <g id="1_1.光储一体机上位机_首页" transform="translate(-684.000000, -430.000000)">
            <g id="main" transform="translate(212.000000, 102.000000)">
                <g id="2" transform="translate(24.000000, 278.000000)">
                    <g id="能流图1" transform="translate(92.000000, 50.000000)">
                        <g id="icon_永泰云" transform="translate(356.000000, 0.000000)">
                            <rect id="矩形备份-23" fill-rule="nonzero" x="0" y="0" width="40" height="40"></rect>
                            <g transform="translate(0.000000, 4.000000)">
                                <g id="永泰云" transform="translate(20.000000, 16.500000) scale(-1, 1) translate(-20.000000, -16.500000) ">
                                    <path d="M1.60165707,7.36185626 L9.25792835,2.91196216 C10.2654315,2.32646374 11.6659362,2.40024822 13.215362,3.27239137 C13.4771838,3.4194295 13.7325541,3.58504646 13.9852364,3.7660573 L6.32842746,8.2159514 C6.07628286,8.03494056 5.82091253,7.8693236 5.55909074,7.72228547 C4.00966487,6.85014232 2.60916022,6.77635784 1.60165707,7.36185626" id="Fill-1" fill="url(#linearGradient-1)"></path>
                                    <g id="编组" transform="translate(25.433085, 14.634405)">
                                        <mask id="mask-3" fill="white">
                                            <use xlink:href="#path-2"></use>
                                        </mask>
                                        <g id="Clip-4"></g>
                                        <path d="M12.965286,13.537063 L5.30901474,17.9869571 C6.30361497,17.4088902 6.91542852,16.1874652 6.91058993,14.4564495 C6.90091274,10.9737159 4.39613302,6.74464445 1.31448517,5.01044381 C0.861270038,4.75511766 0.421495449,4.57092188 0,4.4498941 L7.65627129,0 C8.07830436,0.121027777 8.51754133,0.305223561 8.97129408,0.560549704 C12.0524043,2.29421953 14.5577216,6.52382184 14.5674273,10.0065554 C14.5722374,11.7375711 13.9604239,12.9589961 12.965286,13.537063" id="Fill-3" fill="url(#linearGradient-4)" mask="url(#mask-3)"></path>
                                    </g>
                                    <path d="M7.77457619,4.79298861 L15.4308475,0.343094504 C16.3437292,-0.187729079 17.6125165,-0.120314484 19.0167845,0.669551008 C20.4210525,1.45994732 21.6919903,2.82150982 22.6118611,4.38372362 L14.9555899,8.83361772 C14.0357191,7.27193474 12.7647812,5.90984143 11.3605132,5.11944511 C9.95624524,4.32957962 8.68745792,4.26216502 7.77457619,4.79298861" id="Fill-5" fill="url(#linearGradient-5)"></path>
                                    <path d="M14.9557511,8.83377697 L22.6120224,4.38388287 C22.2926751,3.84138117 21.9287052,3.32542064 21.5335532,2.84661777 L13.8708305,7.28908034 C14.2686706,7.77000651 14.634791,8.28862115 14.9557511,8.83377697" id="Fill-7" fill="#000000" opacity="0.0498232902"></path>
                                    <path d="M27.8645869,3.12232754 C26.3146234,2.25018439 24.915194,2.17586909 23.9082285,2.7613675 L16.2519572,7.21126161 C17.2589227,6.62576319 18.6583521,6.7000785 20.2083156,7.57222164 C23.287813,9.30536064 25.7931303,13.5344321 25.8028075,17.0171657 C25.804958,17.8208326 25.6721654,18.5130265 25.4329237,19.0841927 L33.089195,14.6342986 C33.3284367,14.0631324 33.4612293,13.3709385 33.4591045,12.5672716 C33.4494016,9.08453803 30.9440843,4.85493572 27.8645869,3.12232754" id="Fill-9" fill="url(#linearGradient-6)"></path>
                                    <path d="M20.2081543,7.57227473 C23.2876517,9.3048829 25.792969,13.5344852 25.8026462,17.0172187 C25.8047967,17.8208857 25.6720041,18.5130796 25.4333001,19.0842458 C25.8547955,19.2052736 26.2940325,19.3894693 26.7477852,19.6447955 C29.8288955,21.3789961 32.3342128,25.6080676 32.3439181,29.0908012 C32.3535672,32.5751272 29.8643785,33.9945494 26.7832683,32.2603488 L5.59452001,20.3375203 C2.51502265,18.6049121 0.00970531247,14.3753098 0,10.8909838 C-0.0096490704,7.40825024 2.47953961,5.9893588 5.55903698,7.72196698 C5.82085877,7.86953593 6.0762291,8.03462207 6.32891132,8.21616373 C6.32514797,8.14078678 6.3235351,8.06647148 6.3235351,7.99109453 C6.31439553,4.8348175 8.56971876,3.54916278 11.3605132,5.11986977 C12.7647812,5.90973526 14.0357191,7.27182858 14.9555899,8.83351156 C15.7087979,6.80151888 17.7727278,6.20168823 20.2081543,7.57227473" id="Fill-11" fill="url(#linearGradient-7)"></path>
                                    <polygon id="Fill-13" fill="#ECECEB" points="6.90792994 11.1913238 6.05257374 11.6849897 24.5569766 22.0965635 25.4123328 21.6028975"></polygon>
                                    <polygon id="Fill-15" fill="#DEDEDE" points="25.4125479 21.6028975 24.5571917 22.0965635 24.589449 27.781684 25.4448052 27.2880181"></polygon>
                                    <polygon id="Fill-17" fill="#FFFFFF" points="24.5892877 27.7817371 6.08488481 17.3701634 6.0526275 11.6850428 24.5570304 22.0966165"></polygon>
                                    <polygon id="Fill-19" fill="#5C4C57" points="11.6666888 16.8377473 6.80927635 14.1045367 6.80282489 12.9218617 11.6602374 15.6550724"></polygon>
                                    <polygon id="Fill-21" fill="#22AC50" points="11.4211032 16.503063 10.5377907 16.0062122 10.5334897 15.2174083 11.4168022 15.7142592"></polygon>
                                    <polygon id="Fill-23" fill="#5C4C57" points="11.6748069 18.2715018 6.81739444 15.5382912 6.81040535 14.3556162 11.6683555 17.0888269"></polygon>
                                    <polygon id="Fill-25" fill="#22AC50" points="11.4291675 17.9368175 10.545855 17.4399667 10.541554 16.6511628 11.4248666 17.1485445"></polygon>
                                    <polygon id="Fill-27" fill="#5C4C57" points="11.6828712 19.7052563 6.82545876 16.9720457 6.81846968 15.7893707 11.6764198 18.5225814"></polygon>
                                    <polygon id="Fill-29" fill="#22AC50" points="11.4373394 19.370572 10.5540269 18.8737212 10.5497259 18.0849173 11.4330384 18.5817682"></polygon>
                                    <polygon id="Fill-31" fill="#5C4C57" points="17.2437618 19.9756578 12.3863493 17.2424472 12.3798978 16.0597723 17.2373103 18.7929829"></polygon>
                                    <polygon id="Fill-33" fill="#22AC50" points="16.9982299 19.6409736 16.1149174 19.1441227 16.1106164 18.3553188 16.9939289 18.8521697"></polygon>
                                    <polygon id="Fill-35" fill="#5C4C57" points="17.2518261 21.4094654 12.3944136 18.6762548 12.3874245 17.4935798 17.2453746 20.2267905"></polygon>
                                    <polygon id="Fill-37" fill="#22AC50" points="17.0062942 21.0747811 16.1229817 20.5779303 16.1186807 19.7891264 17.0019933 20.2859773"></polygon>
                                    <polygon id="Fill-39" fill="#5C4C57" points="17.2599442 22.8432199 12.4025317 20.1100093 12.3955426 18.9273343 17.2534927 21.660545"></polygon>
                                    <polygon id="Fill-41" fill="#22AC50" points="17.0144123 22.5085356 16.1310998 22.0116848 16.1267988 21.2228809 17.0101114 21.7197318"></polygon>
                                    <path d="M18.5894828,20.0985966 C18.590558,20.2620902 18.4744317,20.328974 18.3308867,20.247758 C18.1873417,20.1670728 18.0701402,19.9690756 18.0690649,19.805582 C18.0679897,19.6426191 18.184116,19.5757353 18.327661,19.6564205 C18.471206,19.7371057 18.5884075,19.9351029 18.5894828,20.0985966" id="Fill-43" fill="#302328"></path>
                                    <path d="M19.4775264,20.5983139 C19.4786016,20.7618076 19.3624753,20.8286913 19.2189303,20.7474753 C19.0753853,20.6667901 18.9581838,20.4687929 18.9571085,20.3052993 C18.9560333,20.1423364 19.0721596,20.0754527 19.2157046,20.1561378 C19.3592496,20.236823 19.4764511,20.4348202 19.4775264,20.5983139" id="Fill-45" fill="#302328"></path>
                                    <path d="M20.36557,21.0979781 C20.3666452,21.2614718 20.2505189,21.3283556 20.1069739,21.2471396 C19.9634289,21.1664544 19.8462274,20.9684572 19.8451521,20.8049635 C19.8440769,20.6420007 19.9596655,20.5751169 20.1037482,20.6558021 C20.2472932,20.7364873 20.3644947,20.9344845 20.36557,21.0979781" id="Fill-47" fill="#302328"></path>
                                    <path d="M21.2536673,21.5976424 C21.2547426,21.761136 21.1386163,21.8280198 20.9950713,21.7468038 C20.8515263,21.6661186 20.7343247,21.4681214 20.7332495,21.3046278 C20.7321742,21.1416649 20.8483005,21.0747811 20.9918455,21.1554663 C21.1353905,21.2361515 21.2525921,21.4341487 21.2536673,21.5976424" id="Fill-49" fill="#302328"></path>
                                    <path d="M22.1417109,22.0973066 C22.1427862,22.2608003 22.0266599,22.327684 21.8831149,22.246468 C21.7395699,22.1657829 21.6223683,21.9677857 21.6212931,21.804292 C21.6202178,21.6413292 21.7363441,21.5744454 21.8798891,21.6551306 C22.0234341,21.7358157 22.1406357,21.9338129 22.1417109,22.0973066" id="Fill-51" fill="#302328"></path>
                                    <path d="M23.0298083,22.5969708 C23.0308835,22.7604645 22.9147572,22.8273483 22.7712122,22.7461323 C22.6276672,22.6654471 22.5104657,22.4674499 22.5093904,22.3039562 C22.5083152,22.1409934 22.6239039,22.0741096 22.7679865,22.1547948 C22.9115315,22.23548 23.028733,22.4334772 23.0298083,22.5969708" id="Fill-53" fill="#302328"></path>
                                    <path d="M23.9177981,23.0966351 C23.9188734,23.2601288 23.8027471,23.3270125 23.6592021,23.2457965 C23.5156571,23.1651113 23.3984555,22.9671141 23.3973803,22.8036205 C23.396305,22.6406576 23.5124313,22.5737739 23.6559763,22.654459 C23.7995213,22.7351442 23.9167229,22.9331414 23.9177981,23.0966351" id="Fill-55" fill="#302328"></path>
                                    <path d="M18.595074,21.084336 C18.5961493,21.2478296 18.480023,21.3147134 18.336478,21.2334974 C18.192933,21.1528122 18.0757314,20.954815 18.0746562,20.7913213 C18.0735809,20.6283585 18.1891696,20.5614747 18.3332522,20.6421599 C18.4767972,20.7228451 18.5939988,20.9208423 18.595074,21.084336" id="Fill-57" fill="#302328"></path>
                                    <path d="M19.4831176,21.5840002 C19.4841929,21.7474939 19.3680666,21.8143776 19.2245216,21.7331616 C19.0809766,21.6524764 18.963775,21.4544793 18.9626998,21.2909856 C18.9616245,21.1280227 19.0772132,21.061139 19.2212958,21.1418242 C19.3648408,21.2225093 19.4820424,21.4205065 19.4831176,21.5840002" id="Fill-59" fill="#302328"></path>
                                    <path d="M20.3711075,22.0836644 C20.3721827,22.2471581 20.2560564,22.3140419 20.1125114,22.2328259 C19.9689664,22.1521407 19.8517649,21.9541435 19.8506896,21.7906498 C19.8496144,21.627687 19.9657407,21.5608032 20.1092857,21.6414884 C20.2528307,21.7221736 20.3700322,21.9201708 20.3711075,22.0836644" id="Fill-61" fill="#302328"></path>
                                    <path d="M21.2592048,22.5833287 C21.2602801,22.7468223 21.1441538,22.8137061 21.0006088,22.7324901 C20.8570638,22.6518049 20.7398622,22.4538077 20.738787,22.2903141 C20.7377117,22.1273512 20.853838,22.0604675 20.997383,22.1411526 C21.140928,22.2218378 21.2581296,22.419835 21.2592048,22.5833287" id="Fill-63" fill="#302328"></path>
                                    <path d="M22.1473022,23.0829929 C22.1483774,23.2464866 22.0322511,23.3133704 21.8887061,23.2321543 C21.7451611,23.1514692 21.6279596,22.953472 21.6268843,22.7899783 C21.6258091,22.6270155 21.7413978,22.5601317 21.8854804,22.6408169 C22.0290254,22.7215021 22.146227,22.9194993 22.1473022,23.0829929" id="Fill-65" fill="#302328"></path>
                                    <path d="M23.0353458,23.5826572 C23.036421,23.7461508 22.9202947,23.8130346 22.7767497,23.7318186 C22.6332047,23.6511334 22.5160032,23.4531362 22.5149279,23.2896425 C22.5138527,23.1266797 22.629979,23.0597959 22.773524,23.1404811 C22.917069,23.2211663 23.0342706,23.4191635 23.0353458,23.5826572" id="Fill-67" fill="#302328"></path>
                                    <path d="M23.9233356,24.0823214 C23.9244109,24.2458151 23.8082846,24.3126988 23.6647396,24.2314828 C23.5211946,24.1507976 23.403993,23.9528004 23.4029178,23.7893068 C23.4018425,23.6263439 23.5179688,23.5594602 23.6615138,23.6401454 C23.8050589,23.7208305 23.9222604,23.9188277 23.9233356,24.0823214" id="Fill-69" fill="#302328"></path>
                                    <path d="M18.6006115,22.0700754 C18.6016868,22.233569 18.4855605,22.3004528 18.3420155,22.2192368 C18.1984705,22.1385516 18.0812689,21.9405544 18.0801937,21.7770607 C18.0791184,21.6140979 18.1947071,21.5472141 18.3387897,21.6278993 C18.4823348,21.7085845 18.5995363,21.9065817 18.6006115,22.0700754" id="Fill-71" fill="#302328"></path>
                                    <path d="M19.4886551,22.5697396 C19.4897304,22.7332333 19.3736041,22.800117 19.2300591,22.718901 C19.0865141,22.6382158 18.9693125,22.4402186 18.9682373,22.276725 C18.967162,22.1137621 19.0832883,22.0468784 19.2268333,22.1275636 C19.3703784,22.2082487 19.4875799,22.4062459 19.4886551,22.5697396" id="Fill-73" fill="#302328"></path>
                                    <path d="M20.376645,23.0694038 C20.3777202,23.2328975 20.2615939,23.2997813 20.1180489,23.2185653 C19.9745039,23.1378801 19.8573024,22.9398829 19.8562271,22.7763892 C19.8551519,22.6134264 19.9712782,22.5465426 20.1148232,22.6272278 C20.2583682,22.707913 20.3755697,22.9059102 20.376645,23.0694038" id="Fill-75" fill="#302328"></path>
                                    <path d="M21.2647423,23.5690681 C21.2658176,23.7325617 21.1496913,23.7994455 21.0061463,23.7182295 C20.8626013,23.6375443 20.7453997,23.4395471 20.7443245,23.2760535 C20.7432492,23.1130906 20.8588379,23.0462068 21.0029205,23.126892 C21.1464656,23.2075772 21.2636671,23.4055744 21.2647423,23.5690681" id="Fill-77" fill="#302328"></path>
                                    <path d="M22.1528397,24.0687323 C22.1539149,24.232226 22.0377886,24.2991098 21.8942436,24.2178937 C21.7506986,24.1372086 21.6334971,23.9392114 21.6324218,23.7757177 C21.6313466,23.6127549 21.7474729,23.5458711 21.8910179,23.6265563 C22.0345629,23.7072415 22.1517645,23.9052387 22.1528397,24.0687323" id="Fill-79" fill="#302328"></path>
                                    <path d="M23.0408833,24.5683966 C23.0419585,24.7318902 22.9258322,24.798774 22.7822872,24.717558 C22.6387422,24.6368728 22.5215407,24.4388756 22.5204655,24.2753819 C22.5193902,24.1124191 22.6355165,24.0455353 22.7790615,24.1262205 C22.9226065,24.2069057 23.0398081,24.4049029 23.0408833,24.5683966" id="Fill-81" fill="#302328"></path>
                                    <path d="M23.9289807,25.0680608 C23.9300559,25.2315545 23.8139296,25.2984382 23.6703846,25.2172222 C23.5268396,25.136537 23.4096381,24.9385398 23.4085628,24.7750462 C23.4074876,24.6120833 23.5230762,24.5451996 23.6671589,24.6258848 C23.8107039,24.7065699 23.9279054,24.9045671 23.9289807,25.0680608" id="Fill-83" fill="#302328"></path>
                                    <path d="M18.606149,23.0557617 C18.6072243,23.2192553 18.491098,23.2861391 18.347553,23.2049231 C18.204008,23.1242379 18.0868064,22.9262407 18.0857312,22.7627471 C18.0846559,22.5997842 18.2007822,22.5329004 18.3443272,22.6135856 C18.4878723,22.6942708 18.6050738,22.892268 18.606149,23.0557617" id="Fill-85" fill="#302328"></path>
                                    <path d="M19.4942464,23.5554259 C19.4953216,23.7189196 19.3791953,23.7858033 19.2356503,23.7045873 C19.0921053,23.6239022 18.9749038,23.425905 18.9738286,23.2624113 C18.9727533,23.0994485 19.088342,23.0325647 19.2324246,23.1132499 C19.3759696,23.1939351 19.4931712,23.3919322 19.4942464,23.5554259" id="Fill-87" fill="#302328"></path>
                                    <path d="M20.38229,24.0550902 C20.3833652,24.2185838 20.2672389,24.2854676 20.1236939,24.2042516 C19.9801489,24.1235664 19.8629474,23.9255692 19.8618722,23.7620755 C19.8607969,23.5991127 19.9763856,23.5322289 20.1204682,23.6129141 C20.2640132,23.6935993 20.3812148,23.8915965 20.38229,24.0550902" id="Fill-89" fill="#302328"></path>
                                    <path d="M21.2702798,24.5547544 C21.2713551,24.7182481 21.1552288,24.7851318 21.0116838,24.7039158 C20.8681388,24.6232306 20.7509372,24.4252334 20.749862,24.2617398 C20.7487867,24.0987769 20.864913,24.0318932 21.0084581,24.1125783 C21.1520031,24.1932635 21.2692046,24.3912607 21.2702798,24.5547544" id="Fill-91" fill="#302328"></path>
                                    <path d="M22.1583772,25.0544186 C22.1594524,25.2179123 22.0433262,25.2847961 21.8997811,25.2035801 C21.7562361,25.1228949 21.6390346,24.9248977 21.6379594,24.761404 C21.6368841,24.5984412 21.7530104,24.5315574 21.8965554,24.6122426 C22.0401004,24.6934586 22.157302,24.890925 22.1583772,25.0544186" id="Fill-93" fill="#302328"></path>
                                    <path d="M23.0464746,25.5540829 C23.0475498,25.7175765 22.9314235,25.7844603 22.7878785,25.7032443 C22.6443335,25.6225591 22.527132,25.4245619 22.5260567,25.2610683 C22.5249815,25.0981054 22.6405701,25.0312216 22.7846528,25.1119068 C22.9281978,25.1931228 23.0453993,25.3905892 23.0464746,25.5540829" id="Fill-95" fill="#302328"></path>
                                    <path d="M23.9345182,26.0537471 C23.9355934,26.2172408 23.8194671,26.2841245 23.6759221,26.2029085 C23.5323771,26.1222234 23.4151756,25.9242262 23.4141003,25.7607325 C23.4130251,25.5977697 23.5291514,25.5308859 23.6726964,25.6115711 C23.8162414,25.6927871 23.9334429,25.8902534 23.9345182,26.0537471" id="Fill-97" fill="#302328"></path>
                                </g>
                                <g id="形状结合" fill-rule="nonzero">
                                    <use fill="#808B97" xlink:href="#path-8"></use>
                                    <use fill="black" fill-opacity="1" filter="url(#filter-9)" xlink:href="#path-8"></use>
                                </g>
                            </g>
                        </g>
                    </g>
                </g>
            </g>
        </g>
    </g>
</svg>