<?xml version="1.0" encoding="UTF-8"?>
<svg width="40px" height="40px" viewBox="0 0 40 40" version="1.1" xmlns="http://www.w3.org/2000/svg" xmlns:xlink="http://www.w3.org/1999/xlink">
    <title>icon_电网侧电表</title>
    <defs>
        <linearGradient x1="110.780232%" y1="12.3335044%" x2="9.08833601e-13%" y2="98.0159016%" id="linearGradient-1">
            <stop stop-color="#9B9B9B" offset="0%"></stop>
            <stop stop-color="#3A3A3E" offset="100%"></stop>
        </linearGradient>
        <linearGradient x1="-1.83880623e-12%" y1="46.1747657%" x2="122.877111%" y2="73.2061611%" id="linearGradient-2">
            <stop stop-color="#E8E8E8" offset="0%"></stop>
            <stop stop-color="#C2C2C2" offset="100%"></stop>
        </linearGradient>
        <linearGradient x1="13.7079478%" y1="46.1481192%" x2="102.897198%" y2="73.3678147%" id="linearGradient-3">
            <stop stop-color="#E8E8E8" offset="0%"></stop>
            <stop stop-color="#C2C2C2" offset="100%"></stop>
        </linearGradient>
        <linearGradient x1="50%" y1="0%" x2="50%" y2="100%" id="linearGradient-4">
            <stop stop-color="#DDDDDD" offset="0%"></stop>
            <stop stop-color="#B4B4B4" offset="100%"></stop>
        </linearGradient>
        <linearGradient x1="97.8521765%" y1="-7.32241798e-13%" x2="31.0128545%" y2="93.5611139%" id="linearGradient-5">
            <stop stop-color="#CACACA" offset="0%"></stop>
            <stop stop-color="#C2C3C4" offset="100%"></stop>
        </linearGradient>
    </defs>
    <g id="上位机" stroke="none" stroke-width="1" fill="none" fill-rule="evenodd">
        <g id="1_1.光储一体机上位机_首页" transform="translate(-684.000000, -619.000000)">
            <g id="main" transform="translate(212.000000, 102.000000)">
                <g id="2" transform="translate(24.000000, 278.000000)">
                    <g id="能流图1" transform="translate(92.000000, 50.000000)">
                        <g id="编组-2备份" transform="translate(346.000000, 189.000000)">
                            <g id="icon_电网侧电表" transform="translate(10.000000, 0.000000)">
                                <rect id="矩形" fill-rule="nonzero" x="0" y="0" width="40" height="40"></rect>
                                <g id="icon_电表备份-11" transform="translate(5.000000, 0.000000)">
                                    <g id="icon_电表" transform="translate(4.166667, 0.000000)">
                                        <polygon id="Fill-1" fill="#B6B6B6" points="7.65273982 32.9366333 5.22614383 35.6056029 6.79275917 39.9997486 21.616028 31.6926562 22.4765267 24.6295409"></polygon>
                                        <polygon id="Fill-2" fill="url(#linearGradient-1)" points="17.8261036 32.8758927 8.04511894 38.3581412 8.61239533 33.6980037 18.3949342 28.2157551"></polygon>
                                        <polygon id="Fill-4" fill="url(#linearGradient-2)" points="22.4765267 11.8335715 7.65273982 20.1401611 6.08612447 15.744507 6.79275917 12.1131396 21.616028 3.80654999"></polygon>
                                        <polygon id="Fill-5" fill="#BCBEC0" points="15.8798535 14.8784495 13.4465227 16.2426007 13.3688136 15.5094888 15.1872064 14.4902723 14.560353 8.63493117 15.1737368 8.29049934"></polygon>
                                        <polygon id="Fill-6" fill="#939598" points="15.1872582 14.4900712 13.3688654 15.5092877 12.7409759 9.65495221 14.5604048 8.63473004"></polygon>
                                        <polygon id="Fill-7" fill="url(#linearGradient-3)" points="10.1756433 21.7236425 7.31024993 26.8322956 10.1756433 34.1805099 24.9999482 25.8739204 24.9999482 13.4170529"></polygon>
                                        <polygon id="Fill-8" fill="#A7A9AC" points="0.000103612125 27.3319481 0.396419994 28.8685666 1.84854394 28.4110002 1.51232259 26.4836904"></polygon>
                                        <polygon id="Fill-9" fill="url(#linearGradient-4)" points="0.000103612125 17.1679407 0.860602318 17.0653654 0.860602318 28.3999382 0.000103612125 27.3319481 0.000103612125 36.1926455 6.79239653 40 7.65289523 32.9368848 10.1753324 34.1808619 10.1758505 21.7234916 7.65289523 20.1401108 6.79239653 12.1130893 0.000103612125 8.30623761"></polygon>
                                        <polygon id="Fill-10" fill="#F1F1F1" points="7.65273982 20.1402114 10.1756951 21.7235922 25 13.4170026 22.4765267 11.8336218"></polygon>
                                        <polygon id="Fill-11" fill="#F1F1F1" points="14.8232688 0 0 8.30658958 6.79229292 12.1129384 21.6160798 3.80685168"></polygon>
                                        <polygon id="Fill-12" fill="#939598" points="24.4946319 16.3098277 24.4946319 23.4649591 10.8494329 31.1123514 10.8494329 30.3143758 23.7822985 23.0672283 23.7822985 16.709067"></polygon>
                                        <polygon id="Fill-13" fill="url(#linearGradient-5)" points="23.7822985 16.7090167 23.7822985 23.0676809 10.8494329 30.3143255 10.8494329 23.956667"></polygon>
                                        <polygon id="Fill-14" fill="#939598" points="20.6203154 20.1600225 14.3082647 23.6968598 14.3082647 22.8360316 20.6203154 19.2991944"></polygon>
                                        <polygon id="Fill-15" fill="#939598" points="15.2176165 26.4860537 11.530579 28.5531475 11.530579 28.1981564 15.2176165 26.1320682"></polygon>
                                        <polygon id="Fill-16" fill="#535359" points="22.4122872 19.3542532 21.4859947 19.8736664 21.4859947 20.0320548 22.4122872 19.5131443"></polygon>
                                        <polygon id="Fill-17" fill="#535359" points="20.9668462 21.4225035 20.0405538 21.9419167 20.0405538 22.1013107 20.9668462 21.5818975"></polygon>
                                        <polygon id="Fill-18" fill="#939598" points="15.2176165 27.2250485 11.530579 29.2916395 11.530579 28.9371512 15.2176165 26.8710631"></polygon>
                                        <polygon id="Fill-19" fill="#939598" points="23.0917237 22.813103 21.2453556 23.8479069 21.2453556 22.7552787 23.0917237 21.7194691"></polygon>
                                        <polygon id="Fill-20" fill="#303033" points="18.6937516 23.5182077 11.3025806 27.6594349 11.3025806 26.1776237 18.6937516 22.0358938"></polygon>
                                        <polygon id="Fill-21" fill="#E31B25" points="19.8108457 22.8926491 18.693907 23.5181575 18.693907 22.0358435 19.8108457 21.4098324"></polygon>
                                        <polygon id="Fill-22" fill="#000000" points="12.1654105 25.866378 12.1654105 27.0198476 11.4105962 27.4432222 11.4105962 27.3411497 12.0737138 26.9690627 12.0737138 25.9176657"></polygon>
                                        <polygon id="Fill-23" fill="#121214" points="12.0738174 25.9179171 12.0738174 26.9693141 11.4106998 27.3408983 11.4106998 26.2884956"></polygon>
                                        <g id="编组" transform="translate(11.302581, 18.540395)">
                                            <path d="M0.589584142,8.02348609 C0.589584142,7.813327 0.539477505,7.75637741 0.464839492,7.79770366 C0.389157592,7.84003787 0.339572898,7.95292908 0.339572898,8.16308818 C0.339572898,8.37274329 0.389157592,8.43473267 0.464839492,8.39290244 C0.539477505,8.35107221 0.589584142,8.23314121 0.589584142,8.02348609 M0.258149612,8.20794228 C0.258149612,7.96804844 0.335919289,7.79568775 0.464839492,7.7236188 C0.593237751,7.65205383 0.66996354,7.73873816 0.66996354,7.97863199 C0.66996354,8.21902981 0.593237751,8.39491835 0.464839492,8.4669873 C0.335919289,8.53905624 0.258149612,8.44834009 0.258149612,8.20794228" id="Fill-24" fill="#FFFFFF"></path>
                                            <polygon id="Fill-26" fill="#000000" points="2.13472063 6.61298391 2.13472063 7.76695625 1.38146048 8.1888224 1.38146048 8.08775554 2.04457808 7.71617141 2.04457808 6.66427157"></polygon>
                                            <polygon id="Fill-28" fill="#121214" points="2.04462989 6.66402016 2.04462989 7.71642283 1.38151228 8.08750413 1.38151228 7.03510146"></polygon>
                                            <path d="M1.50838533,7.49504442 C1.50838533,7.2546466 1.58563306,7.08228591 1.71455327,7.01072094 C1.84295152,6.938652 1.92019926,7.02533632 1.92019926,7.26573413 C1.92019926,7.50562797 1.84295152,7.68151651 1.71455327,7.75408944 C1.58563306,7.82515043 1.50838533,7.73493825 1.50838533,7.49504442 M1.8403418,7.31058823 C1.8403418,7.09992516 1.78971322,7.04297557 1.71455327,7.08430182 C1.63939331,7.12714001 1.58876473,7.23952725 1.58876473,7.44968634 C1.58876473,7.65984543 1.63939331,7.72133083 1.71455327,7.67899662 C1.78971322,7.63767037 1.8403418,7.52074733 1.8403418,7.31058823" id="Fill-30" fill="#FFFFFF"></path>
                                            <polygon id="Fill-32" fill="#000000" points="3.40857991 5.89998488 3.40857991 7.0534544 2.65428364 7.47532054 2.65428364 7.37425368 3.31740124 7.00216674 3.31740124 5.94976408"></polygon>
                                            <polygon id="Fill-34" fill="#121214" points="3.31755666 5.94956295 3.31755666 7.00246843 2.65443905 7.37405256 2.65443905 6.32215271"></polygon>
                                            <path d="M2.78177836,6.78108855 C2.78177836,6.54119471 2.85902609,6.36984198 2.98846824,6.29726905 C3.11582261,6.22570408 3.19359229,6.31138045 3.19359229,6.55177827 C3.19359229,6.7916721 3.11582261,6.96907258 2.98846824,7.03962959 C2.85902609,7.11169854 2.78177836,7.02148636 2.78177836,6.78108855 M3.11321289,6.59663236 C3.11321289,6.38748123 3.06154042,6.32952368 2.98846824,6.37185789 C2.91278634,6.41318414 2.86111387,6.52708331 2.86111387,6.73573047 C2.86111387,6.94639354 2.91278634,7.00787894 2.98846824,6.96604871 C3.06154042,6.92421848 3.11321289,6.80679146 3.11321289,6.59663236" id="Fill-36" fill="#FFFFFF"></path>
                                            <polygon id="Fill-38" fill="#000000" points="4.68098863 5.18653331 4.68098863 6.33950001 3.92721041 6.76287461 3.92721041 6.66080211 4.59084608 6.28921799 4.59084608 5.23731815"></polygon>
                                            <polygon id="Fill-40" fill="#121214" points="4.59094969 5.23711702 4.59094969 6.28951968 3.92731402 6.66060098 3.92731402 5.60819832"></polygon>
                                            <path d="M4.05517138,6.06859453 C4.05517138,5.82819671 4.13241912,5.65533204 4.26133932,5.58376707 C4.38869369,5.5122021 4.46594143,5.59838245 4.46594143,5.83777231 C4.46594143,6.0786741 4.38869369,6.2555706 4.26133932,6.32612761 C4.13241912,6.39819656 4.05517138,6.30848836 4.05517138,6.06859453 M4.38504008,5.88313039 C4.38504008,5.67347527 4.33545539,5.61702966 4.26133932,5.65785193 C4.18617936,5.70018614 4.13502884,5.81257338 4.13502884,6.02273247 C4.13502884,6.23289156 4.18617936,6.29437696 4.26133932,6.25204275 C4.33545539,6.2107165 4.38504008,6.09379346 4.38504008,5.88313039" id="Fill-42" fill="#FFFFFF"></path>
                                            <polygon id="Fill-44" fill="#000000" points="5.95438165 4.4720761 5.95438165 5.62705408 5.20060344 6.04942304 5.20060344 5.94735054 5.86320298 5.5752636 5.86320298 4.52336375"></polygon>
                                            <polygon id="Fill-46" fill="#121214" points="5.86330659 4.52361517 5.86330659 5.57551501 5.20070705 5.94709913 5.20070705 4.89519929"></polygon>
                                            <path d="M5.32804635,5.35463928 C5.32804635,5.11424147 5.40529409,4.94238475 5.53421429,4.87031581 C5.66261255,4.79824686 5.73933834,4.88543517 5.73933834,5.125329 C5.73933834,5.36471885 5.66261255,5.54161536 5.53421429,5.61318033 C5.40529409,5.68474529 5.32804635,5.59503709 5.32804635,5.35463928 M5.65895894,5.17068708 C5.65895894,4.96052798 5.6088523,4.90307442 5.53421429,4.94440067 C5.45957628,4.98673487 5.40790381,5.09962609 5.40790381,5.3092812 C5.40790381,5.5194403 5.45957628,5.58092569 5.53421429,5.53909546 C5.6088523,5.49726524 5.65895894,5.37983821 5.65895894,5.17068708" id="Fill-48" fill="#FFFFFF"></path>
                                            <polygon id="Fill-50" fill="#000000" points="7.22829274 3.75957988 7.22829274 4.9130494 6.4734784 5.33592119 6.4734784 5.23435151 7.13659601 4.86176174 7.13659601 3.81086754"></polygon>
                                            <polygon id="Fill-52" fill="#121214" points="7.13669962 3.81061613 7.13669962 4.86201315 6.47358202 5.2341001 6.47358202 4.18220025"></polygon>
                                            <path d="M6.9560351,4.45612787 C6.9560351,4.24596878 6.90540652,4.18901919 6.83129045,4.23084942 C6.75560855,4.27267965 6.70550192,4.38557086 6.70550192,4.59572996 C6.70550192,4.80538507 6.75560855,4.86737445 6.83129045,4.82504024 C6.90540652,4.78371399 6.9560351,4.66578299 6.9560351,4.45612787 M6.62407863,4.64108804 C6.62407863,4.4011942 6.70237025,4.22782555 6.83129045,4.1557566 C6.95916677,4.08519959 7.03589256,4.17087596 7.03589256,4.41127377 C7.03589256,4.65167159 6.95916677,4.82806411 6.83129045,4.8991251 C6.70237025,4.97069007 6.62407863,4.88148585 6.62407863,4.64108804" id="Fill-54" fill="#FFFFFF"></path>
                                            <polygon id="Fill-56" fill="#9C251F" points="8.31451046 3.14970927 8.31451046 4.30418443 7.56073225 4.72705622 7.56073225 4.62498372 8.22436791 4.25289677 8.22436791 3.20149975"></polygon>
                                            <polygon id="Fill-58" fill="#FF3F4A" points="8.22441972 3.20124834 8.22441972 4.25314818 7.56078405 4.62473231 7.56078405 3.57232964"></polygon>
                                            <path d="M8.042767,3.8472131 C8.042767,3.63655003 7.99266037,3.57960045 7.91802235,3.62143067 C7.84234045,3.6632609 7.79275576,3.77615212 7.79275576,3.98681519 C7.79275576,4.1964703 7.84234045,4.25845968 7.91802235,4.21612547 C7.99266037,4.17479922 8.042767,4.05686822 8.042767,3.8472131 M7.71133247,4.03166929 C7.71133247,3.79177545 7.78962409,3.61891078 7.91802235,3.54684183 C8.04642061,3.47578085 8.1231464,3.56196119 8.1231464,3.80185503 C8.1231464,4.04225284 8.04642061,4.21864536 7.91802235,4.29021033 C7.78962409,4.3617753 7.71133247,4.2720671 7.71133247,4.03166929" id="Fill-60" fill="#FFFFFF"></path>
                                            <polygon id="Fill-62" fill="#FFFFFF" points="2.21108277 5.8238579 0 7.06330968 0 5.711729 2.21056471 4.47227722"></polygon>
                                            <polygon id="Fill-64" fill="#3576AB" points="2.02540984 5.70604713 1.40114678 6.05550716 1.40166484 5.19467899 2.02540984 4.8462246"></polygon>
                                            <polygon id="Fill-66" fill="#E31B25" points="1.22811453 6.15240062 0.199246118 6.72812974 0.199246118 5.86881003 1.22863259 5.29207527"></polygon>
                                            <path d="M10.9604533,0.268800976 C10.9604533,0.508646208 10.7853488,0.80128756 10.5719079,0.920958766 C10.4066465,1.0139805 10.265216,0.977274628 10.2087474,0.845535737 C10.2527825,0.840004715 10.299408,0.823914469 10.3486237,0.796762178 C10.5631008,0.676588152 10.7376873,0.3839468 10.7376873,0.144101568 C10.7376873,0.0892941672 10.7283622,0.0415262489 10.7107481,0.00230627385 C10.8563231,-0.0168008935 10.9604533,0.0837631451 10.9604533,0.268800976" id="Fill-68" fill="#939598"></path>
                                            <path d="M10.7378427,0.144101568 C10.7378427,0.3839468 10.5632562,0.676588152 10.3487791,0.796762178 C10.2990453,0.823914469 10.2529379,0.840004715 10.2089028,0.845535737 C10.1918068,0.806315762 10.1835178,0.759050664 10.1835178,0.703740443 C10.1835178,0.46288957 10.3575862,0.171756679 10.5720633,0.0505770124 C10.6202429,0.0229219018 10.6673864,0.00783729597 10.7103855,0.00230627385 C10.7285176,0.0415262489 10.7378427,0.0892941672 10.7378427,0.144101568" id="Fill-70" fill="#3DE3D2"></path>
                                        </g>
                                    </g>
                                </g>
                            </g>
                        </g>
                    </g>
                </g>
            </g>
        </g>
    </g>
</svg>