<?xml version="1.0" encoding="UTF-8"?>
<svg width="40px" height="40px" viewBox="0 0 40 40" version="1.1" xmlns="http://www.w3.org/2000/svg" xmlns:xlink="http://www.w3.org/1999/xlink">
    <title>icon_除湿机</title>
    <defs>
        <linearGradient x1="50%" y1="0%" x2="50%" y2="100%" id="linearGradient-1">
            <stop stop-color="#CDCDCD" offset="0%"></stop>
            <stop stop-color="#A6A6A6" offset="100%"></stop>
        </linearGradient>
        <polygon id="path-2" points="0 9.85823703 4.38744443e-13 36.6853658 16.4941315 26.8220995 16.4941315 0"></polygon>
    </defs>
    <g id="上位机" stroke="none" stroke-width="1" fill="none" fill-rule="evenodd">
        <g id="1_3.工商储风液冷上位机_首页" transform="translate(-518.000000, -713.000000)">
            <g id="main" transform="translate(212.000000, 102.000000)">
                <g id="2" transform="translate(24.000000, 278.000000)">
                    <g id="能流图2" transform="translate(92.000000, 48.000000)">
                        <g id="编组-15" transform="translate(166.000000, 285.000000)">
                            <g id="icon_除湿机" transform="translate(24.000000, 0.000000)">
                                <rect id="矩形" fill="#FFFFFF" fill-rule="nonzero" x="0" y="0" width="40" height="40"></rect>
                                <g id="除湿机" transform="translate(9.000000, 0.000000)">
                                    <polygon id="Fill-3" fill="url(#linearGradient-1)" points="5.51509621 40 0.0157033003 36.7024654 0.0165127488 9.87785124 5.51590566 13.1737094"></polygon>
                                    <g id="编组" transform="translate(5.505788, 3.312622)">
                                        <mask id="mask-3" fill="white">
                                            <use xlink:href="#path-2"></use>
                                        </mask>
                                        <g id="Clip-5"></g>
                                        <polygon id="Fill-4" fill="#DEDEDE" mask="url(#mask-3)" points="0 9.85823703 4.38744443e-13 36.6853658 16.4941315 26.8220995 16.4941315 0"></polygon>
                                    </g>
                                    <polygon id="Fill-6" fill="#EFEFEF" points="16.4949409 0 0 9.86326631 5.5058685 13.1616391 22 3.30088746"></polygon>
                                    <g id="编组" transform="translate(7.492903, 6.265400)">
                                        <polygon id="Fill-7" fill="#3D4C4C" points="0 12.9755556 13.1041613 5.14914974 13.0984952 0 0 7.81634727"></polygon>
                                        <polygon id="Fill-9" fill="#495A5A" points="12.8223113 5.25476472 12.812598 0.474429229 0.465270981 7.84568477"></polygon>
                                        <path d="M0.757097391,8.48953143 C0.757097391,8.79156898 0.942735085,9.14660677 1.17164643,9.28198089 C1.39993062,9.41735501 1.58556832,9.28261945 1.58556832,8.97994335 C1.58556832,8.67726724 1.39993062,8.32286801 1.17164643,8.18749389 C0.942735085,8.05148121 0.757097391,8.18685533 0.757097391,8.48953143" id="Fill-24" fill="#22AC50" transform="translate(1.171333, 8.734600) scale(-1, 1) translate(-1.171333, -8.734600) "></path>
                                        <path d="M0.757097391,10.8895314 C0.757097391,11.191569 0.942735085,11.5466068 1.17164643,11.6819809 C1.39993062,11.817355 1.58556832,11.6826194 1.58556832,11.3799433 C1.58556832,11.0772672 1.39993062,10.722868 1.17164643,10.5874939 C0.942735085,10.4514812 0.757097391,10.5868553 0.757097391,10.8895314" id="Fill-24备份" fill="#22AC50" transform="translate(1.171333, 11.134600) scale(-1, 1) translate(-1.171333, -11.134600) "></path>
                                        <g id="24.0" transform="translate(2.721383, 5.174600)" fill="#FA6666" fill-rule="nonzero">
                                            <path d="M1.13894699,2.80384926 L0.900045917,2.78098735 L0.900045917,2.13432206 L1.01949646,1.92366594 L1.13894699,1.99388465 L1.13894699,2.80384926 Z M0.983383502,1.89917105 L0.861155044,2.10819417 L9.09494702e-13,2.61442205 L0.280569869,2.16861492 L0.861155044,1.82731935 L0.983383502,1.89917105 Z M1.08616652,2.87080198 L0.861155044,3.13371388 L0.280569869,3.47500945 L0.05555839,3.47664244 L0.280569869,3.19086864 L0.861155044,2.84957307 L1.08616652,2.87080198 Z M1.13894699,4.01553018 L0.280569869,4.52012507 L0.158341411,4.44827337 L0.280569869,4.23925025 L0.911157595,3.8685608 L1.13894699,4.01553018 Z M0.238901077,4.21475535 L0.119450538,4.42541147 L-2.27429187e-13,4.35519276 L-2.27373675e-13,3.54522815 L0.238901077,3.54522815 L0.238901077,4.21475535 Z" id="形状"></path>
                                            <path d="M2.51401715,1.99551764 L2.27511607,1.97265574 L2.27511607,1.27700065 L2.51401715,0.855688417 L2.51401715,1.99551764 Z M1.61397123,2.36130811 L1.37507015,2.66504484 L1.37507015,1.52521561 L1.61397123,1.66565303 L1.61397123,2.36130811 Z M2.46123667,2.06247036 L2.2362252,2.32538226 L1.65564002,2.66667783 L1.43062854,2.66831083 L1.65564002,2.38253702 L2.2362252,2.04124145 L2.46123667,2.06247036 Z M2.51401715,3.20719857 L2.27511607,3.06676116 L2.27511607,2.34824417 L2.51401715,2.06736934 L2.51401715,3.20719857 Z" id="形状"></path>
                                            <polygon id="路径" points="2.93070507 2.9622496 2.69180399 3.10268701 2.69180399 2.59645913 2.93070507 2.45602172"></polygon>
                                            <path d="M4.24743891,0.976529911 L4.00853783,0.953668007 L4.00853783,0.307002714 L4.12798837,0.0963465965 L4.24743891,0.166565303 L4.24743891,0.976529911 Z M4.09187542,0.0718516991 L3.96964696,0.280874824 L3.38906179,0.622170395 L3.26683333,0.556850668 L3.38906179,0.341295571 L3.96964696,1.29202204e-14 L4.09187542,0.0718516991 Z M4.24743891,1.85834622 L4.12798837,2.06900234 L4.00853783,1.99878363 L4.00853783,1.32925643 L4.24743891,1.04838161 L4.24743891,1.85834622 Z M3.34739299,1.34232038 L3.10849192,1.64605711 L3.10849192,0.836092499 L3.22794246,0.625436381 L3.34739299,0.695655087 L3.34739299,1.34232038 Z M3.34739299,2.387436 L3.22794246,2.59809212 L3.10849192,2.52787341 L3.10849192,1.71790881 L3.34739299,1.71790881 L3.34739299,2.387436 Z M4.09187542,2.13595506 L3.96964696,2.35151015 L3.38906179,2.69280572 L3.26683333,2.62095402 L3.38906179,2.4119309 L3.96964696,2.07063533 L4.09187542,2.13595506 Z" id="形状"></path>
                                        </g>
                                        <g id="45.0" transform="translate(7.828526, 2.214600)" fill="#FA6666" fill-rule="nonzero">
                                            <path d="M1.13894699,2.80384926 L0.900045917,2.78098735 L0.900045917,2.08533227 L1.13894699,1.66402003 L1.13894699,2.80384926 Z M0.238901077,3.16963973 L-2.27651231e-13,3.47337646 L-2.27318164e-13,2.33354723 L0.238901077,2.47398464 L0.238901077,3.16963973 Z M1.08616652,2.87080198 L0.861155044,3.13371388 L0.280569869,3.47500945 L0.05555839,3.47664244 L0.280569869,3.19086864 L0.861155044,2.84957307 L1.08616652,2.87080198 Z M1.13894699,4.01553019 L0.900045917,3.87509277 L0.900045917,3.15657578 L1.13894699,2.87570096 L1.13894699,4.01553019 Z" id="形状"></path>
                                            <path d="M2.46401459,0.885082294 L2.2362252,1.29986256 L1.65564002,1.64115813 L1.53341156,1.5758384 L1.65564002,1.3602833 L2.46401459,0.885082294 Z M2.51401715,2.87733395 L2.39456661,3.08799007 L2.27511607,3.01777136 L2.27511607,2.34824417 L2.51401715,2.06736934 L2.51401715,2.87733395 Z M2.46123667,2.06247036 L2.2362252,2.32538226 L1.65564002,2.66667783 L1.43062854,2.66831083 L1.65564002,2.38253702 L2.2362252,2.04124145 L2.46123667,2.06247036 Z M1.61397123,2.36130811 L1.37507015,2.66504484 L1.37507015,1.85508023 L1.49452069,1.64442411 L1.61397123,1.71464282 L1.61397123,2.36130811 Z M2.35845365,3.15494279 L2.2362252,3.37049789 L1.37507015,3.87672577 L1.60563747,3.46031251 L2.2362252,3.08962306 L2.35845365,3.15494279 Z" id="形状"></path>
                                            <polygon id="路径" points="2.93070507 2.9622496 2.69180399 3.10268701 2.69180399 2.59645913 2.93070507 2.45602172"></polygon>
                                            <path d="M4.24743891,0.976529911 L4.00853783,0.953668007 L4.00853783,0.307002714 L4.12798837,0.0963465965 L4.24743891,0.166565303 L4.24743891,0.976529911 Z M4.09187542,0.0718516991 L3.96964696,0.280874824 L3.38906179,0.622170395 L3.26683333,0.556850668 L3.38906179,0.341295571 L3.96964696,-1.27675648e-15 L4.09187542,0.0718516991 Z M4.24743891,1.85834622 L4.12798837,2.06900234 L4.00853783,1.99878363 L4.00853783,1.32925643 L4.24743891,1.04838161 L4.24743891,1.85834622 Z M3.34739299,1.34232038 L3.10849192,1.64605711 L3.10849192,0.836092499 L3.22794246,0.625436381 L3.34739299,0.695655087 L3.34739299,1.34232038 Z M3.34739299,2.387436 L3.22794246,2.59809212 L3.10849192,2.52787341 L3.10849192,1.71790881 L3.34739299,1.71790881 L3.34739299,2.387436 Z M4.09187542,2.13595506 L3.96964696,2.35151015 L3.38906179,2.69280572 L3.26683333,2.62095402 L3.38906179,2.4119309 L3.96964696,2.07063533 L4.09187542,2.13595506 Z" id="形状"></path>
                                        </g>
                                    </g>
                                    <g id="编组-18" transform="translate(13.750000, 24.800000) scale(-1, 1) translate(-13.750000, -24.800000) translate(7.857143, 16.800000)">
                                        <path d="M10.1052862,15.6040075 C7.82912021,16.9727758 4.09864307,14.6793545 1.77174528,10.4790568 C-0.554025147,6.27993403 -0.595737947,1.76476088 1.68042807,0.395992535 C3.95659408,-0.972775805 7.68707121,1.32064548 10.013969,5.52094318 C12.3397394,9.72006597 12.3814522,14.2352391 10.1052862,15.6040075" id="Fill-16" fill="#CBCDD1"></path>
                                        <path d="M5.30966711,8.80892447 L5.30853974,8.81009937 C5.27697329,8.827723 5.28261016,8.8970426 5.31868609,8.95461311 C5.6309684,9.44807466 6.0480964,9.73592723 6.35699659,9.67248217 C6.39307253,9.66543272 6.39870939,9.60316258 6.36714295,9.54206734 L6.36601558,9.53971752 C6.34121337,9.49154627 6.30288269,9.46217356 6.27469837,9.4680481 C6.01427521,9.52091898 5.66366222,9.27771294 5.40211169,8.86297025 C5.37279999,8.81832373 5.33446931,8.79482556 5.30966711,8.80892447 M6.46747914,9.48214701 L6.46860652,9.48449682 C6.49904559,9.54559206 6.55090474,9.57496477 6.57683432,9.54676697 C6.79554467,9.30356092 6.79667205,8.7725023 6.57908907,8.22382006 C6.55315949,8.15920009 6.5024277,8.11690339 6.47086126,8.13570193 L6.46973389,8.13570193 C6.44493168,8.14980083 6.44154956,8.19797207 6.46184228,8.24849314 C6.64560407,8.71023216 6.6444767,9.15669737 6.4607149,9.36113144 C6.44042219,9.3834547 6.44267694,9.43397576 6.46747914,9.48214701 M5.20256668,7.25334568 L5.2014393,7.25099587 C5.16987286,7.18872572 5.11801371,7.1581781 5.09208413,7.18755081 C4.8722464,7.43428158 4.87562852,7.97121474 5.09772099,8.5222468 C5.12365057,8.58569186 5.17550973,8.62798856 5.20707617,8.61036494 L5.20820354,8.60919003 C5.23187837,8.59509113 5.23526049,8.54809479 5.21496778,8.49757373 C5.02782387,8.0346598 5.0266965,7.58349496 5.21045829,7.37671107 C5.230751,7.35438781 5.22736888,7.30269184 5.20256668,7.25334568 M6.36827032,7.93596749 L6.36939769,7.93479258 C6.40096414,7.91716895 6.39645465,7.84667445 6.35925134,7.78910393 C6.0480964,7.28859294 5.62645891,6.99486582 5.31304923,7.05831088 C5.27697329,7.06536033 5.2724638,7.1299803 5.30403024,7.19225044 L5.30515762,7.19342535 C5.32995982,7.24277151 5.3682905,7.27331913 5.3976022,7.26744458 C5.6602801,7.2145737 6.01427521,7.46130448 6.27582574,7.88074679 C6.30513744,7.92656822 6.34346812,7.95006639 6.36827032,7.93596749 M4.84631682,9.19194462 L4.84406208,9.19311953 C4.78543868,9.22719187 4.79558504,9.3564318 4.86435479,9.46452338 C5.44946136,10.3856516 6.22960345,10.9214099 6.80794578,10.803919 C6.87558815,10.790995 6.88573451,10.6746791 6.82823849,10.560713 L6.82598374,10.5571882 C6.78088883,10.4690701 6.70986433,10.4114996 6.65800517,10.4220738 C6.16872531,10.521941 5.5103395,10.0684263 5.01655014,9.28946202 C4.96356361,9.20604352 4.89141174,9.16492172 4.84631682,9.19194462 M7.0153824,10.4479217 L7.01763715,10.4514465 C7.07513317,10.5665875 7.17095987,10.6206333 7.21943691,10.5677624 C7.62980067,10.1154227 7.63543753,9.12262502 7.23071064,8.09340522 C7.18336097,7.97238965 7.0864069,7.89249588 7.02665613,7.92656822 L7.02440139,7.92774313 C6.97930647,7.95359112 6.97141486,8.04053434 7.00861816,8.13452702 C7.35246692,9.00278436 7.34795743,9.8428439 7.00072655,10.2235142 C6.96352325,10.264636 6.97028748,10.3598036 7.0153824,10.4479217 M4.6388802,6.26054805 L4.63775282,6.25584841 C4.57687468,6.13718266 4.47766586,6.08078705 4.42918882,6.13600775 C4.01769769,6.6024464 4.0255893,7.61639239 4.44609942,8.65266164 C4.49457646,8.7725023 4.5926579,8.85239608 4.65240867,8.81832373 L4.65353604,8.81714882 C4.69975834,8.79130084 4.7053952,8.70435761 4.66819189,8.61153985 C4.31306941,7.73858287 4.30743254,6.88324952 4.65579079,6.49200501 C4.69412147,6.44970831 4.68622986,6.351016 4.6388802,6.26054805 M6.83500273,7.55059752 L6.83725747,7.54942261 C6.89588087,7.51417536 6.88686188,7.38258561 6.81921951,7.27331913 C6.23298557,6.32869274 5.43818763,5.77061122 4.84744419,5.89162679 C4.77867444,5.90572569 4.76852809,6.02556636 4.82940623,6.14423211 L4.83166097,6.14775683 C4.87788326,6.23939969 4.95116251,6.29932002 5.00414904,6.28874585 C5.50132051,6.1853539 6.17098005,6.65531728 6.66476941,7.4507303 C6.71775594,7.53532371 6.78990781,7.57644551 6.83500273,7.55059752 M3.96245642,9.92038786 L3.9590743,9.92273767 C3.84859175,9.98735764 3.86775709,10.2317386 3.99853235,10.4338228 C5.10673998,12.1597634 6.5734522,13.1584355 7.66023974,12.9375527 C7.78763288,12.9117048 7.80567085,12.6966965 7.69744304,12.4840381 L7.69406093,12.4769886 C7.61063533,12.3125015 7.47760532,12.2044099 7.37952387,12.2243833 C6.4607149,12.4135436 5.21947727,11.5664346 4.28601246,10.1048485 C4.18454889,9.94741075 4.04813676,9.8710417 3.96245642,9.92038786 M8.05031078,12.2737295 L8.0536929,12.2807789 C8.16192071,12.4934374 8.34117301,12.5944795 8.43136284,12.4969621 C9.20812282,11.651028 9.23179765,9.7876232 8.47533039,7.84197481 C8.3873953,7.61286767 8.20363351,7.46130448 8.09202358,7.52592444 L8.08864146,7.52827426 C8.00183375,7.57879532 7.9871779,7.74445741 8.05594765,7.92069368 C8.69742286,9.56321569 8.68163964,11.1399428 8.0243812,11.8554621 C7.95448408,11.9306562 7.96688518,12.1092423 8.05031078,12.2737295 M3.54758317,4.33722292 L3.54420105,4.33017347 C3.42808163,4.10106632 3.23868298,3.99179984 3.14736577,4.09636669 C2.36271418,4.99399674 2.39089851,6.9361204 3.20147967,8.90409205 C3.29505162,9.13084938 3.48106816,9.28123766 3.59267809,9.2166177 L3.59606021,9.21426788 C3.68174055,9.16492172 3.69414165,9.00043454 3.62198978,8.82537318 C2.93992914,7.16640246 2.91963643,5.53327972 3.58253173,4.78251322 C3.65355623,4.70261945 3.637773,4.51345919 3.54758317,4.33722292 M7.73126423,6.8104052 L7.73464635,6.80805538 C7.84738365,6.74343542 7.83160043,6.49200501 7.70307991,6.28404621 C6.5903628,4.4735123 5.07291879,3.39612125 3.9421637,3.62757822 C3.81026107,3.65460111 3.79447785,3.88488317 3.91059726,4.11399031 L3.91397938,4.12103976 C4.00304184,4.29727603 4.14283609,4.41359197 4.24429966,4.39244362 C5.19467507,4.1962339 6.47198863,5.0997385 7.40883557,6.62124494 C7.50804439,6.7822074 7.64445652,6.86092626 7.73126423,6.8104052 M3.01208101,10.7052267 L3.00644415,10.7075765 C2.84072032,10.8050939 2.87115939,11.1704904 3.06732229,11.4747917 C4.74034376,14.0525409 6.93759367,15.5305757 8.56439285,15.2004264 C8.75379151,15.1628293 8.78310321,14.8432542 8.62301625,14.5283788 L8.61737938,14.5178046 C8.49111361,14.2710738 8.29044122,14.114811 8.14050062,14.1453586 C6.76623298,14.422637 4.91283183,13.1690097 3.50587037,10.9907295 C3.35142027,10.7510481 3.14285627,10.6288576 3.01208101,10.7052267 M9.15175417,14.2146782 L9.15626366,14.2252524 C9.31635062,14.5401279 9.58466539,14.6916911 9.71995014,14.5460024 C10.8890359,13.2865006 10.9431498,10.5019675 9.82254108,7.56939605 C9.68951107,7.22397297 9.41443207,6.99486582 9.24532612,7.09355813 L9.23968926,7.09590795 C9.10665925,7.17345191 9.08749391,7.42958195 9.19233959,7.7009858 C10.1415876,10.1682935 10.1032569,12.5204602 9.12018772,13.5872771 C9.01308729,13.7035931 9.0254884,13.9667725 9.15175417,14.2146782 M2.34805833,2.22238772 L2.34242147,2.21063863 C2.16316917,1.86051591 1.87343432,1.69015419 1.73476744,1.84994174 C0.545388967,3.22575953 0.608521853,6.19357826 1.85652372,9.17667081 C1.99970009,9.51856917 2.28154333,9.74297668 2.44839453,9.64545928 L2.45403139,9.64310946 C2.58480666,9.56674041 2.59720776,9.3141351 2.48559784,9.04508106 C1.44615996,6.54135116 1.40219242,4.06111943 2.39879012,2.91088406 C2.5081453,2.78516886 2.48785258,2.49614138 2.34805833,2.22238772 M8.21152512,5.70951598 C6.79779942,3.39729616 4.86097267,2.01325401 3.4168079,2.30815603 C3.26010306,2.33987856 3.04477483,2.16599211 2.90498058,1.89106353 L2.89934371,1.87931445 C2.72121879,1.52801682 2.74376624,1.17201956 2.94443863,1.13089777 C4.66931927,0.777250326 6.98381596,2.43857087 8.66585642,5.20783008 C8.8586372,5.52505536 8.88005728,5.90455079 8.70982397,6.004418 L8.7041871,6.00794273 C8.57115709,6.08548669 8.36372047,5.95859657 8.21152512,5.70951598" id="Fill-18" fill="#474747"></path>
                                        <path d="M3.963922,7.16828231 C3.963922,8.57347281 4.80606961,10.2230443 5.84438011,10.8527952 C6.88381798,11.4825461 7.72596558,10.8527952 7.72596558,9.4476047 C7.72596558,8.04241419 6.88381798,6.39284274 5.84438011,5.76309181 C4.80606961,5.13334088 3.963922,5.76309181 3.963922,7.16828231" id="Fill-20" fill="#939799"></path>
                                        <path d="M4.92692399,7.26027764 C4.92692399,8.14850843 5.45904403,9.19065222 6.11517509,9.58777127 C6.77130616,9.98489033 7.30342619,9.58777127 7.30342619,8.7007154 C7.30342619,7.81248461 6.77130616,6.77034082 6.11517509,6.37322177 C5.45904403,5.9749278 4.92692399,6.37322177 4.92692399,7.26027764" id="Fill-22" fill="#474747"></path>
                                        <path d="M5.21057103,7.66233131 C5.21057103,8.21806301 5.54427342,8.8713121 5.95576455,9.12039269 C6.36612831,9.36947329 6.69983071,9.1215676 6.69983071,8.564661 C6.69983071,8.0077544 6.36612831,7.35568021 5.95576455,7.10659962 C5.54427342,6.85634412 5.21057103,7.10542471 5.21057103,7.66233131" id="Fill-24" fill="#DEDEDE"></path>
                                    </g>
                                    <polygon id="Fill-11" fill="#22201E" points="20.549954 11.3732253 20.3605431 11.4897371 20.3378785 6.80328161 19.9558188 7.02037908 19.9558188 7.03965801 7.53887928 14.4327071 7.53887928 14.1141857 20.1840833 6.56271414 20.2043195 6.56271414 20.5321461 6.36070452"></polygon>
                                </g>
                            </g>
                        </g>
                    </g>
                </g>
            </g>
        </g>
    </g>
</svg>