<?xml version="1.0" encoding="UTF-8"?>
<svg width="40px" height="40px" viewBox="0 0 40 40" version="1.1" xmlns="http://www.w3.org/2000/svg" xmlns:xlink="http://www.w3.org/1999/xlink">
    <title>icon_灯板</title>
    <defs>
        <linearGradient x1="50%" y1="0%" x2="50%" y2="100%" id="linearGradient-1">
            <stop stop-color="#CDCDCD" offset="0%"></stop>
            <stop stop-color="#A6A6A6" offset="100%"></stop>
        </linearGradient>
        <linearGradient x1="25.6684282%" y1="46.1481192%" x2="85.4642932%" y2="73.3678147%" id="linearGradient-2">
            <stop stop-color="#D7D7D7" offset="0%"></stop>
            <stop stop-color="#BEBEBE" offset="100%"></stop>
        </linearGradient>
    </defs>
    <g id="上位机" stroke="none" stroke-width="1" fill="none" fill-rule="evenodd">
        <g id="1_1.光储一体机上位机_首页" transform="translate(-684.000000, -524.000000)">
            <g id="main" transform="translate(212.000000, 102.000000)">
                <g id="2" transform="translate(24.000000, 278.000000)">
                    <g id="能流图1" transform="translate(92.000000, 50.000000)">
                        <g id="icon_灯板" transform="translate(356.000000, 94.000000)">
                            <rect id="矩形" fill-rule="nonzero" x="0" y="0" width="40" height="40"></rect>
                            <g id="灯板" transform="translate(6.000000, 0.000000)">
                                <polygon id="Fill-1" fill="url(#linearGradient-1)" points="0.000122893073 38.9568445 1.82324162 39.9999391 1.82324162 16.5820395 0.000122893073 15.5395535"></polygon>
                                <polygon id="Fill-2" fill="url(#linearGradient-2)" points="1.82342596 16.5821003 1.82342596 40 29 24.4600814 29 1.04218174"></polygon>
                                <polygon id="Fill-3" fill="#EFEFEF" points="27.176574 0 0 15.5399186 1.82373319 16.5817961 28.9996928 1.04248602"></polygon>
                                <g id="编组" transform="translate(4.917566, 3.796706)">
                                    <path d="M2.86426884,28.4582252 L2.70819464,28.3681564 C2.64121791,28.3298163 2.54966257,28.3352934 2.44889025,28.3931079 L1.65991673,28.8440607 C1.45591423,28.9602982 1.29185198,29.2420676 1.29246472,29.473934 L1.2949243,30.3715796 C1.29553877,30.4872086 1.33670795,30.5681488 1.40245574,30.6058803 L1.55914441,30.6959492 C1.53763812,30.6837777 1.52411988,30.6600434 1.50814378,30.6387433 C1.57266265,30.7257693 1.68572427,30.7476779 1.82152112,30.6703891 L2.61049464,30.2194363 C2.81142482,30.104416 2.97548707,29.8226465 2.97487432,29.5907801 L2.97241474,28.6931345 C2.97180028,28.5775056 2.9306311,28.4959568 2.86426884,28.4582252 L2.86426884,28.4582252 Z M1.55054189,27.957978 C1.52903561,27.945198 1.5149029,27.9214636 1.4989268,27.9001636 C1.5628312,27.9877981 1.67712176,28.0103153 1.81353307,27.9324179 L2.60250659,27.4808566 C2.80343677,27.3658362 2.96749902,27.0846754 2.96688628,26.8558518 L2.96442669,25.9575977 C2.96442669,25.8419687 2.92264305,25.7610285 2.85628079,25.7232969 C2.85689525,25.7232969 2.70020659,25.6326195 2.70020659,25.6326195 C2.63384433,25.5942794 2.54167452,25.5997566 2.4409022,25.657571 L1.65192868,26.1085238 C1.44792618,26.2253699 1.28386393,26.5065308 1.28447667,26.7383972 L1.28755072,27.6366513 C1.28755072,27.749846 1.32810543,27.8295691 1.39385323,27.8679092 L1.55054189,27.957978 Z M1.54316831,25.2224411 C1.52166202,25.2096611 1.50691485,25.1853182 1.49093875,25.1640181 C1.55545762,25.2522612 1.66913371,25.2747784 1.80554502,25.1968811 L2.59451855,24.7459283 C2.79606318,24.6309079 2.96012544,24.3491385 2.95951269,24.1172721 L2.95643864,23.2196265 C2.95643864,23.1039976 2.914655,23.0224487 2.84890721,22.9847172 L2.69221854,22.8946484 C2.62585628,22.8563082 2.53368647,22.8617854 2.43291415,22.9189913 L1.64394063,23.3705527 C1.4405526,23.4867902 1.27649034,23.7685596 1.27710309,24.000426 L1.27956267,24.8980716 C1.27956267,25.0137005 1.32073185,25.0946408 1.38709411,25.1323723 L1.54316831,25.2224411 Z M5.93905351,26.7000571 C5.93966798,26.7000571 5.78297931,26.6099882 5.78297931,26.6099882 C5.71661705,26.5716481 5.62444725,26.5771253 5.52367493,26.6343311 L4.7347014,27.0858925 C4.5306989,27.20213 4.36663665,27.4838994 4.36724939,27.7157659 L4.37032344,28.6134114 C4.37032344,28.7284318 4.41149262,28.809372 4.47724041,28.8477121 L4.63392908,28.937781 C4.61242279,28.9256095 4.59829009,28.9012666 4.58292846,28.8799665 C4.64683285,28.9676011 4.76050895,28.9901183 4.89630579,28.9122209 L5.68527932,28.4612681 C5.88620949,28.3462478 6.05027174,28.0644783 6.049659,27.8326119 L6.04719942,26.9349663 C6.04658495,26.8193374 6.00541577,26.7377886 5.93905351,26.7000571 L5.93905351,26.7000571 Z M4.4686379,26.109741 C4.40289011,26.0714009 4.36233539,25.9916778 4.36233539,25.8778746 L4.35987581,24.980229 C4.35926307,24.7483626 4.52332532,24.4672017 4.72671335,24.3503556 L5.51568688,23.8994028 C5.6164592,23.8415884 5.708629,23.8361112 5.77499126,23.8744513 L5.93167993,23.9645202 C5.99742772,24.0028603 6.03921137,24.0838005 6.03921137,24.1994295 L6.04167609,25.0976836 C6.04289816,25.3265072 5.87883591,25.607668 5.67729127,25.7226884 L4.88831774,26.1742497 C4.7525209,26.2515385 4.63823034,26.2296299 4.57432594,26.1419954 C4.58968758,26.1632954 4.60382028,26.1870298 4.62532657,26.1998098 L4.4686379,26.109741 Z M4.61856745,23.4642729 C4.59583223,23.4514929 4.58169953,23.42715 4.56572343,23.4046328 C4.62962782,23.494093 4.74391838,23.5166102 4.88032969,23.4387129 L5.66930322,22.9877601 C5.87084786,22.8727397 6.03491011,22.5909703 6.03429736,22.3591039 L6.03183778,21.4614583 C6.03122332,21.3452208 5.99005414,21.2642806 5.92369188,21.226549 L5.76700321,21.1364802 C5.70064095,21.09814 5.60908561,21.1036172 5.50769883,21.1608231 L4.7187253,21.6123845 C4.51533727,21.728622 4.35127502,22.0103914 4.35188776,22.2422578 L4.35434734,23.1399034 C4.35496181,23.2549237 4.39551652,23.335864 4.46187878,23.3742041 L4.61856745,23.4642729 Z M9.12198409,25.1767981 L9.12444367,26.0744437 C9.12505641,26.3063101 8.96099416,26.587471 8.76006399,26.7030999 L7.97109046,27.1540527 C7.83590808,27.2313415 7.72223199,27.2094329 7.65771313,27.1224069 C7.67368923,27.143707 7.68720747,27.1674413 7.70871375,27.1796128 L7.55202509,27.089544 C7.48627729,27.0512038 7.44510811,26.9702636 7.44510811,26.8552432 L7.44203407,25.9575977 C7.44142132,25.7257312 7.60548357,25.4439618 7.80948607,25.3277243 L8.5984596,24.8761629 C8.69923192,24.8189571 8.79140172,24.8134799 8.85776398,24.85182 L9.01445265,24.9418889 C9.08020044,24.9796204 9.12198409,25.0605606 9.12198409,25.1767981 L9.12198409,25.1767981 Z M7.7007257,24.4416416 C7.67860495,24.4288616 7.66447225,24.4051272 7.64849615,24.3832186 C7.71301501,24.4708531 7.8266911,24.4939789 7.96310241,24.415473 L8.75207594,23.9645202 C8.95362058,23.8494998 9.11768283,23.568339 9.11707008,23.3389069 L9.11399604,22.4412613 C9.11399604,22.3256323 9.07282686,22.2446921 9.0064646,22.206352 C9.0064646,22.206352 8.84977593,22.1162831 8.84977593,22.1162831 C8.78341367,22.077943 8.69124387,22.0834202 8.59047155,22.1412346 L7.80149802,22.5921874 C7.59810999,22.7090335 7.43404774,22.9901944 7.43466048,23.2220608 L7.43712006,24.1197064 C7.43712006,24.2335096 7.47828924,24.3132327 7.54403704,24.3509642 L7.7007257,24.4416416 Z M7.53666345,21.6160359 L7.69335212,21.7061048 C7.67184583,21.6939333 7.65771313,21.6701989 7.6423515,21.6488989 C7.70687036,21.7359248 7.81993199,21.7578335 7.95572883,21.6805447 L8.74470236,21.2295919 C8.94563253,21.1145715 9.10969478,20.8328021 9.10908204,20.6009357 L9.10662245,19.7032901 C9.10600799,19.5870526 9.06483881,19.5061124 8.99847655,19.4683808 C8.99847655,19.4683808 8.84240235,19.378312 8.84240235,19.378312 C8.77542562,19.3399719 8.68387028,19.3448404 8.58309796,19.4026549 L7.79412444,19.8542163 C7.59012194,19.9704538 7.42605969,20.2516146 7.42667243,20.483481 L7.42913201,21.3817352 C7.42913201,21.4395497 7.43957793,21.4882355 7.45801189,21.5277928 C7.47706031,21.56735 7.50348232,21.5971701 7.53666345,21.6160359 L7.53666345,21.6160359 Z M12.1967688,23.4186299 C12.1967688,23.3023925 12.1555996,23.2214522 12.0892373,23.1837207 C12.0886229,23.1831121 11.9325487,23.0936518 11.9325487,23.0936518 C11.8661864,23.0553117 11.7740166,23.0601803 11.6732443,23.1179948 L10.8842707,23.5689475 C10.6808827,23.6857936 10.5168205,23.9669545 10.5174332,24.1988209 L10.5198928,25.097075 C10.5198928,25.2120954 10.561062,25.2930356 10.6268098,25.3313758 L10.7834984,25.4214446 C10.7613777,25.4086646 10.7466305,25.3843216 10.7306544,25.3618044 C10.7945588,25.4512647 10.9094638,25.4737819 11.0458751,25.3958845 L11.8348487,24.9443232 C12.0363933,24.8293028 12.2004556,24.5481419 12.1992335,24.3162755 L12.1967688,23.4186299 Z M10.5407846,22.50577 C10.5223506,22.4668213 10.5119047,22.4181355 10.5119047,22.3615382 L10.5094452,21.4638926 C10.5088324,21.2320262 10.6728947,20.9502567 10.8762827,20.8340192 L11.6652562,20.3824579 C11.766643,20.325252 11.8581983,20.3197748 11.9245606,20.3581149 L12.0812493,20.4481838 C12.1476115,20.4859153 12.1887807,20.5674642 12.1893952,20.6830931 L12.1918548,21.5807387 C12.1924675,21.8101708 12.0284053,22.0913316 11.8268606,22.206352 L11.0385016,22.6573048 C10.9020902,22.7352022 10.7884141,22.7126849 10.7238953,22.625659 C10.7398714,22.646959 10.7533896,22.6706934 10.7755104,22.6828649 L10.6188217,22.592796 C10.5856406,22.5739302 10.5592186,22.5447187 10.5407846,22.50577 L10.5407846,22.50577 Z M10.6114481,19.8578677 C10.5450859,19.8195276 10.5045312,19.7385873 10.5039167,19.623567 L10.5014571,18.7253128 C10.5008444,18.4934464 10.6649066,18.2122856 10.8689091,18.0954395 L11.6578826,17.6444867 C11.758655,17.5866722 11.8502103,17.5818037 11.917187,17.6201438 L12.0738757,17.7102126 C12.1396235,17.7479442 12.1807927,17.8288844 12.1814071,17.9445133 L12.1838667,18.8427675 C12.1844795,19.0746339 12.0204172,19.3557948 11.819487,19.4708151 L11.0305135,19.9223765 C10.8947167,19.9996653 10.781655,19.9771481 10.7171362,19.8907307 C10.7331123,19.9114222 10.7466305,19.9351565 10.7681368,19.9479366 L10.6114481,19.8578677 Z" id="Fill-4" fill="#B6B5B3"></path>
                                    <path d="M1.8280959,28.9334601 C1.6240934,29.0496976 1.46003115,29.331467 1.46064389,29.5633335 L1.46371794,30.460979 C1.4643324,30.6928455 1.62900912,30.7865657 1.83301162,30.6697197 L2.62198515,30.2187669 C2.82352979,30.1037465 2.98759204,29.8219771 2.98636997,29.5901107 L2.98390525,28.6924651 C2.98329078,28.4605987 2.8179996,28.367487 2.61706942,28.4825073 L1.8280959,28.9334601 Z M1.82010785,26.1979232 C1.61671981,26.3147693 1.45265756,26.5959302 1.45327031,26.8277966 L1.45572989,27.7260507 C1.45634435,27.9548743 1.62163554,28.047986 1.82502357,27.9317485 L2.6139971,27.4801871 C2.81554174,27.3651668 2.97960399,27.0840059 2.97899124,26.8551824 L2.9759172,25.9569282 C2.97530273,25.7250618 2.81062601,25.6319501 2.60908137,25.7469704 L1.82010785,26.1979232 Z M1.81273426,23.4599521 C1.60873176,23.5761896 1.44466951,23.857959 1.44528226,24.0898254 L1.44774184,24.987471 C1.44835631,25.2193374 1.61364749,25.3130577 1.81764999,25.1962116 L2.60662351,24.7452588 C2.80755369,24.6302385 2.97161594,24.3484691 2.97100319,24.1166026 L2.96854361,23.2189571 C2.96792915,22.9870906 2.80263796,22.8939789 2.60109332,23.0089993 L1.81273426,23.4599521 Z M4.90288057,27.1752919 C4.69949254,27.2915294 4.53543028,27.5732988 4.53604303,27.8051653 L4.53850261,28.7028108 C4.53911708,28.9346773 4.70440826,29.027789 4.90779629,28.9115515 L5.69676982,28.4605987 C5.89831446,28.3455783 6.06237671,28.0638089 6.06115464,27.8319425 L6.05868992,26.9342969 C6.05807545,26.7024305 5.89339874,26.6093188 5.6918541,26.7243391 L4.90288057,27.1752919 Z M4.89550699,24.439755 C4.69150449,24.5566011 4.52744223,24.837762 4.52805498,25.0696284 L4.53051456,25.9678825 C4.53112903,26.1967061 4.69642021,26.2898178 4.89980824,26.1735803 L5.68939623,25.7220189 C5.89032641,25.6069986 6.05438866,25.3258377 6.05377591,25.0970142 L6.05131633,24.19876 C6.05070187,23.9668936 5.88541069,23.8737819 5.68386605,23.9888023 L4.89550699,24.439755 Z M4.88751894,21.7017839 C4.68351644,21.8180214 4.51945419,22.0997908 4.52006693,22.3316572 L4.52252651,23.2293028 C4.52314098,23.4611692 4.68843216,23.5542809 4.89243466,23.4380434 L5.68140819,22.9870906 C5.88233836,22.8720703 6.04640061,22.5903009 6.04578787,22.3584344 L6.04332828,21.4607889 C6.04271382,21.2289224 5.87742264,21.1358107 5.67649246,21.2508311 L4.88751894,21.7017839 Z M7.97766524,25.4171237 C7.77427721,25.5333612 7.61021496,25.8151307 7.6108277,26.0469971 L7.61328728,26.9446427 C7.61390175,27.1765091 7.77919293,27.2696208 7.98258097,27.1533833 L8.77155449,26.7024305 C8.97309913,26.5874101 9.13716138,26.3056407 9.13654864,26.0737743 L9.13347459,25.1761287 C9.13286012,24.9442623 8.96818341,24.850542 8.76663877,24.9655624 L7.97766524,25.4171237 Z M7.97029166,22.6815869 C7.76628916,22.7984329 7.60222691,23.0795938 7.60283965,23.3114602 L7.60529923,24.2097144 C7.6059137,24.4385379 7.77120488,24.5316496 7.97520738,24.4148035 L8.76418091,23.9638507 C8.96511108,23.8488304 9.12917333,23.5676695 9.12856059,23.3382374 L9.12610101,22.4405918 C9.12548654,22.2087254 8.96019536,22.1156137 8.75926518,22.2306341 L7.97029166,22.6815869 Z M7.96230361,19.9436157 C7.75830111,20.0598532 7.59423886,20.3416226 7.5948516,20.573489 L7.59731118,21.4711346 C7.59854012,21.703001 7.76321683,21.7961127 7.96721933,21.6798752 L8.75619286,21.2283139 C8.95712303,21.1132935 9.12118528,20.8321327 9.12057254,20.6002663 L9.11811296,19.7020121 C9.11749849,19.4707543 8.95220731,19.377034 8.75127713,19.4920543 L7.96230361,19.9436157 Z M11.0524499,23.6589555 C10.8490619,23.775193 10.6849996,24.0569625 10.6856124,24.2888289 L10.688072,25.1864745 C10.6886864,25.4183409 10.8539776,25.5114526 11.0579801,25.3952151 L11.8469536,24.9436537 C12.0478838,24.8286334 12.2119461,24.5474725 12.2113333,24.3156061 L12.2088737,23.4179605 C12.2082593,23.1854855 12.0429681,23.0923738 11.8420379,23.2073942 L11.0524499,23.6589555 Z M11.0450763,20.9234187 C10.8410738,21.0396562 10.6770116,21.3214256 10.6776243,21.553292 L10.6800839,22.4509376 C10.6813128,22.6803697 10.8459896,22.7734814 11.0499921,22.6566354 L11.8389656,22.2056826 C12.0398958,22.0906622 12.203958,21.8088928 12.2033453,21.5800692 L12.2008857,20.6824236 C12.2002712,20.4505572 12.03498,20.3574455 11.8340499,20.4724659 L11.0450763,20.9234187 Z M11.8260618,17.7338861 C12.026992,17.6188658 12.1922832,17.7119775 12.1928976,17.9438439 L12.1953572,18.8420981 C12.19597,19.0739645 12.0325222,19.3551253 11.8309775,19.4701457 L11.042004,19.921707 C10.8380015,20.0379445 10.6733248,19.9448328 10.6727103,19.7129664 L10.6696363,18.8153208 C10.6690235,18.5828458 10.8330858,18.301685 11.0370883,18.1854475 L11.8260618,17.7338861 Z" id="Fill-6" fill="#E8E7E7"></path>
                                    <path d="M19.4202392,17.3554753 C19.2033329,18.4204785 18.5390959,19.533559 17.7021941,20.2303754 L17.7052664,21.3580617 L17.8877626,21.4627363 C19.2635506,20.4293789 20.35607,18.5841847 20.6000127,16.8905253 L20.4175165,16.7852421 L19.4202392,17.3554753 Z" id="Fill-8" fill="#B6B5B3"></path>
                                    <path d="M18.6863909,17.3089194 C18.6851543,16.8950896 18.5376826,16.6048001 18.2992701,16.4690883 C18.3017279,16.4703054 18.1192317,16.3650223 18.1192317,16.3650223 C17.8795902,16.2274847 17.5477789,16.246959 17.1803286,16.4569168 C16.4540306,16.8725724 15.8635294,17.8821954 15.8659796,18.7122894 C15.8672162,19.1218592 16.0134589,19.4103229 16.2500281,19.5460348 L16.4325243,19.6513179 C16.3993432,19.6324522 16.3723067,19.6032407 16.3428123,19.5782891 C16.5861406,19.7845955 16.9548198,19.7992012 17.3714274,19.5606405 C18.1014122,19.1431593 18.6888411,18.1353619 18.6863909,17.3089194" id="Fill-10" fill="#B6B5B3"></path>
                                    <path d="M16.599536,20.8387661 C16.2400737,20.9361378 15.916865,20.9111863 15.6477291,20.7882545 C15.41116,20.6208969 15.2311216,20.3628618 15.1358795,20.0147579 L14.9533833,19.9094747 L13.956106,20.4797079 C14.080228,21.1661785 14.4028223,21.6597315 14.860599,21.9226351 L15.0430952,22.0279183 C14.9798053,21.9914039 14.9257323,21.9402837 14.8679726,21.8952493 C15.3515568,22.2713476 16.0188662,22.3589822 16.7851045,22.0784299 L16.7820322,20.9440493 L16.599536,20.8387661 Z" id="Fill-12" fill="#B6B5B3"></path>
                                    <path d="M17.8697588,15.2081245 C18.2630166,15.0839755 18.6157197,15.1016241 18.9051329,15.233076 C19.1595216,15.4138222 19.3481624,15.7004602 19.4354165,16.0899471 L19.6185272,16.1952303 L20.6121177,15.6268229 C20.500285,14.8916663 20.1666303,14.3676848 19.6861184,14.0944354 C19.6941064,14.0980868 19.5116102,13.9934122 19.5116102,13.9934122 C19.3297285,13.8887376 19.1269549,13.8205774 18.9069763,13.7907573 C18.7607335,13.7706744 18.6065027,13.7676315 18.4461273,13.7828458 C18.3656323,13.7901487 18.2839084,13.8017116 18.2003411,13.8181431 C18.033821,13.851006 17.8611563,13.9021262 17.6841902,13.9721121 L17.6872626,15.1028413 L17.8697588,15.2081245 Z" id="Fill-14" fill="#B6B5B3"></path>
                                    <path d="M15.1131443,18.7710167 C15.3017851,17.7078392 15.943287,16.5789358 16.767285,15.8565593 L16.7642127,14.7215701 L16.5817165,14.6168955 C15.2188323,15.6831159 14.1490481,17.544133 13.9364431,19.234141 L14.1189393,19.3394241 L15.1131443,18.7710167 Z" id="Fill-16" fill="#B6B5B3"></path>
                                    <path d="M16.7714019,14.7236393 C15.4085178,15.7898596 14.3387336,17.6508767 14.1261286,19.3414933 L15.1203335,18.7730858 C15.3089744,17.7099083 15.9498617,16.5803963 16.7744743,15.8586284 L16.7714019,14.7236393 Z M20.619184,15.6285877 C20.3949042,14.1552318 19.2796495,13.5253585 17.8737528,14.0785516 L17.8768251,15.2098893 C18.7444502,14.9354228 19.4283502,15.3218668 19.6255935,16.1969952 L20.619184,15.6285877 Z M14.1457914,20.5866342 C14.3952644,21.9693127 15.4533737,22.5699745 16.7922938,22.0806816 L16.7892214,20.9456924 C15.9922599,21.161736 15.3593605,20.8045034 15.1430687,20.016401 L14.1457914,20.5866342 Z M17.3705057,16.5639649 C16.6435931,16.9790118 16.0530919,17.9892435 16.0555421,18.8193374 C16.0580076,19.6457799 16.6521957,19.9780609 17.3791082,19.5624054 C18.1084786,19.1455327 18.6959074,18.1377353 18.6934573,17.3106843 C18.6909917,16.4805903 18.099876,16.1464836 17.3705057,16.5639649 L17.3705057,16.5639649 Z M17.8915723,20.3371192 C18.7290886,19.6403028 19.3927112,18.5272222 19.6096174,17.462219 L20.6068947,16.8919859 C20.362952,18.5862539 19.2704326,20.4308395 17.8946446,21.4648054 L17.8915723,20.3371192 Z" id="Fill-18" fill="#E8E7E7"></path>
                                    <polygon id="Fill-20" fill="#3A3737" points="0.0307232681 12.0947853 0 22.7782891 21.0141009 10.6835039 21.0448242 0"></polygon>
                                    <polygon id="Fill-22" fill="#3A3A3E" points="1.81814156 12.8258035 1.79294848 19.8353505 19.2265597 9.80058575 19.2517528 2.79164733"></polygon>
                                    <polygon id="Fill-24" fill="#4D4D4D" points="18.9029823 2.99241566 18.8790181 9.59847857 1.7944232 19.4318056 1.7925798 19.8352896 19.2268055 9.80113347 19.2519986 2.79158647"></polygon>
                                    <g id="电池备份-2" transform="translate(6.388370, 6.853326)">
                                        <path d="M0.600384331,4.2394933 L0.600384331,8.24390658 C0.600384331,8.37304973 0.508841285,8.53008654 0.395917214,8.59465811 L0.218548148,8.69608024 C0.105624077,8.76065182 0.0140810309,8.70830621 0.0140810309,8.57916307 L0.0140810309,4.57474978 C0.0140810309,4.44560663 0.105624077,4.28856982 0.218548148,4.22399825 L0.395917214,4.12257612 C0.508841285,4.05800455 0.600384331,4.11035015 0.600384331,4.2394933 Z" id="Rectangle-620" fill="#3FCA00"></path>
                                        <path d="M1.39608167,3.78450236 L1.39608167,7.78891565 C1.39608167,7.91805879 1.30453862,8.0750956 1.19161455,8.13966717 L1.01424548,8.2410893 C0.901321414,8.30566088 0.809778367,8.25331527 0.809778367,8.12417213 L0.809778367,4.11975884 C0.809778367,3.99061569 0.901321414,3.83357888 1.01424548,3.76900731 L1.19161455,3.66758518 C1.30453862,3.60301361 1.39608167,3.65535921 1.39608167,3.78450236 Z" id="Rectangle-624" fill="#3FCA00"></path>
                                        <path d="M2.191779,3.32951142 L2.191779,7.33392471 C2.191779,7.46306785 2.10023596,7.62010466 1.98731189,7.68467624 L1.80994282,7.78609836 C1.69701875,7.85066994 1.6054757,7.79832433 1.6054757,7.66918119 L1.6054757,3.6647679 C1.6054757,3.53562475 1.69701875,3.37858795 1.80994282,3.31401637 L1.98731189,3.21259424 C2.10023596,3.14802267 2.191779,3.20036827 2.191779,3.32951142 Z" id="Rectangle-628" fill="#3FCA00"></path>
                                        <path d="M2.98747634,2.87452048 L2.98747634,6.87893377 C2.98747634,7.00807691 2.89593329,7.16511372 2.78300922,7.2296853 L2.60564016,7.33110742 C2.49271609,7.395679 2.40117304,7.3433334 2.40117304,7.21419025 L2.40117304,3.20977696 C2.40117304,3.08063381 2.49271609,2.92359701 2.60564016,2.85902543 L2.78300922,2.7576033 C2.89593329,2.69303173 2.98747634,2.74537733 2.98747634,2.87452048 Z" id="Rectangle-632" fill="#3FCA00"></path>
                                        <path d="M3.78317368,2.41952954 L3.78317368,6.42394283 C3.78317368,6.55308598 3.69163063,6.71012278 3.57870656,6.77469436 L3.40133749,6.87611649 C3.28841342,6.94068806 3.19687038,6.88834246 3.19687038,6.75919931 L3.19687038,2.75478602 C3.19687038,2.62564288 3.28841342,2.46860607 3.40133749,2.40403449 L3.57870656,2.30261237 C3.69163063,2.23804079 3.78317368,2.29038639 3.78317368,2.41952954 Z" id="Rectangle-636" fill="#3FCA00"></path>
                                        <path d="M4.57887101,1.9645386 L4.57887101,5.96895189 C4.57887101,6.09809504 4.48732797,6.25513184 4.3744039,6.31970342 L4.19703483,6.42112555 C4.08411076,6.48569712 3.99256771,6.43335152 3.99256771,6.30420837 L3.99256771,2.29979508 C3.99256771,2.17065194 4.08411076,2.01361513 4.19703483,1.94904355 L4.3744039,1.84762143 C4.48732797,1.78304985 4.57887101,1.83539546 4.57887101,1.9645386 Z" id="Rectangle-640" fill="#3FCA00"></path>
                                        <path d="M5.37456835,1.50954766 L5.37456835,5.51396095 C5.37456835,5.6431041 5.2830253,5.80014091 5.17010123,5.86471248 L4.99273217,5.96613461 C4.87980809,6.03070618 4.78826505,5.97836058 4.78826505,5.84921743 L4.78826505,1.84480414 C4.78826505,1.715661 4.87980809,1.55862419 4.99273217,1.49405262 L5.17010123,1.39263049 C5.2830253,1.32805891 5.37456835,1.38040452 5.37456835,1.50954766 Z" id="Rectangle-644" fill="#3FCA00"></path>
                                        <path d="M6.17026568,1.05455672 L6.17026568,5.05897001 C6.17026568,5.18811316 6.07872264,5.34514997 5.96579857,5.40972154 L5.7884295,5.51114367 C5.67550543,5.57571524 5.58396238,5.52336964 5.58396238,5.39422649 L5.58396238,1.38981321 C5.58396238,1.26067006 5.67550543,1.10363325 5.7884295,1.03906168 L5.96579857,0.937639548 C6.07872264,0.873067975 6.17026568,0.925413578 6.17026568,1.05455672 Z" id="Rectangle-648" fill="#505050"></path>
                                        <path d="M6.96596302,0.599565786 L6.96596302,4.60397907 C6.96596302,4.73312222 6.87441997,4.89015903 6.7614959,4.9547306 L6.58412684,5.05615273 C6.47120277,5.1207243 6.37965972,5.0683787 6.37965972,4.93923555 L6.37965972,0.934822267 C6.37965972,0.80567912 6.47120277,0.648642312 6.58412684,0.584070738 L6.7614959,0.482648609 C6.87441997,0.418077036 6.96596302,0.470422639 6.96596302,0.599565786 Z" id="Rectangle-652" fill="#505050"></path>
                                        <path d="M7.76166036,0.144574847 L7.76166036,4.14898813 C7.76166036,4.27813128 7.67011731,4.43516809 7.55719324,4.49973966 L7.37982417,4.60116179 C7.2669001,4.66573336 7.17535706,4.61338776 7.17535706,4.48424461 L7.17535706,0.479831328 C7.17535706,0.350688181 7.2669001,0.193651373 7.37982417,0.129079799 L7.55719324,0.0276576703 C7.67011731,-0.0369139031 7.76166036,0.0154316997 7.76166036,0.144574847 Z" id="Rectangle-656" fill="#505050"></path>
                                        <path d="M8.70393352,0.909026534 L8.70393352,2.30692633 C8.70393352,2.53837263 8.53987294,2.81980908 8.33749396,2.93553223 L8.17552151,3.02815035 C8.06259744,3.09272193 7.97105439,3.04037632 7.97105439,2.91123318 L7.97105439,1.14286089 C7.97105439,1.01371774 8.06259744,0.856680932 8.17552151,0.792109358 L8.33749396,0.699491234 C8.53987294,0.583768082 8.70393352,0.677580232 8.70393352,0.909026534 Z" id="矩形" fill="#505050"></path>
                                    </g>
                                </g>
                            </g>
                        </g>
                    </g>
                </g>
            </g>
        </g>
    </g>
</svg>